M48
;Layer_Color=9474304
;FILE_FORMAT=2:5
INCH,TZ
;TYPE=PLATED
T1F00S00C0.02800
T2F00S00C0.03543
T3F00S00C0.03937
T4F00S00C0.04016
T5F00S00C0.11811
%
T01
X100500Y54500
X243000Y112000
X246257Y118500
X250000Y105500
X274000Y120500
X273500Y126500
X272000Y155000
Y162000
X272500Y190500
X273043Y196975
X323000Y171500
X322500Y112500
X124418Y102500
X100192Y89240
X100000Y124000
X100192Y159432
X100500Y194500
X120419Y177500
X122418Y141659
X130500Y63000
X119000Y214000
X100500Y229000
X118000Y246500
X101500Y264000
Y299500
X123000Y310500
X123500Y282500
Y343500
X145500Y352000
X101500Y334500
X230823Y329424
X231000Y314500
X263000
X273000Y301500
Y295500
X273500Y266500
Y260500
X274000Y232000
Y226000
X322500Y242000
X301005Y308230
X288000Y321000
X231000Y356500
T02
X27736Y51567
X37579
X47421
X57264
X322736Y51567
X332579Y51567
X342421
X352264
Y86567
X342421
X332579
X322736Y86567
X322736Y121567
X332579
X342421
X352264Y121567
Y156567
X342421Y156567
X332579
X322736
X322736Y191567
X332579
X342421
X352264
X57264
Y156567
Y121567
Y86567
X47421
X37579
X27736
Y121567
X37579
X47421
Y156567
X37579
X27736
X27736Y191567
X37579
X47421
Y226567
X37579
X27736
X27736Y261567
X37579
X47421
X47421Y296567
X37579
X27736
Y331567
X37579
X47421Y331567
X57264Y331567
Y296567
Y261567
Y226567
X322736
X332579
X342421
X352264
Y261567
X342421
X332579
X322736Y261567
X322736Y296567
X332579
X342421
X352264
T03
X162579Y51567
X172421
X202579
X212421
X242579
X252421
X282579
X292421
X252421Y86567
X242579
X216949Y143043
Y153043
Y163043
Y173043
Y183043
Y193043
Y203043
X146949
Y193043
Y183043
Y173043
Y163043
Y153043
Y143043
X171949Y143909
X181949
X191949
X202579Y86567
X212421
X172421
X162579
X146949Y213043
Y223043
Y233043
Y243043
Y253043
Y263043
Y273043
Y283043
Y293043
Y303043
Y313043
Y323043
Y333043
X216949
Y323043
Y313043
Y303043
Y293043
Y283043
Y273043
Y263043
Y253043
Y243043
Y233043
Y223043
Y213043
X262579Y331567
X272421
X272500Y360000
X282500
X262500
X302579Y331567
X312421
X342579
X352421
T04
X172000Y119500
X182000
X192000
T05
X20500Y20500
X360000Y20000
X20000Y360000
X360000
M30
