G04*
G04 #@! TF.GenerationSoftware,Altium Limited,Altium Designer,22.0.2 (36)*
G04*
G04 Layer_Physical_Order=1*
G04 Layer_Color=255*
%FSLAX25Y25*%
%MOIN*%
G70*
G04*
G04 #@! TF.SameCoordinates,D3D46FE2-1C8D-4EF8-A088-ECFC07646440*
G04*
G04*
G04 #@! TF.FilePolarity,Positive*
G04*
G01*
G75*
%ADD12C,0.01000*%
%ADD13R,0.05906X0.05118*%
%ADD14R,0.05118X0.05906*%
%ADD15R,0.06102X0.05118*%
%ADD16R,0.05512X0.03937*%
%ADD25C,0.06102*%
%ADD26R,0.06102X0.06102*%
%ADD27C,0.05512*%
%ADD28R,0.05512X0.05512*%
%ADD31C,0.19685*%
%ADD32C,0.06299*%
%ADD33R,0.06299X0.06299*%
G04:AMPARAMS|DCode=34|XSize=125.98mil|YSize=62.99mil|CornerRadius=15.75mil|HoleSize=0mil|Usage=FLASHONLY|Rotation=0.000|XOffset=0mil|YOffset=0mil|HoleType=Round|Shape=RoundedRectangle|*
%AMROUNDEDRECTD34*
21,1,0.12598,0.03150,0,0,0.0*
21,1,0.09449,0.06299,0,0,0.0*
1,1,0.03150,0.04724,-0.01575*
1,1,0.03150,-0.04724,-0.01575*
1,1,0.03150,-0.04724,0.01575*
1,1,0.03150,0.04724,0.01575*
%
%ADD34ROUNDEDRECTD34*%
G04:AMPARAMS|DCode=35|XSize=62.99mil|YSize=125.98mil|CornerRadius=15.75mil|HoleSize=0mil|Usage=FLASHONLY|Rotation=0.000|XOffset=0mil|YOffset=0mil|HoleType=Round|Shape=RoundedRectangle|*
%AMROUNDEDRECTD35*
21,1,0.06299,0.09449,0,0,0.0*
21,1,0.03150,0.12598,0,0,0.0*
1,1,0.03150,0.01575,-0.04724*
1,1,0.03150,-0.01575,-0.04724*
1,1,0.03150,-0.01575,0.04724*
1,1,0.03150,0.01575,0.04724*
%
%ADD35ROUNDEDRECTD35*%
%ADD36C,0.05000*%
G36*
X374957Y365043D02*
Y14842D01*
X365158Y5043D01*
X15086D01*
X5043Y14841D01*
Y365043D01*
X14957Y374957D01*
X365043D01*
X374957Y365043D01*
D02*
G37*
%LPC*%
G36*
X245453Y370799D02*
X242000D01*
Y367740D01*
X245453D01*
Y370799D01*
D02*
G37*
G36*
X241000D02*
X237547D01*
Y367740D01*
X241000D01*
Y370799D01*
D02*
G37*
G36*
X273046Y364150D02*
X273000D01*
Y360500D01*
X276650D01*
Y360546D01*
X276367Y361602D01*
X275820Y362548D01*
X275048Y363320D01*
X274102Y363867D01*
X273046Y364150D01*
D02*
G37*
G36*
X360853Y370843D02*
X360500D01*
Y360500D01*
X370843D01*
Y360853D01*
X370575Y362539D01*
X370048Y364162D01*
X369273Y365683D01*
X368270Y367063D01*
X367063Y368270D01*
X365683Y369273D01*
X364162Y370048D01*
X362539Y370575D01*
X360853Y370843D01*
D02*
G37*
G36*
X359500D02*
X359147D01*
X357461Y370575D01*
X355838Y370048D01*
X354317Y369273D01*
X352937Y368270D01*
X351730Y367063D01*
X350727Y365683D01*
X349952Y364162D01*
X349425Y362539D01*
X349158Y360853D01*
Y360500D01*
X359500D01*
Y370843D01*
D02*
G37*
G36*
X20853D02*
X20500D01*
Y360500D01*
X30843D01*
Y360853D01*
X30575Y362539D01*
X30048Y364162D01*
X29273Y365683D01*
X28270Y367063D01*
X27063Y368270D01*
X25683Y369273D01*
X24162Y370048D01*
X22539Y370575D01*
X20853Y370843D01*
D02*
G37*
G36*
X19500D02*
X19147D01*
X17461Y370575D01*
X15838Y370048D01*
X14317Y369273D01*
X12937Y368270D01*
X11730Y367063D01*
X10727Y365683D01*
X9952Y364162D01*
X9425Y362539D01*
X9157Y360853D01*
Y360500D01*
X19500D01*
Y370843D01*
D02*
G37*
G36*
X272000Y364150D02*
X271954D01*
X270898Y363867D01*
X269952Y363320D01*
X269180Y362548D01*
X268633Y361602D01*
X268350Y360546D01*
Y360500D01*
X272000D01*
Y364150D01*
D02*
G37*
G36*
X283046D02*
X281954D01*
X280898Y363867D01*
X279952Y363320D01*
X279180Y362548D01*
X278633Y361602D01*
X278350Y360546D01*
Y359454D01*
X278633Y358398D01*
X279180Y357452D01*
X279952Y356680D01*
X280898Y356133D01*
X281954Y355850D01*
X283046D01*
X284102Y356133D01*
X285048Y356680D01*
X285821Y357452D01*
X286367Y358398D01*
X286650Y359454D01*
Y360546D01*
X286367Y361602D01*
X285821Y362548D01*
X285048Y363320D01*
X284102Y363867D01*
X283046Y364150D01*
D02*
G37*
G36*
X276650Y359500D02*
X273000D01*
Y355850D01*
X273046D01*
X274102Y356133D01*
X275048Y356680D01*
X275820Y357452D01*
X276367Y358398D01*
X276650Y359454D01*
Y359500D01*
D02*
G37*
G36*
X272000D02*
X268350D01*
Y359454D01*
X268633Y358398D01*
X269180Y357452D01*
X269952Y356680D01*
X270898Y356133D01*
X271954Y355850D01*
X272000D01*
Y359500D01*
D02*
G37*
G36*
X245453Y366740D02*
X241500D01*
X237547D01*
Y363819D01*
X237547Y363681D01*
Y363319D01*
X237547Y363181D01*
Y362529D01*
X228343D01*
X227758Y362413D01*
X227262Y362081D01*
X219017Y353837D01*
X218686Y353341D01*
X218569Y352755D01*
Y337215D01*
X215374D01*
X214702Y337127D01*
X214075Y336867D01*
X213538Y336455D01*
X213125Y335917D01*
X212865Y335290D01*
X212777Y334618D01*
Y331469D01*
X212865Y330796D01*
X213125Y330170D01*
X213538Y329632D01*
X214075Y329219D01*
X214702Y328960D01*
X215374Y328871D01*
X224823D01*
X225495Y328960D01*
X226121Y329219D01*
X226659Y329632D01*
X226823Y329846D01*
X227323Y329676D01*
Y328963D01*
X227562Y328073D01*
X228023Y327275D01*
X228674Y326624D01*
X229472Y326163D01*
X230363Y325924D01*
X231284D01*
X232174Y326163D01*
X232973Y326624D01*
X233624Y327275D01*
X234085Y328073D01*
X234323Y328963D01*
Y329885D01*
X234085Y330775D01*
X233624Y331573D01*
X232973Y332225D01*
X232529Y332481D01*
Y353342D01*
X233149Y353699D01*
X233801Y354351D01*
X234261Y355149D01*
X234500Y356039D01*
Y356961D01*
X234261Y357851D01*
X233801Y358649D01*
X233479Y358971D01*
X233686Y359471D01*
X237547D01*
Y356201D01*
X245453D01*
Y358230D01*
X258350D01*
Y355850D01*
X266650D01*
Y364150D01*
X258350D01*
Y361289D01*
X245453D01*
Y363181D01*
X245453Y363319D01*
Y363681D01*
X245453Y363819D01*
Y366740D01*
D02*
G37*
G36*
X370843Y359500D02*
X360500D01*
Y349158D01*
X360853D01*
X362539Y349425D01*
X364162Y349952D01*
X365683Y350727D01*
X367063Y351730D01*
X368270Y352937D01*
X369273Y354317D01*
X370048Y355838D01*
X370575Y357461D01*
X370843Y359147D01*
Y359500D01*
D02*
G37*
G36*
X359500D02*
X349158D01*
Y359147D01*
X349425Y357461D01*
X349952Y355838D01*
X350727Y354317D01*
X351730Y352937D01*
X352937Y351730D01*
X354317Y350727D01*
X355838Y349952D01*
X357461Y349425D01*
X359147Y349158D01*
X359500D01*
Y359500D01*
D02*
G37*
G36*
X30843D02*
X20500D01*
Y349158D01*
X20853D01*
X22539Y349425D01*
X24162Y349952D01*
X25683Y350727D01*
X27063Y351730D01*
X28270Y352937D01*
X29273Y354317D01*
X30048Y355838D01*
X30575Y357461D01*
X30843Y359147D01*
Y359500D01*
D02*
G37*
G36*
X19500D02*
X9157D01*
Y359147D01*
X9425Y357461D01*
X9952Y355838D01*
X10727Y354317D01*
X11730Y352937D01*
X12937Y351730D01*
X14317Y350727D01*
X15838Y349952D01*
X17461Y349425D01*
X19147Y349158D01*
X19500D01*
Y359500D01*
D02*
G37*
G36*
X145961Y355500D02*
X145039D01*
X144149Y355261D01*
X143351Y354801D01*
X142699Y354149D01*
X142238Y353351D01*
X142000Y352461D01*
Y351539D01*
X142185Y350848D01*
X127107Y335770D01*
X116453D01*
Y337799D01*
X108547D01*
Y336029D01*
X104658D01*
X104301Y336649D01*
X103649Y337301D01*
X102851Y337761D01*
X101961Y338000D01*
X101039D01*
X100149Y337761D01*
X99351Y337301D01*
X98699Y336649D01*
X98342Y336029D01*
X95587D01*
Y337469D01*
X88075D01*
Y331532D01*
X95587D01*
Y332971D01*
X98342D01*
X98699Y332351D01*
X99351Y331699D01*
X100149Y331239D01*
X101039Y331000D01*
X101961D01*
X102851Y331239D01*
X103649Y331699D01*
X104301Y332351D01*
X104658Y332971D01*
X108547D01*
Y330819D01*
X108547Y330681D01*
Y330319D01*
X108547Y330181D01*
Y327260D01*
X112500D01*
X116453D01*
Y330181D01*
X116453Y330319D01*
Y330681D01*
X116453Y330819D01*
Y332711D01*
X127740D01*
X128325Y332827D01*
X128822Y333159D01*
X144348Y348685D01*
X145039Y348500D01*
X145961D01*
X146851Y348739D01*
X147649Y349199D01*
X148301Y349851D01*
X148761Y350649D01*
X149000Y351539D01*
Y352461D01*
X148761Y353351D01*
X148301Y354149D01*
X147649Y354801D01*
X146851Y355261D01*
X145961Y355500D01*
D02*
G37*
G36*
X123961Y347000D02*
X123039D01*
X122149Y346761D01*
X121351Y346301D01*
X120699Y345649D01*
X120342Y345029D01*
X89217D01*
X88631Y344913D01*
X88135Y344581D01*
X84762Y341209D01*
X79413D01*
Y339770D01*
X44252D01*
X43667Y339653D01*
X43170Y339322D01*
X38940Y335091D01*
X38073Y335323D01*
X37084D01*
X36129Y335067D01*
X35273Y334572D01*
X34573Y333873D01*
X34079Y333017D01*
X33823Y332061D01*
Y331072D01*
X34079Y330117D01*
X34573Y329261D01*
X35273Y328561D01*
X36129Y328067D01*
X37084Y327811D01*
X38073D01*
X39028Y328067D01*
X39885Y328561D01*
X40584Y329261D01*
X41079Y330117D01*
X41335Y331072D01*
Y332061D01*
X41102Y332928D01*
X44885Y336711D01*
X49749D01*
X49940Y336249D01*
X48782Y335091D01*
X47916Y335323D01*
X46927D01*
X45972Y335067D01*
X45115Y334572D01*
X44416Y333873D01*
X43921Y333017D01*
X43665Y332061D01*
Y331072D01*
X43921Y330117D01*
X44416Y329261D01*
X45115Y328561D01*
X45972Y328067D01*
X46927Y327811D01*
X47916D01*
X48871Y328067D01*
X49727Y328561D01*
X50427Y329261D01*
X50921Y330117D01*
X51177Y331072D01*
Y332061D01*
X50945Y332928D01*
X52311Y334293D01*
X54047D01*
X54212Y333793D01*
X53764Y333017D01*
X53509Y332067D01*
X57264D01*
X61018D01*
X60764Y333017D01*
X60315Y333793D01*
X60480Y334293D01*
X65044D01*
X69659Y329678D01*
X70155Y329347D01*
X70740Y329230D01*
X79413D01*
Y327791D01*
X86925D01*
Y333728D01*
X79413D01*
Y332289D01*
X71374D01*
X67414Y336249D01*
X67605Y336711D01*
X79413D01*
Y335272D01*
X86925D01*
Y339046D01*
X89850Y341971D01*
X120342D01*
X120699Y341351D01*
X121351Y340699D01*
X122149Y340238D01*
X123039Y340000D01*
X123961D01*
X124851Y340238D01*
X125649Y340699D01*
X126301Y341351D01*
X126761Y342149D01*
X127000Y343039D01*
Y343961D01*
X126761Y344851D01*
X126301Y345649D01*
X125649Y346301D01*
X124851Y346761D01*
X123961Y347000D01*
D02*
G37*
G36*
X352955Y335618D02*
X352921D01*
Y332067D01*
X356472D01*
Y332100D01*
X356196Y333131D01*
X355663Y334054D01*
X354909Y334809D01*
X353985Y335342D01*
X352955Y335618D01*
D02*
G37*
G36*
X351921D02*
X351888D01*
X350857Y335342D01*
X349934Y334809D01*
X349180Y334054D01*
X348646Y333131D01*
X348370Y332100D01*
Y332067D01*
X351921D01*
Y335618D01*
D02*
G37*
G36*
X312955D02*
X312921D01*
Y332067D01*
X316472D01*
Y332100D01*
X316196Y333131D01*
X315663Y334054D01*
X314909Y334809D01*
X313985Y335342D01*
X312955Y335618D01*
D02*
G37*
G36*
X311921D02*
X311888D01*
X310858Y335342D01*
X309934Y334809D01*
X309179Y334054D01*
X308646Y333131D01*
X308370Y332100D01*
Y332067D01*
X311921D01*
Y335618D01*
D02*
G37*
G36*
X148524Y337215D02*
X139075D01*
X138403Y337127D01*
X137776Y336867D01*
X137238Y336455D01*
X136826Y335917D01*
X136566Y335290D01*
X136478Y334618D01*
Y331469D01*
X136566Y330796D01*
X136826Y330170D01*
X137238Y329632D01*
X137776Y329219D01*
X138403Y328960D01*
X139075Y328871D01*
X148524D01*
X149196Y328960D01*
X149822Y329219D01*
X150360Y329632D01*
X150773Y330170D01*
X151032Y330796D01*
X151121Y331469D01*
Y334618D01*
X151032Y335290D01*
X150773Y335917D01*
X150360Y336455D01*
X149822Y336867D01*
X149196Y337127D01*
X148524Y337215D01*
D02*
G37*
G36*
X61018Y331067D02*
X57764D01*
Y327813D01*
X58714Y328067D01*
X59570Y328561D01*
X60269Y329261D01*
X60764Y330117D01*
X61018Y331067D01*
D02*
G37*
G36*
X56764D02*
X53509D01*
X53764Y330117D01*
X54258Y329261D01*
X54958Y328561D01*
X55814Y328067D01*
X56764Y327813D01*
Y331067D01*
D02*
G37*
G36*
X356472Y331067D02*
X352921D01*
Y327516D01*
X352955D01*
X353985Y327792D01*
X354909Y328325D01*
X355663Y329079D01*
X356196Y330003D01*
X356472Y331034D01*
Y331067D01*
D02*
G37*
G36*
X351921D02*
X348370D01*
Y331034D01*
X348646Y330003D01*
X349180Y329079D01*
X349934Y328325D01*
X350857Y327792D01*
X351888Y327516D01*
X351921D01*
Y331067D01*
D02*
G37*
G36*
X316472D02*
X312921D01*
Y327516D01*
X312955D01*
X313985Y327792D01*
X314909Y328325D01*
X315663Y329079D01*
X316196Y330003D01*
X316472Y331034D01*
Y331067D01*
D02*
G37*
G36*
X311921D02*
X308370D01*
Y331034D01*
X308646Y330003D01*
X309179Y329079D01*
X309934Y328325D01*
X310858Y327792D01*
X311888Y327516D01*
X311921D01*
Y331067D01*
D02*
G37*
G36*
X306630Y335618D02*
X298528D01*
Y333096D01*
X281567D01*
X280982Y332980D01*
X280486Y332648D01*
X272410Y324573D01*
X227420D01*
Y324618D01*
X227331Y325290D01*
X227072Y325917D01*
X226659Y326454D01*
X226121Y326867D01*
X225495Y327127D01*
X224823Y327215D01*
X215374D01*
X214702Y327127D01*
X214075Y326867D01*
X213538Y326454D01*
X213125Y325917D01*
X212865Y325290D01*
X212777Y324618D01*
Y321468D01*
X212865Y320796D01*
X213125Y320170D01*
X213538Y319632D01*
X214075Y319219D01*
X214702Y318960D01*
X215374Y318871D01*
X224823D01*
X225495Y318960D01*
X226121Y319219D01*
X226659Y319632D01*
X227072Y320170D01*
X227331Y320796D01*
X227420Y321468D01*
Y321514D01*
X273043D01*
X273629Y321630D01*
X274125Y321962D01*
X282200Y330037D01*
X298528D01*
Y327516D01*
X306630D01*
Y335618D01*
D02*
G37*
G36*
X272955D02*
X271888D01*
X270858Y335342D01*
X269934Y334809D01*
X269180Y334054D01*
X268646Y333131D01*
X268370Y332100D01*
Y331034D01*
X268646Y330003D01*
X269180Y329079D01*
X269934Y328325D01*
X270858Y327792D01*
X271888Y327516D01*
X272955D01*
X273985Y327792D01*
X274909Y328325D01*
X275663Y329079D01*
X276196Y330003D01*
X276472Y331034D01*
Y332100D01*
X276196Y333131D01*
X275663Y334054D01*
X274909Y334809D01*
X273985Y335342D01*
X272955Y335618D01*
D02*
G37*
G36*
X266630D02*
X258528D01*
Y327516D01*
X266630D01*
Y335618D01*
D02*
G37*
G36*
X116453Y326260D02*
X113000D01*
Y323201D01*
X116453D01*
Y326260D01*
D02*
G37*
G36*
X112000D02*
X108547D01*
Y323201D01*
X112000D01*
Y326260D01*
D02*
G37*
G36*
X148524Y327215D02*
X139075D01*
X138403Y327127D01*
X137776Y326867D01*
X137238Y326454D01*
X136826Y325917D01*
X136566Y325290D01*
X136478Y324618D01*
Y321468D01*
X136566Y320796D01*
X136826Y320170D01*
X137238Y319632D01*
X137776Y319219D01*
X138403Y318960D01*
X139075Y318871D01*
X148524D01*
X149196Y318960D01*
X149822Y319219D01*
X150360Y319632D01*
X150773Y320170D01*
X151032Y320796D01*
X151121Y321468D01*
Y324618D01*
X151032Y325290D01*
X150773Y325917D01*
X150360Y326454D01*
X149822Y326867D01*
X149196Y327127D01*
X148524Y327215D01*
D02*
G37*
G36*
X346630Y335618D02*
X338528D01*
Y327516D01*
X341049D01*
Y324212D01*
X330867Y314029D01*
X283846D01*
X283654Y314491D01*
X286848Y317685D01*
X287539Y317500D01*
X288461D01*
X289351Y317739D01*
X290149Y318199D01*
X290801Y318851D01*
X291262Y319649D01*
X291500Y320539D01*
Y321461D01*
X291262Y322351D01*
X290801Y323149D01*
X290149Y323801D01*
X289351Y324261D01*
X288461Y324500D01*
X287539D01*
X286649Y324261D01*
X285851Y323801D01*
X285199Y323149D01*
X284738Y322351D01*
X284500Y321461D01*
Y320539D01*
X284685Y319848D01*
X280867Y316029D01*
X266159D01*
X265801Y316649D01*
X265149Y317301D01*
X264351Y317761D01*
X263461Y318000D01*
X262539D01*
X261649Y317761D01*
X260851Y317301D01*
X260199Y316649D01*
X259841Y316029D01*
X234158D01*
X233801Y316649D01*
X233149Y317301D01*
X232351Y317761D01*
X231461Y318000D01*
X230539D01*
X229649Y317761D01*
X228851Y317301D01*
X228199Y316649D01*
X227738Y315851D01*
X227700Y315707D01*
X227173Y315672D01*
X227072Y315917D01*
X226659Y316455D01*
X226121Y316867D01*
X225495Y317127D01*
X224823Y317215D01*
X220598D01*
Y313043D01*
Y308872D01*
X224823D01*
X225495Y308960D01*
X226121Y309219D01*
X226659Y309632D01*
X227072Y310170D01*
X227331Y310796D01*
X227420Y311469D01*
Y312701D01*
X227920Y312835D01*
X228199Y312351D01*
X228851Y311699D01*
X229649Y311239D01*
X230539Y311000D01*
X231461D01*
X232351Y311239D01*
X233149Y311699D01*
X233801Y312351D01*
X234158Y312971D01*
X259841D01*
X260199Y312351D01*
X260851Y311699D01*
X261649Y311239D01*
X262340Y311053D01*
X262526Y310532D01*
X262023Y310029D01*
X257000D01*
X256415Y309913D01*
X255919Y309581D01*
X250910Y304573D01*
X227420D01*
Y304618D01*
X227331Y305290D01*
X227072Y305917D01*
X226659Y306454D01*
X226121Y306867D01*
X225495Y307127D01*
X224823Y307215D01*
X215374D01*
X214702Y307127D01*
X214075Y306867D01*
X213538Y306454D01*
X213125Y305917D01*
X212865Y305290D01*
X212777Y304618D01*
Y301468D01*
X212865Y300796D01*
X213125Y300170D01*
X213538Y299632D01*
X214075Y299219D01*
X214702Y298960D01*
X215374Y298871D01*
X224823D01*
X225495Y298960D01*
X226121Y299219D01*
X226659Y299632D01*
X227072Y300170D01*
X227331Y300796D01*
X227420Y301468D01*
Y301514D01*
X251543D01*
X252129Y301630D01*
X252625Y301962D01*
X257633Y306971D01*
X262657D01*
X263242Y307087D01*
X263738Y307419D01*
X267290Y310971D01*
X298142D01*
X298333Y310509D01*
X298204Y310380D01*
X297846Y309760D01*
X267730D01*
X267145Y309644D01*
X266649Y309312D01*
X261419Y304081D01*
X261087Y303585D01*
X260971Y303000D01*
Y302799D01*
X258547D01*
Y295819D01*
X258547Y295681D01*
Y295319D01*
X258547Y295181D01*
Y292260D01*
X262500D01*
Y291760D01*
D01*
Y292260D01*
X266453D01*
Y295181D01*
X266453Y295319D01*
Y295681D01*
X266453Y295819D01*
Y302799D01*
X265115D01*
X264924Y303261D01*
X268364Y306701D01*
X288057D01*
X288075Y306209D01*
X288075D01*
Y300272D01*
X295587D01*
Y301711D01*
X335115D01*
X338897Y297928D01*
X338665Y297061D01*
Y296073D01*
X338921Y295117D01*
X339416Y294261D01*
X340115Y293562D01*
X340971Y293067D01*
X341927Y292811D01*
X342916D01*
X343871Y293067D01*
X344727Y293562D01*
X345427Y294261D01*
X345921Y295117D01*
X346177Y296073D01*
Y297061D01*
X345921Y298017D01*
X345427Y298873D01*
X344727Y299572D01*
X343871Y300067D01*
X342916Y300323D01*
X341927D01*
X341060Y300091D01*
X336829Y304322D01*
X336333Y304653D01*
X335748Y304769D01*
X303010D01*
X302876Y305270D01*
X303154Y305430D01*
X303805Y306082D01*
X304266Y306880D01*
X304505Y307770D01*
Y308691D01*
X304266Y309581D01*
X303805Y310380D01*
X303676Y310509D01*
X303868Y310971D01*
X331500D01*
X332085Y311087D01*
X332581Y311419D01*
X343660Y322497D01*
X343992Y322993D01*
X344108Y323579D01*
Y327516D01*
X346630D01*
Y335618D01*
D02*
G37*
G36*
X219598Y317215D02*
X215374D01*
X214702Y317127D01*
X214075Y316867D01*
X213538Y316455D01*
X213125Y315917D01*
X212865Y315290D01*
X212777Y314618D01*
Y313543D01*
X219598D01*
Y317215D01*
D02*
G37*
G36*
X148524D02*
X144299D01*
Y313543D01*
X151121D01*
Y314618D01*
X151032Y315290D01*
X150773Y315917D01*
X150360Y316455D01*
X149822Y316867D01*
X149196Y317127D01*
X148524Y317215D01*
D02*
G37*
G36*
X143299D02*
X139075D01*
X138403Y317127D01*
X137776Y316867D01*
X137238Y316455D01*
X136826Y315917D01*
X136566Y315290D01*
X136478Y314618D01*
Y313543D01*
X143299D01*
Y317215D01*
D02*
G37*
G36*
X219598Y312543D02*
X212777D01*
Y311469D01*
X212865Y310796D01*
X213125Y310170D01*
X213538Y309632D01*
X214075Y309219D01*
X214702Y308960D01*
X215374Y308872D01*
X219598D01*
Y312543D01*
D02*
G37*
G36*
X151121D02*
X144299D01*
Y308872D01*
X148524D01*
X149196Y308960D01*
X149822Y309219D01*
X150360Y309632D01*
X150773Y310170D01*
X151032Y310796D01*
X151121Y311469D01*
Y312543D01*
D02*
G37*
G36*
X143299D02*
X136478D01*
Y311469D01*
X136566Y310796D01*
X136826Y310170D01*
X137238Y309632D01*
X137776Y309219D01*
X138403Y308960D01*
X139075Y308872D01*
X143299D01*
Y312543D01*
D02*
G37*
G36*
X123461Y314000D02*
X122539D01*
X121649Y313761D01*
X120851Y313301D01*
X120199Y312649D01*
X119842Y312029D01*
X91216D01*
X90631Y311913D01*
X90135Y311581D01*
X84762Y306209D01*
X79413D01*
Y304769D01*
X44252D01*
X43667Y304653D01*
X43170Y304322D01*
X38940Y300091D01*
X38073Y300323D01*
X37084D01*
X36129Y300067D01*
X35273Y299572D01*
X34573Y298873D01*
X34079Y298017D01*
X33823Y297061D01*
Y296073D01*
X34079Y295117D01*
X34573Y294261D01*
X35273Y293562D01*
X36129Y293067D01*
X37084Y292811D01*
X38073D01*
X39028Y293067D01*
X39885Y293562D01*
X40584Y294261D01*
X41079Y295117D01*
X41335Y296073D01*
Y297061D01*
X41102Y297928D01*
X44885Y301711D01*
X49749D01*
X49940Y301249D01*
X48782Y300091D01*
X47916Y300323D01*
X46927D01*
X45972Y300067D01*
X45115Y299572D01*
X44416Y298873D01*
X43921Y298017D01*
X43665Y297061D01*
Y296073D01*
X43921Y295117D01*
X44416Y294261D01*
X45115Y293562D01*
X45972Y293067D01*
X46927Y292811D01*
X47916D01*
X48871Y293067D01*
X49727Y293562D01*
X50427Y294261D01*
X50921Y295117D01*
X51177Y296073D01*
Y297061D01*
X50945Y297928D01*
X52311Y299293D01*
X54047D01*
X54212Y298793D01*
X53764Y298017D01*
X53509Y297067D01*
X57264D01*
X61018D01*
X60764Y298017D01*
X60315Y298793D01*
X60480Y299293D01*
X65042D01*
X69657Y294678D01*
X70153Y294347D01*
X70739Y294231D01*
X79413D01*
Y292791D01*
X86925D01*
Y298728D01*
X79413D01*
Y297289D01*
X71372D01*
X67413Y301249D01*
X67604Y301711D01*
X79413D01*
Y300272D01*
X86925D01*
Y304046D01*
X91850Y308971D01*
X119842D01*
X120199Y308351D01*
X120851Y307699D01*
X121649Y307239D01*
X122539Y307000D01*
X123461D01*
X124351Y307239D01*
X125149Y307699D01*
X125801Y308351D01*
X126261Y309149D01*
X126500Y310039D01*
Y310961D01*
X126261Y311851D01*
X125801Y312649D01*
X125149Y313301D01*
X124351Y313761D01*
X123461Y314000D01*
D02*
G37*
G36*
X148524Y307215D02*
X139075D01*
X138403Y307127D01*
X137776Y306867D01*
X137238Y306454D01*
X136826Y305917D01*
X136566Y305290D01*
X136478Y304618D01*
Y301468D01*
X136566Y300796D01*
X136826Y300170D01*
X137238Y299632D01*
X137776Y299219D01*
X138403Y298960D01*
X139075Y298871D01*
X148524D01*
X149196Y298960D01*
X149822Y299219D01*
X150360Y299632D01*
X150773Y300170D01*
X151032Y300796D01*
X151121Y301468D01*
Y304618D01*
X151032Y305290D01*
X150773Y305917D01*
X150360Y306454D01*
X149822Y306867D01*
X149196Y307127D01*
X148524Y307215D01*
D02*
G37*
G36*
X352764Y300321D02*
Y297067D01*
X356018D01*
X355764Y298017D01*
X355269Y298873D01*
X354570Y299572D01*
X353713Y300067D01*
X352764Y300321D01*
D02*
G37*
G36*
X351764Y300321D02*
X350814Y300067D01*
X349958Y299572D01*
X349258Y298873D01*
X348764Y298017D01*
X348509Y297067D01*
X351764D01*
Y300321D01*
D02*
G37*
G36*
Y296067D02*
X348509D01*
X348764Y295117D01*
X349258Y294261D01*
X349958Y293562D01*
X350814Y293067D01*
X351764Y292812D01*
Y296067D01*
D02*
G37*
G36*
X61018D02*
X57764D01*
Y292812D01*
X58714Y293067D01*
X59570Y293562D01*
X60269Y294261D01*
X60764Y295117D01*
X61018Y296067D01*
D02*
G37*
G36*
X56764D02*
X53509D01*
X53764Y295117D01*
X54258Y294261D01*
X54958Y293562D01*
X55814Y293067D01*
X56764Y292812D01*
Y296067D01*
D02*
G37*
G36*
X356018D02*
X352764D01*
Y292812D01*
X353713Y293067D01*
X354570Y293562D01*
X355269Y294261D01*
X355764Y295117D01*
X356018Y296067D01*
D02*
G37*
G36*
X273461Y305000D02*
X272539D01*
X271649Y304762D01*
X270851Y304301D01*
X270199Y303649D01*
X269739Y302851D01*
X269500Y301961D01*
Y301039D01*
X269739Y300149D01*
X270199Y299351D01*
X270738Y298813D01*
X270807Y298500D01*
X270738Y298187D01*
X270199Y297649D01*
X269739Y296851D01*
X269500Y295961D01*
Y295039D01*
X269739Y294149D01*
X270199Y293351D01*
X270851Y292699D01*
X271649Y292238D01*
X272539Y292000D01*
X273461D01*
X274351Y292238D01*
X275149Y292699D01*
X275801Y293351D01*
X276158Y293971D01*
X288075D01*
Y292791D01*
X293424D01*
X294986Y291230D01*
X295482Y290898D01*
X296067Y290782D01*
X328323D01*
X328908Y290898D01*
X329404Y291230D01*
X331218Y293043D01*
X332084Y292811D01*
X333073D01*
X334029Y293067D01*
X334885Y293562D01*
X335584Y294261D01*
X336079Y295117D01*
X336335Y296073D01*
Y297061D01*
X336079Y298017D01*
X335584Y298873D01*
X334885Y299572D01*
X334029Y300067D01*
X333073Y300323D01*
X332084D01*
X331129Y300067D01*
X330273Y299572D01*
X329573Y298873D01*
X329079Y298017D01*
X328823Y297061D01*
Y296073D01*
X329055Y295206D01*
X327689Y293840D01*
X326492D01*
Y300323D01*
X318980D01*
Y293840D01*
X296700D01*
X295587Y294954D01*
Y298728D01*
X288075D01*
Y297029D01*
X286925D01*
Y302468D01*
X279413D01*
Y301029D01*
X276507D01*
X276500Y301039D01*
Y301961D01*
X276261Y302851D01*
X275801Y303649D01*
X275149Y304301D01*
X274351Y304762D01*
X273461Y305000D01*
D02*
G37*
G36*
X31492Y335323D02*
X23980D01*
Y327811D01*
X26207D01*
Y300323D01*
X23980D01*
Y292811D01*
X26207D01*
Y265323D01*
X23980D01*
Y257811D01*
X26207D01*
Y230323D01*
X23980D01*
Y222811D01*
X26207D01*
Y195323D01*
X23980D01*
Y187811D01*
X26207D01*
Y160323D01*
X23980D01*
Y152811D01*
X26207D01*
Y125323D01*
X23980D01*
Y117811D01*
X26207D01*
Y90323D01*
X23980D01*
Y82811D01*
X26207D01*
Y55323D01*
X23980D01*
Y47811D01*
X29329D01*
X38222Y38919D01*
X38718Y38587D01*
X39303Y38471D01*
X118000D01*
X118585Y38587D01*
X119081Y38919D01*
X123081Y42919D01*
X123413Y43415D01*
X123529Y44000D01*
Y48867D01*
X127374Y52711D01*
X129047D01*
Y50819D01*
X129047Y50681D01*
Y50319D01*
X129047Y50181D01*
Y47260D01*
X133000D01*
X136953D01*
Y50181D01*
X136953Y50319D01*
Y50681D01*
X136953Y50819D01*
Y57799D01*
X129047D01*
Y55770D01*
X126740D01*
X126155Y55653D01*
X125659Y55322D01*
X120919Y50581D01*
X120587Y50085D01*
X120471Y49500D01*
Y44633D01*
X117367Y41529D01*
X39937D01*
X31492Y49974D01*
Y55323D01*
X29266D01*
Y82168D01*
X29766Y82375D01*
X38222Y73919D01*
X38718Y73587D01*
X39303Y73471D01*
X93000D01*
X93585Y73587D01*
X94081Y73919D01*
X107874Y87711D01*
X108547D01*
Y85819D01*
X108547Y85681D01*
Y85319D01*
X108547Y85181D01*
Y82260D01*
X112500D01*
X116453D01*
Y85181D01*
X116453Y85319D01*
Y85681D01*
X116453Y85819D01*
Y92799D01*
X108547D01*
Y90770D01*
X107240D01*
X106655Y90653D01*
X106159Y90322D01*
X104060Y88223D01*
X103612Y88482D01*
X103692Y88779D01*
Y89701D01*
X103453Y90591D01*
X102993Y91389D01*
X102341Y92041D01*
X102325Y92050D01*
X102260Y92546D01*
X110685Y100971D01*
X121260D01*
X121618Y100351D01*
X122269Y99699D01*
X123067Y99239D01*
X123958Y99000D01*
X124879D01*
X125769Y99239D01*
X126567Y99699D01*
X127219Y100351D01*
X127680Y101149D01*
X127919Y102039D01*
Y102961D01*
X127680Y103851D01*
X127219Y104649D01*
X126567Y105301D01*
X125769Y105762D01*
X124879Y106000D01*
X123958D01*
X123067Y105762D01*
X122269Y105301D01*
X121618Y104649D01*
X121260Y104029D01*
X110051D01*
X109466Y103913D01*
X108970Y103581D01*
X100158Y94770D01*
X86925D01*
Y96209D01*
X79413D01*
Y94770D01*
X44252D01*
X43667Y94653D01*
X43170Y94322D01*
X38940Y90091D01*
X38073Y90323D01*
X37084D01*
X36129Y90067D01*
X35273Y89572D01*
X34573Y88873D01*
X34079Y88017D01*
X33823Y87061D01*
Y86072D01*
X34079Y85117D01*
X34573Y84261D01*
X35273Y83561D01*
X36129Y83067D01*
X37084Y82811D01*
X38073D01*
X39028Y83067D01*
X39885Y83561D01*
X40584Y84261D01*
X41079Y85117D01*
X41335Y86072D01*
Y87061D01*
X41102Y87928D01*
X44885Y91711D01*
X49749D01*
X49940Y91249D01*
X48782Y90091D01*
X47916Y90323D01*
X46927D01*
X45972Y90067D01*
X45115Y89572D01*
X44416Y88873D01*
X43921Y88017D01*
X43665Y87061D01*
Y86072D01*
X43921Y85117D01*
X44416Y84261D01*
X45115Y83561D01*
X45972Y83067D01*
X46927Y82811D01*
X47916D01*
X48871Y83067D01*
X49727Y83561D01*
X50427Y84261D01*
X50921Y85117D01*
X51177Y86072D01*
Y87061D01*
X50945Y87928D01*
X52311Y89293D01*
X54047D01*
X54212Y88793D01*
X53764Y88017D01*
X53509Y87067D01*
X57264D01*
X61018D01*
X60764Y88017D01*
X60315Y88793D01*
X60480Y89293D01*
X65042D01*
X69657Y84678D01*
X70153Y84347D01*
X70739Y84231D01*
X79413D01*
Y82791D01*
X86925D01*
Y88728D01*
X79413D01*
Y87289D01*
X71372D01*
X67413Y91249D01*
X67604Y91711D01*
X79413D01*
Y90272D01*
X86925D01*
Y91711D01*
X88075D01*
Y86532D01*
X95587D01*
Y87711D01*
X97033D01*
X97391Y87091D01*
X98043Y86440D01*
X98841Y85979D01*
X99731Y85740D01*
X100653D01*
X100950Y85820D01*
X101209Y85372D01*
X92366Y76529D01*
X39937D01*
X31492Y84974D01*
Y90323D01*
X29266D01*
Y117811D01*
X31492D01*
Y125323D01*
X29266D01*
Y152168D01*
X29766Y152375D01*
X36722Y145419D01*
X37218Y145087D01*
X37803Y144971D01*
X94500D01*
X95085Y145087D01*
X95581Y145419D01*
X107874Y157711D01*
X108547D01*
Y155819D01*
X108547Y155681D01*
Y155319D01*
X108547Y155181D01*
Y152260D01*
X112500D01*
X116453D01*
Y155181D01*
X116453Y155319D01*
Y155681D01*
X116453Y155819D01*
Y162799D01*
X108547D01*
Y160770D01*
X107240D01*
X106655Y160653D01*
X106159Y160322D01*
X103990Y158153D01*
X103542Y158412D01*
X103692Y158971D01*
Y159893D01*
X103453Y160783D01*
X102993Y161581D01*
X102341Y162233D01*
X101543Y162693D01*
X100653Y162932D01*
X99731D01*
X98841Y162693D01*
X98043Y162233D01*
X97391Y161581D01*
X97073Y161029D01*
X95587D01*
Y162469D01*
X94285D01*
X94093Y162930D01*
X107133Y175971D01*
X117260D01*
X117618Y175351D01*
X118269Y174699D01*
X119068Y174239D01*
X119958Y174000D01*
X120879D01*
X121769Y174239D01*
X122567Y174699D01*
X123219Y175351D01*
X123680Y176149D01*
X123918Y177039D01*
Y177961D01*
X123680Y178851D01*
X123219Y179649D01*
X122567Y180301D01*
X121769Y180762D01*
X120879Y181000D01*
X119958D01*
X119068Y180762D01*
X118269Y180301D01*
X117618Y179649D01*
X117260Y179029D01*
X106500D01*
X105915Y178913D01*
X105419Y178581D01*
X91607Y164770D01*
X86925D01*
Y166209D01*
X79413D01*
Y164770D01*
X44252D01*
X43667Y164653D01*
X43170Y164322D01*
X38940Y160091D01*
X38073Y160323D01*
X37084D01*
X36129Y160067D01*
X35273Y159572D01*
X34573Y158873D01*
X34079Y158017D01*
X33823Y157061D01*
Y156072D01*
X34079Y155117D01*
X34573Y154261D01*
X35273Y153561D01*
X36129Y153067D01*
X37084Y152811D01*
X38073D01*
X39028Y153067D01*
X39885Y153561D01*
X40584Y154261D01*
X41079Y155117D01*
X41335Y156072D01*
Y157061D01*
X41102Y157928D01*
X44886Y161711D01*
X49749D01*
X49940Y161249D01*
X48782Y160091D01*
X47916Y160323D01*
X46927D01*
X45972Y160067D01*
X45115Y159572D01*
X44416Y158873D01*
X43921Y158017D01*
X43665Y157061D01*
Y156072D01*
X43921Y155117D01*
X44416Y154261D01*
X45115Y153561D01*
X45972Y153067D01*
X46927Y152811D01*
X47916D01*
X48871Y153067D01*
X49727Y153561D01*
X50427Y154261D01*
X50921Y155117D01*
X51177Y156072D01*
Y157061D01*
X50945Y157928D01*
X52311Y159293D01*
X54047D01*
X54212Y158793D01*
X53764Y158017D01*
X53509Y157067D01*
X57264D01*
X61018D01*
X60764Y158017D01*
X60315Y158793D01*
X60480Y159293D01*
X65042D01*
X69657Y154678D01*
X70153Y154347D01*
X70739Y154230D01*
X79413D01*
Y152791D01*
X86925D01*
Y158728D01*
X79413D01*
Y157289D01*
X71372D01*
X67413Y161249D01*
X67604Y161711D01*
X79413D01*
Y160272D01*
X86925D01*
Y161711D01*
X88075D01*
Y156532D01*
X95587D01*
Y157971D01*
X96994D01*
X97391Y157283D01*
X98043Y156631D01*
X98841Y156170D01*
X99731Y155932D01*
X100653D01*
X101212Y156082D01*
X101470Y155633D01*
X93866Y148029D01*
X38437D01*
X31492Y154974D01*
Y160323D01*
X29266D01*
Y187811D01*
X31492D01*
Y195323D01*
X29266D01*
Y222167D01*
X29766Y222375D01*
X37722Y214419D01*
X38218Y214087D01*
X38803Y213971D01*
X94000D01*
X94585Y214087D01*
X95081Y214419D01*
X108047Y227384D01*
X108547Y227177D01*
Y225819D01*
X108547Y225681D01*
Y225319D01*
X108547Y225181D01*
Y222260D01*
X112500D01*
X116453D01*
Y225181D01*
X116453Y225319D01*
Y225681D01*
X116453Y225819D01*
Y232799D01*
X108547D01*
Y230769D01*
X107740D01*
X107155Y230653D01*
X106659Y230322D01*
X104386Y228049D01*
X103938Y228308D01*
X104000Y228539D01*
Y229461D01*
X103761Y230351D01*
X103301Y231149D01*
X102649Y231801D01*
X101851Y232261D01*
X100961Y232500D01*
X100039D01*
X99808Y232438D01*
X99549Y232886D01*
X111634Y244971D01*
X114841D01*
X115199Y244351D01*
X115851Y243699D01*
X116649Y243238D01*
X117539Y243000D01*
X118461D01*
X119351Y243238D01*
X120149Y243699D01*
X120801Y244351D01*
X121262Y245149D01*
X121500Y246039D01*
Y246961D01*
X121262Y247851D01*
X120801Y248649D01*
X120149Y249301D01*
X119351Y249762D01*
X118461Y250000D01*
X117539D01*
X116649Y249762D01*
X115851Y249301D01*
X115199Y248649D01*
X114841Y248029D01*
X111000D01*
X110415Y247913D01*
X109919Y247581D01*
X97107Y234770D01*
X86925D01*
Y236209D01*
X79413D01*
Y234770D01*
X44252D01*
X43667Y234653D01*
X43170Y234322D01*
X38940Y230091D01*
X38073Y230323D01*
X37084D01*
X36129Y230067D01*
X35273Y229572D01*
X34573Y228873D01*
X34079Y228017D01*
X33823Y227061D01*
Y226073D01*
X34079Y225117D01*
X34573Y224261D01*
X35273Y223562D01*
X36129Y223067D01*
X37084Y222811D01*
X38073D01*
X39028Y223067D01*
X39885Y223562D01*
X40584Y224261D01*
X41079Y225117D01*
X41335Y226073D01*
Y227061D01*
X41102Y227928D01*
X44886Y231711D01*
X49749D01*
X49940Y231249D01*
X48782Y230091D01*
X47916Y230323D01*
X46927D01*
X45972Y230067D01*
X45115Y229572D01*
X44416Y228873D01*
X43921Y228017D01*
X43665Y227061D01*
Y226073D01*
X43921Y225117D01*
X44416Y224261D01*
X45115Y223562D01*
X45972Y223067D01*
X46927Y222811D01*
X47916D01*
X48871Y223067D01*
X49727Y223562D01*
X50427Y224261D01*
X50921Y225117D01*
X51177Y226073D01*
Y227061D01*
X50945Y227928D01*
X52311Y229293D01*
X54047D01*
X54212Y228793D01*
X53764Y228017D01*
X53509Y227067D01*
X57264D01*
X61018D01*
X60764Y228017D01*
X60315Y228793D01*
X60480Y229293D01*
X65042D01*
X69657Y224678D01*
X70153Y224347D01*
X70739Y224231D01*
X79413D01*
Y222791D01*
X86925D01*
Y228728D01*
X79413D01*
Y227289D01*
X71372D01*
X67413Y231249D01*
X67604Y231711D01*
X79413D01*
Y230272D01*
X86925D01*
Y231711D01*
X88075D01*
Y226532D01*
X95587D01*
Y227711D01*
X97222D01*
X97238Y227649D01*
X97699Y226851D01*
X98351Y226199D01*
X99149Y225739D01*
X100039Y225500D01*
X100961D01*
X101192Y225562D01*
X101451Y225114D01*
X93366Y217029D01*
X39437D01*
X31492Y224974D01*
Y230323D01*
X29266D01*
Y257811D01*
X31492D01*
Y265323D01*
X29266D01*
Y292167D01*
X29766Y292375D01*
X35722Y286419D01*
X36218Y286087D01*
X36803Y285971D01*
X96500D01*
X97085Y286087D01*
X97581Y286419D01*
X108085Y296922D01*
X108547Y296731D01*
Y295819D01*
X108547Y295681D01*
Y295319D01*
X108547Y295181D01*
Y292260D01*
X112500D01*
X116453D01*
Y295181D01*
X116453Y295319D01*
Y295681D01*
X116453Y295819D01*
Y302799D01*
X108547D01*
Y300769D01*
X108240D01*
X107655Y300653D01*
X107159Y300322D01*
X105386Y298549D01*
X104938Y298808D01*
X105000Y299039D01*
Y299961D01*
X104762Y300851D01*
X104301Y301649D01*
X103649Y302301D01*
X102851Y302762D01*
X101961Y303000D01*
X101039D01*
X100149Y302762D01*
X99351Y302301D01*
X98699Y301649D01*
X98342Y301029D01*
X95587D01*
Y302468D01*
X88075D01*
Y296532D01*
X95587D01*
Y297971D01*
X98342D01*
X98699Y297351D01*
X99351Y296699D01*
X100149Y296238D01*
X101039Y296000D01*
X101961D01*
X102192Y296062D01*
X102451Y295614D01*
X95867Y289029D01*
X37437D01*
X31492Y294974D01*
Y300323D01*
X29266D01*
Y327811D01*
X31492D01*
Y335323D01*
D02*
G37*
G36*
X224823Y297215D02*
X215374D01*
X214702Y297127D01*
X214075Y296867D01*
X213538Y296455D01*
X213125Y295917D01*
X212865Y295290D01*
X212777Y294618D01*
Y291469D01*
X212865Y290796D01*
X213125Y290170D01*
X213538Y289632D01*
X214075Y289219D01*
X214702Y288960D01*
X215374Y288872D01*
X224823D01*
X225495Y288960D01*
X226121Y289219D01*
X226659Y289632D01*
X227072Y290170D01*
X227331Y290796D01*
X227420Y291469D01*
Y294618D01*
X227331Y295290D01*
X227072Y295917D01*
X226659Y296455D01*
X226121Y296867D01*
X225495Y297127D01*
X224823Y297215D01*
D02*
G37*
G36*
X148524D02*
X139075D01*
X138403Y297127D01*
X137776Y296867D01*
X137238Y296455D01*
X136826Y295917D01*
X136566Y295290D01*
X136478Y294618D01*
Y291469D01*
X136566Y290796D01*
X136826Y290170D01*
X137238Y289632D01*
X137776Y289219D01*
X138403Y288960D01*
X139075Y288872D01*
X148524D01*
X149196Y288960D01*
X149822Y289219D01*
X150360Y289632D01*
X150773Y290170D01*
X151032Y290796D01*
X151121Y291469D01*
Y294618D01*
X151032Y295290D01*
X150773Y295917D01*
X150360Y296455D01*
X149822Y296867D01*
X149196Y297127D01*
X148524Y297215D01*
D02*
G37*
G36*
X266453Y291260D02*
X263000D01*
Y288201D01*
X266453D01*
Y291260D01*
D02*
G37*
G36*
X262000D02*
X258547D01*
Y288201D01*
X262000D01*
Y291260D01*
D02*
G37*
G36*
X116453D02*
X113000D01*
Y288201D01*
X116453D01*
Y291260D01*
D02*
G37*
G36*
X112000D02*
X108547D01*
Y288201D01*
X112000D01*
Y291260D01*
D02*
G37*
G36*
X123961Y286000D02*
X123039D01*
X122149Y285761D01*
X121351Y285301D01*
X120699Y284649D01*
X120342Y284029D01*
X106500D01*
X105915Y283913D01*
X105419Y283581D01*
X91607Y269770D01*
X86925D01*
Y271209D01*
X79413D01*
Y269770D01*
X44252D01*
X43667Y269653D01*
X43170Y269322D01*
X38940Y265091D01*
X38073Y265323D01*
X37084D01*
X36129Y265067D01*
X35273Y264572D01*
X34573Y263873D01*
X34079Y263017D01*
X33823Y262061D01*
Y261072D01*
X34079Y260117D01*
X34573Y259261D01*
X35273Y258561D01*
X36129Y258067D01*
X37084Y257811D01*
X38073D01*
X39028Y258067D01*
X39885Y258561D01*
X40584Y259261D01*
X41079Y260117D01*
X41335Y261072D01*
Y262061D01*
X41102Y262928D01*
X44885Y266711D01*
X49749D01*
X49940Y266249D01*
X48782Y265091D01*
X47916Y265323D01*
X46927D01*
X45972Y265067D01*
X45115Y264572D01*
X44416Y263873D01*
X43921Y263017D01*
X43665Y262061D01*
Y261072D01*
X43921Y260117D01*
X44416Y259261D01*
X45115Y258561D01*
X45972Y258067D01*
X46927Y257811D01*
X47916D01*
X48871Y258067D01*
X49727Y258561D01*
X50427Y259261D01*
X50921Y260117D01*
X51177Y261072D01*
Y262061D01*
X50945Y262928D01*
X52311Y264293D01*
X54047D01*
X54212Y263793D01*
X53764Y263017D01*
X53509Y262067D01*
X57264D01*
Y261567D01*
D01*
Y262067D01*
X61018D01*
X60764Y263017D01*
X60315Y263793D01*
X60480Y264293D01*
X65042D01*
X69657Y259678D01*
X70153Y259347D01*
X70739Y259230D01*
X79413D01*
Y257791D01*
X86925D01*
Y263728D01*
X79413D01*
Y262289D01*
X71372D01*
X67413Y266249D01*
X67604Y266711D01*
X79413D01*
Y265272D01*
X86925D01*
Y266711D01*
X88075D01*
Y261531D01*
X95587D01*
Y262711D01*
X98222D01*
X98238Y262649D01*
X98699Y261851D01*
X99351Y261199D01*
X100149Y260738D01*
X101039Y260500D01*
X101961D01*
X102851Y260738D01*
X103649Y261199D01*
X104301Y261851D01*
X104762Y262649D01*
X104778Y262711D01*
X108547D01*
Y260819D01*
X108547Y260681D01*
Y260319D01*
X108547Y260181D01*
Y257260D01*
X112500D01*
X116453D01*
Y260181D01*
X116453Y260319D01*
Y260681D01*
X116453Y260819D01*
Y267799D01*
X108547D01*
Y265770D01*
X104520D01*
X104301Y266149D01*
X103649Y266801D01*
X102851Y267262D01*
X101961Y267500D01*
X101039D01*
X100149Y267262D01*
X99351Y266801D01*
X98699Y266149D01*
X98480Y265770D01*
X95587D01*
Y267469D01*
X94285D01*
X94093Y267930D01*
X107133Y280971D01*
X120342D01*
X120699Y280351D01*
X121351Y279699D01*
X122149Y279239D01*
X123039Y279000D01*
X123961D01*
X124851Y279239D01*
X125649Y279699D01*
X126301Y280351D01*
X126761Y281149D01*
X127000Y282039D01*
Y282961D01*
X126761Y283851D01*
X126301Y284649D01*
X125649Y285301D01*
X124851Y285761D01*
X123961Y286000D01*
D02*
G37*
G36*
X148524Y287215D02*
X139075D01*
X138403Y287127D01*
X137776Y286867D01*
X137238Y286455D01*
X136826Y285917D01*
X136566Y285290D01*
X136478Y284618D01*
Y281469D01*
X136566Y280796D01*
X136826Y280170D01*
X137238Y279632D01*
X137776Y279219D01*
X138403Y278960D01*
X139075Y278871D01*
X148524D01*
X149196Y278960D01*
X149822Y279219D01*
X150360Y279632D01*
X150773Y280170D01*
X151032Y280796D01*
X151121Y281469D01*
Y284618D01*
X151032Y285290D01*
X150773Y285917D01*
X150360Y286455D01*
X149822Y286867D01*
X149196Y287127D01*
X148524Y287215D01*
D02*
G37*
G36*
Y277215D02*
X139075D01*
X138403Y277127D01*
X137776Y276867D01*
X137238Y276454D01*
X136826Y275917D01*
X136566Y275290D01*
X136478Y274618D01*
Y271468D01*
X136566Y270796D01*
X136826Y270170D01*
X137238Y269632D01*
X137776Y269219D01*
X138403Y268960D01*
X139075Y268871D01*
X148524D01*
X149196Y268960D01*
X149822Y269219D01*
X150360Y269632D01*
X150773Y270170D01*
X151032Y270796D01*
X151121Y271468D01*
Y274618D01*
X151032Y275290D01*
X150773Y275917D01*
X150360Y276454D01*
X149822Y276867D01*
X149196Y277127D01*
X148524Y277215D01*
D02*
G37*
G36*
X273961Y270000D02*
X273039D01*
X272149Y269761D01*
X271351Y269301D01*
X270699Y268649D01*
X270238Y267851D01*
X270000Y266961D01*
Y266245D01*
X269524Y265770D01*
X266453D01*
Y267799D01*
X258547D01*
Y260819D01*
X258547Y260681D01*
Y260319D01*
X258547Y260181D01*
Y257260D01*
X262500D01*
X266453D01*
Y260181D01*
X266453Y260319D01*
Y260681D01*
X266453Y260819D01*
Y262711D01*
X270158D01*
X270477Y262264D01*
X270238Y261851D01*
X270000Y260961D01*
Y260039D01*
X270238Y259149D01*
X270699Y258351D01*
X271351Y257699D01*
X272149Y257239D01*
X273039Y257000D01*
X273961D01*
X274851Y257239D01*
X275649Y257699D01*
X276301Y258351D01*
X276659Y258971D01*
X288075D01*
Y257791D01*
X293424D01*
X294986Y256230D01*
X295482Y255898D01*
X296067Y255782D01*
X328323D01*
X328908Y255898D01*
X329404Y256230D01*
X331218Y258043D01*
X332084Y257811D01*
X333073D01*
X334029Y258067D01*
X334885Y258561D01*
X335584Y259261D01*
X336079Y260117D01*
X336335Y261072D01*
Y262061D01*
X336079Y263017D01*
X335584Y263873D01*
X334885Y264572D01*
X334029Y265067D01*
X333073Y265323D01*
X332084D01*
X331129Y265067D01*
X330273Y264572D01*
X329573Y263873D01*
X329079Y263017D01*
X328823Y262061D01*
Y261072D01*
X329055Y260206D01*
X327689Y258840D01*
X326492D01*
Y265323D01*
X318980D01*
Y258840D01*
X296700D01*
X295587Y259954D01*
Y263728D01*
X288075D01*
Y262029D01*
X286925D01*
Y267469D01*
X279413D01*
Y266029D01*
X277216D01*
X277000Y266245D01*
Y266961D01*
X276762Y267851D01*
X276301Y268649D01*
X275649Y269301D01*
X274851Y269761D01*
X273961Y270000D01*
D02*
G37*
G36*
X224823Y267215D02*
X220598D01*
Y263543D01*
X227420D01*
Y264618D01*
X227331Y265290D01*
X227072Y265917D01*
X226659Y266455D01*
X226121Y266867D01*
X225495Y267127D01*
X224823Y267215D01*
D02*
G37*
G36*
X219598D02*
X215374D01*
X214702Y267127D01*
X214075Y266867D01*
X213538Y266455D01*
X213125Y265917D01*
X212865Y265290D01*
X212777Y264618D01*
Y263543D01*
X219598D01*
Y267215D01*
D02*
G37*
G36*
X148524D02*
X144299D01*
Y263543D01*
X151121D01*
Y264618D01*
X151032Y265290D01*
X150773Y265917D01*
X150360Y266455D01*
X149822Y266867D01*
X149196Y267127D01*
X148524Y267215D01*
D02*
G37*
G36*
X143299D02*
X139075D01*
X138403Y267127D01*
X137776Y266867D01*
X137238Y266455D01*
X136826Y265917D01*
X136566Y265290D01*
X136478Y264618D01*
Y263543D01*
X143299D01*
Y267215D01*
D02*
G37*
G36*
X352764Y265321D02*
Y262067D01*
X356018D01*
X355764Y263017D01*
X355269Y263873D01*
X354570Y264572D01*
X353713Y265067D01*
X352764Y265321D01*
D02*
G37*
G36*
X351764Y265321D02*
X350814Y265067D01*
X349958Y264572D01*
X349258Y263873D01*
X348764Y263017D01*
X348509Y262067D01*
X351764D01*
Y265321D01*
D02*
G37*
G36*
X227420Y262543D02*
X220598D01*
Y258872D01*
X224823D01*
X225495Y258960D01*
X226121Y259219D01*
X226659Y259632D01*
X227072Y260170D01*
X227331Y260796D01*
X227420Y261469D01*
Y262543D01*
D02*
G37*
G36*
X219598D02*
X212777D01*
Y261469D01*
X212865Y260796D01*
X213125Y260170D01*
X213538Y259632D01*
X214075Y259219D01*
X214702Y258960D01*
X215374Y258872D01*
X219598D01*
Y262543D01*
D02*
G37*
G36*
X151121D02*
X144299D01*
Y258872D01*
X148524D01*
X149196Y258960D01*
X149822Y259219D01*
X150360Y259632D01*
X150773Y260170D01*
X151032Y260796D01*
X151121Y261469D01*
Y262543D01*
D02*
G37*
G36*
X143299D02*
X136478D01*
Y261469D01*
X136566Y260796D01*
X136826Y260170D01*
X137238Y259632D01*
X137776Y259219D01*
X138403Y258960D01*
X139075Y258872D01*
X143299D01*
Y262543D01*
D02*
G37*
G36*
X351764Y261067D02*
X348509D01*
X348764Y260117D01*
X349258Y259261D01*
X349958Y258561D01*
X350814Y258067D01*
X351764Y257812D01*
Y261067D01*
D02*
G37*
G36*
X61018D02*
X57764D01*
Y257812D01*
X58714Y258067D01*
X59570Y258561D01*
X60269Y259261D01*
X60764Y260117D01*
X61018Y261067D01*
D02*
G37*
G36*
X56764D02*
X53509D01*
X53764Y260117D01*
X54258Y259261D01*
X54958Y258561D01*
X55814Y258067D01*
X56764Y257812D01*
Y261067D01*
D02*
G37*
G36*
X356018D02*
X352764D01*
Y257812D01*
X353713Y258067D01*
X354570Y258561D01*
X355269Y259261D01*
X355764Y260117D01*
X356018Y261067D01*
D02*
G37*
G36*
X295587Y271209D02*
X288075D01*
Y265272D01*
X295587D01*
Y266711D01*
X335115D01*
X338897Y262928D01*
X338665Y262061D01*
Y261072D01*
X338921Y260117D01*
X339416Y259261D01*
X340115Y258561D01*
X340971Y258067D01*
X341927Y257811D01*
X342916D01*
X343871Y258067D01*
X344727Y258561D01*
X345427Y259261D01*
X345921Y260117D01*
X346177Y261072D01*
Y262061D01*
X345921Y263017D01*
X345427Y263873D01*
X344727Y264572D01*
X343871Y265067D01*
X342916Y265323D01*
X341927D01*
X341060Y265091D01*
X336829Y269322D01*
X336333Y269653D01*
X335748Y269770D01*
X295587D01*
Y271209D01*
D02*
G37*
G36*
X266453Y256260D02*
X263000D01*
Y253201D01*
X266453D01*
Y256260D01*
D02*
G37*
G36*
X262000D02*
X258547D01*
Y253201D01*
X262000D01*
Y256260D01*
D02*
G37*
G36*
X116453D02*
X113000D01*
Y253201D01*
X116453D01*
Y256260D01*
D02*
G37*
G36*
X112000D02*
X108547D01*
Y253201D01*
X112000D01*
Y256260D01*
D02*
G37*
G36*
X148524Y257215D02*
X139075D01*
X138403Y257127D01*
X137776Y256867D01*
X137238Y256454D01*
X136826Y255917D01*
X136566Y255290D01*
X136478Y254618D01*
Y251468D01*
X136566Y250796D01*
X136826Y250170D01*
X137238Y249632D01*
X137776Y249219D01*
X138403Y248960D01*
X139075Y248871D01*
X148524D01*
X149196Y248960D01*
X149822Y249219D01*
X150360Y249632D01*
X150773Y250170D01*
X151032Y250796D01*
X151121Y251468D01*
Y254618D01*
X151032Y255290D01*
X150773Y255917D01*
X150360Y256454D01*
X149822Y256867D01*
X149196Y257127D01*
X148524Y257215D01*
D02*
G37*
G36*
X224823Y247215D02*
X215374D01*
X214702Y247127D01*
X214075Y246867D01*
X213538Y246455D01*
X213125Y245917D01*
X212865Y245290D01*
X212777Y244618D01*
Y241469D01*
X212865Y240796D01*
X213125Y240170D01*
X213538Y239632D01*
X214075Y239219D01*
X214702Y238960D01*
X215374Y238872D01*
X224823D01*
X225495Y238960D01*
X226121Y239219D01*
X226659Y239632D01*
X227072Y240170D01*
X227331Y240796D01*
X227420Y241469D01*
Y244618D01*
X227331Y245290D01*
X227072Y245917D01*
X226659Y246455D01*
X226121Y246867D01*
X225495Y247127D01*
X224823Y247215D01*
D02*
G37*
G36*
X148524D02*
X139075D01*
X138403Y247127D01*
X137776Y246867D01*
X137238Y246455D01*
X136826Y245917D01*
X136566Y245290D01*
X136478Y244618D01*
Y241469D01*
X136566Y240796D01*
X136826Y240170D01*
X137238Y239632D01*
X137776Y239219D01*
X138403Y238960D01*
X139075Y238872D01*
X148524D01*
X149196Y238960D01*
X149822Y239219D01*
X150360Y239632D01*
X150773Y240170D01*
X151032Y240796D01*
X151121Y241469D01*
Y244618D01*
X151032Y245290D01*
X150773Y245917D01*
X150360Y246455D01*
X149822Y246867D01*
X149196Y247127D01*
X148524Y247215D01*
D02*
G37*
G36*
X322961Y245500D02*
X322039D01*
X321149Y245262D01*
X320351Y244801D01*
X319699Y244149D01*
X319341Y243529D01*
X268500D01*
X267915Y243413D01*
X267419Y243081D01*
X261419Y237081D01*
X261087Y236585D01*
X260971Y236000D01*
Y232799D01*
X258547D01*
Y225819D01*
X258547Y225681D01*
Y225319D01*
X258547Y225181D01*
Y222260D01*
X262500D01*
X266453D01*
Y225181D01*
X266453Y225319D01*
Y225681D01*
X266453Y225819D01*
Y232799D01*
X264029D01*
Y235367D01*
X269133Y240471D01*
X319341D01*
X319699Y239851D01*
X320351Y239199D01*
X321149Y238738D01*
X322039Y238500D01*
X322961D01*
X323851Y238738D01*
X324649Y239199D01*
X325301Y239851D01*
X325762Y240649D01*
X326000Y241539D01*
Y242461D01*
X325762Y243351D01*
X325301Y244149D01*
X324649Y244801D01*
X323851Y245262D01*
X322961Y245500D01*
D02*
G37*
G36*
X148524Y237215D02*
X139075D01*
X138403Y237127D01*
X137776Y236867D01*
X137238Y236455D01*
X136826Y235917D01*
X136566Y235290D01*
X136478Y234618D01*
Y231469D01*
X136566Y230796D01*
X136826Y230170D01*
X137238Y229632D01*
X137776Y229219D01*
X138403Y228960D01*
X139075Y228871D01*
X148524D01*
X149196Y228960D01*
X149822Y229219D01*
X150360Y229632D01*
X150773Y230170D01*
X151032Y230796D01*
X151121Y231469D01*
Y234618D01*
X151032Y235290D01*
X150773Y235917D01*
X150360Y236455D01*
X149822Y236867D01*
X149196Y237127D01*
X148524Y237215D01*
D02*
G37*
G36*
X352764Y230321D02*
Y227067D01*
X356018D01*
X355764Y228017D01*
X355269Y228873D01*
X354570Y229572D01*
X353713Y230067D01*
X352764Y230321D01*
D02*
G37*
G36*
X351764Y230321D02*
X350814Y230067D01*
X349958Y229572D01*
X349258Y228873D01*
X348764Y228017D01*
X348509Y227067D01*
X351764D01*
Y230321D01*
D02*
G37*
G36*
Y226067D02*
X348509D01*
X348764Y225117D01*
X349258Y224261D01*
X349958Y223562D01*
X350814Y223067D01*
X351764Y222813D01*
Y226067D01*
D02*
G37*
G36*
X61018D02*
X57764D01*
Y222813D01*
X58714Y223067D01*
X59570Y223562D01*
X60269Y224261D01*
X60764Y225117D01*
X61018Y226067D01*
D02*
G37*
G36*
X56764D02*
X53509D01*
X53764Y225117D01*
X54258Y224261D01*
X54958Y223562D01*
X55814Y223067D01*
X56764Y222813D01*
Y226067D01*
D02*
G37*
G36*
X356018D02*
X352764D01*
Y222813D01*
X353713Y223067D01*
X354570Y223562D01*
X355269Y224261D01*
X355764Y225117D01*
X356018Y226067D01*
D02*
G37*
G36*
X295587Y236209D02*
X288075D01*
Y230272D01*
X295587D01*
Y231711D01*
X335115D01*
X338897Y227928D01*
X338665Y227061D01*
Y226073D01*
X338921Y225117D01*
X339416Y224261D01*
X340115Y223562D01*
X340971Y223067D01*
X341927Y222811D01*
X342916D01*
X343871Y223067D01*
X344727Y223562D01*
X345427Y224261D01*
X345921Y225117D01*
X346177Y226073D01*
Y227061D01*
X345921Y228017D01*
X345427Y228873D01*
X344727Y229572D01*
X343871Y230067D01*
X342916Y230323D01*
X341927D01*
X341060Y230091D01*
X336829Y234322D01*
X336333Y234653D01*
X335748Y234770D01*
X295587D01*
Y236209D01*
D02*
G37*
G36*
X274461Y235500D02*
X273539D01*
X272649Y235262D01*
X271851Y234801D01*
X271199Y234149D01*
X270739Y233351D01*
X270500Y232461D01*
Y231539D01*
X270739Y230649D01*
X271199Y229851D01*
X271738Y229313D01*
X271807Y229000D01*
X271738Y228687D01*
X271199Y228149D01*
X270739Y227351D01*
X270500Y226461D01*
Y225539D01*
X270739Y224649D01*
X271199Y223851D01*
X271851Y223199D01*
X272649Y222739D01*
X273539Y222500D01*
X274461D01*
X275351Y222739D01*
X276149Y223199D01*
X276801Y223851D01*
X277158Y224471D01*
X288075D01*
Y222791D01*
X293424D01*
X294986Y221230D01*
X295482Y220898D01*
X296067Y220782D01*
X328323D01*
X328908Y220898D01*
X329404Y221230D01*
X331218Y223043D01*
X332084Y222811D01*
X333073D01*
X334029Y223067D01*
X334885Y223562D01*
X335584Y224261D01*
X336079Y225117D01*
X336335Y226073D01*
Y227061D01*
X336079Y228017D01*
X335584Y228873D01*
X334885Y229572D01*
X334029Y230067D01*
X333073Y230323D01*
X332084D01*
X331129Y230067D01*
X330273Y229572D01*
X329573Y228873D01*
X329079Y228017D01*
X328823Y227061D01*
Y226073D01*
X329055Y225206D01*
X327689Y223840D01*
X326492D01*
Y230323D01*
X318980D01*
Y223840D01*
X296700D01*
X295587Y224954D01*
Y228728D01*
X288075D01*
Y227529D01*
X286925D01*
Y232469D01*
X279413D01*
Y231029D01*
X277774D01*
X277470Y231426D01*
X277500Y231539D01*
Y232461D01*
X277261Y233351D01*
X276801Y234149D01*
X276149Y234801D01*
X275351Y235262D01*
X274461Y235500D01*
D02*
G37*
G36*
X224823Y227215D02*
X215374D01*
X214702Y227127D01*
X214075Y226867D01*
X213538Y226454D01*
X213125Y225917D01*
X212865Y225290D01*
X212777Y224618D01*
Y221468D01*
X212865Y220796D01*
X213125Y220170D01*
X213538Y219632D01*
X214075Y219219D01*
X214702Y218960D01*
X215374Y218871D01*
X224823D01*
X225495Y218960D01*
X226121Y219219D01*
X226659Y219632D01*
X227072Y220170D01*
X227331Y220796D01*
X227420Y221468D01*
Y224618D01*
X227331Y225290D01*
X227072Y225917D01*
X226659Y226454D01*
X226121Y226867D01*
X225495Y227127D01*
X224823Y227215D01*
D02*
G37*
G36*
X148524D02*
X139075D01*
X138403Y227127D01*
X137776Y226867D01*
X137238Y226454D01*
X136826Y225917D01*
X136566Y225290D01*
X136478Y224618D01*
Y221468D01*
X136566Y220796D01*
X136826Y220170D01*
X137238Y219632D01*
X137776Y219219D01*
X138403Y218960D01*
X139075Y218871D01*
X148524D01*
X149196Y218960D01*
X149822Y219219D01*
X150360Y219632D01*
X150773Y220170D01*
X151032Y220796D01*
X151121Y221468D01*
Y224618D01*
X151032Y225290D01*
X150773Y225917D01*
X150360Y226454D01*
X149822Y226867D01*
X149196Y227127D01*
X148524Y227215D01*
D02*
G37*
G36*
X266453Y221260D02*
X263000D01*
Y218201D01*
X266453D01*
Y221260D01*
D02*
G37*
G36*
X262000D02*
X258547D01*
Y218201D01*
X262000D01*
Y221260D01*
D02*
G37*
G36*
X116453D02*
X113000D01*
Y218201D01*
X116453D01*
Y221260D01*
D02*
G37*
G36*
X112000D02*
X108547D01*
Y218201D01*
X112000D01*
Y221260D01*
D02*
G37*
G36*
X224823Y217215D02*
X220598D01*
Y213543D01*
X227420D01*
Y214618D01*
X227331Y215290D01*
X227072Y215917D01*
X226659Y216455D01*
X226121Y216867D01*
X225495Y217127D01*
X224823Y217215D01*
D02*
G37*
G36*
X219598D02*
X215374D01*
X214702Y217127D01*
X214075Y216867D01*
X213538Y216455D01*
X213125Y215917D01*
X212865Y215290D01*
X212777Y214618D01*
Y213543D01*
X219598D01*
Y217215D01*
D02*
G37*
G36*
X148524D02*
X144299D01*
Y213543D01*
X151121D01*
Y214618D01*
X151032Y215290D01*
X150773Y215917D01*
X150360Y216455D01*
X149822Y216867D01*
X149196Y217127D01*
X148524Y217215D01*
D02*
G37*
G36*
X143299D02*
X139075D01*
X138403Y217127D01*
X137776Y216867D01*
X137238Y216455D01*
X136826Y215917D01*
X136566Y215290D01*
X136478Y214618D01*
Y213543D01*
X143299D01*
Y217215D01*
D02*
G37*
G36*
X119461Y217500D02*
X118539D01*
X117649Y217262D01*
X116851Y216801D01*
X116199Y216149D01*
X115841Y215529D01*
X111500D01*
X110915Y215413D01*
X110419Y215081D01*
X95107Y199770D01*
X86925D01*
Y201209D01*
X79413D01*
Y199770D01*
X44252D01*
X43667Y199653D01*
X43170Y199322D01*
X38940Y195091D01*
X38073Y195323D01*
X37084D01*
X36129Y195067D01*
X35273Y194572D01*
X34573Y193873D01*
X34079Y193017D01*
X33823Y192061D01*
Y191072D01*
X34079Y190117D01*
X34573Y189261D01*
X35273Y188561D01*
X36129Y188067D01*
X37084Y187811D01*
X38073D01*
X39028Y188067D01*
X39885Y188561D01*
X40584Y189261D01*
X41079Y190117D01*
X41335Y191072D01*
Y192061D01*
X41102Y192928D01*
X44886Y196711D01*
X49749D01*
X49940Y196249D01*
X48782Y195091D01*
X47916Y195323D01*
X46927D01*
X45972Y195067D01*
X45115Y194572D01*
X44416Y193873D01*
X43921Y193017D01*
X43665Y192061D01*
Y191072D01*
X43921Y190117D01*
X44416Y189261D01*
X45115Y188561D01*
X45972Y188067D01*
X46927Y187811D01*
X47916D01*
X48871Y188067D01*
X49727Y188561D01*
X50427Y189261D01*
X50921Y190117D01*
X51177Y191072D01*
Y192061D01*
X50945Y192928D01*
X52311Y194293D01*
X54047D01*
X54212Y193793D01*
X53764Y193017D01*
X53509Y192067D01*
X57264D01*
X61018D01*
X60764Y193017D01*
X60315Y193793D01*
X60480Y194293D01*
X65042D01*
X69657Y189678D01*
X70153Y189347D01*
X70739Y189231D01*
X79413D01*
Y187791D01*
X86925D01*
Y193728D01*
X79413D01*
Y192289D01*
X71372D01*
X67413Y196249D01*
X67604Y196711D01*
X79413D01*
Y195272D01*
X86925D01*
Y196711D01*
X88075D01*
Y191532D01*
X95587D01*
Y192711D01*
X97492D01*
X97699Y192351D01*
X98351Y191699D01*
X99149Y191238D01*
X100039Y191000D01*
X100961D01*
X101851Y191238D01*
X102649Y191699D01*
X103301Y192351D01*
X103508Y192711D01*
X108547D01*
Y190819D01*
X108547Y190681D01*
Y190319D01*
X108547Y190181D01*
Y187260D01*
X112500D01*
X116453D01*
Y190181D01*
X116453Y190319D01*
Y190681D01*
X116453Y190819D01*
Y197799D01*
X108547D01*
Y195770D01*
X103783D01*
X103761Y195851D01*
X103301Y196649D01*
X102649Y197301D01*
X101851Y197761D01*
X100961Y198000D01*
X100039D01*
X99149Y197761D01*
X98351Y197301D01*
X97699Y196649D01*
X97238Y195851D01*
X97217Y195770D01*
X95587D01*
Y196711D01*
X95740D01*
X96325Y196827D01*
X96822Y197159D01*
X112134Y212471D01*
X115841D01*
X116199Y211851D01*
X116851Y211199D01*
X117649Y210738D01*
X118539Y210500D01*
X119461D01*
X120351Y210738D01*
X121149Y211199D01*
X121801Y211851D01*
X122262Y212649D01*
X122500Y213539D01*
Y214461D01*
X122262Y215351D01*
X121801Y216149D01*
X121149Y216801D01*
X120351Y217262D01*
X119461Y217500D01*
D02*
G37*
G36*
X227420Y212543D02*
X220598D01*
Y208872D01*
X224823D01*
X225495Y208960D01*
X226121Y209219D01*
X226659Y209632D01*
X227072Y210170D01*
X227331Y210796D01*
X227420Y211469D01*
Y212543D01*
D02*
G37*
G36*
X219598D02*
X212777D01*
Y211469D01*
X212865Y210796D01*
X213125Y210170D01*
X213538Y209632D01*
X214075Y209219D01*
X214702Y208960D01*
X215374Y208872D01*
X219598D01*
Y212543D01*
D02*
G37*
G36*
X151121D02*
X144299D01*
Y208872D01*
X148524D01*
X149196Y208960D01*
X149822Y209219D01*
X150360Y209632D01*
X150773Y210170D01*
X151032Y210796D01*
X151121Y211469D01*
Y212543D01*
D02*
G37*
G36*
X143299D02*
X136478D01*
Y211469D01*
X136566Y210796D01*
X136826Y210170D01*
X137238Y209632D01*
X137776Y209219D01*
X138403Y208960D01*
X139075Y208872D01*
X143299D01*
Y212543D01*
D02*
G37*
G36*
X148524Y207215D02*
X139075D01*
X138403Y207127D01*
X137776Y206867D01*
X137238Y206454D01*
X136826Y205917D01*
X136566Y205290D01*
X136478Y204618D01*
Y201468D01*
X136566Y200796D01*
X136826Y200170D01*
X137238Y199632D01*
X137776Y199219D01*
X138403Y198960D01*
X139075Y198872D01*
X148524D01*
X149196Y198960D01*
X149822Y199219D01*
X150360Y199632D01*
X150773Y200170D01*
X151032Y200796D01*
X151121Y201468D01*
Y204618D01*
X151032Y205290D01*
X150773Y205917D01*
X150360Y206454D01*
X149822Y206867D01*
X149196Y207127D01*
X148524Y207215D01*
D02*
G37*
G36*
X273504Y200475D02*
X272582D01*
X271692Y200237D01*
X270894Y199776D01*
X270243Y199124D01*
X269782Y198326D01*
X269543Y197436D01*
Y196515D01*
X269624Y196213D01*
X269261Y195770D01*
X266453D01*
Y197799D01*
X258547D01*
Y190819D01*
X258547Y190681D01*
Y190319D01*
X258547Y190181D01*
Y187260D01*
X262500D01*
X266453D01*
Y190181D01*
X266453Y190319D01*
Y190681D01*
X266453Y190819D01*
Y192711D01*
X269158D01*
X269446Y192211D01*
X269238Y191851D01*
X269000Y190961D01*
Y190039D01*
X269238Y189149D01*
X269699Y188351D01*
X270351Y187699D01*
X271149Y187239D01*
X272039Y187000D01*
X272961D01*
X273851Y187239D01*
X274649Y187699D01*
X275301Y188351D01*
X275658Y188971D01*
X288075D01*
Y187791D01*
X293424D01*
X294986Y186230D01*
X295482Y185898D01*
X296067Y185782D01*
X328323D01*
X328908Y185898D01*
X329404Y186230D01*
X331218Y188043D01*
X332084Y187811D01*
X333073D01*
X334029Y188067D01*
X334885Y188561D01*
X335584Y189261D01*
X336079Y190117D01*
X336335Y191072D01*
Y192061D01*
X336079Y193017D01*
X335584Y193873D01*
X334885Y194572D01*
X334029Y195067D01*
X333073Y195323D01*
X332084D01*
X331129Y195067D01*
X330273Y194572D01*
X329573Y193873D01*
X329079Y193017D01*
X328823Y192061D01*
Y191072D01*
X329055Y190206D01*
X327689Y188840D01*
X326492D01*
Y195323D01*
X318980D01*
Y188840D01*
X296700D01*
X295587Y189954D01*
Y193728D01*
X288075D01*
Y192029D01*
X286925D01*
Y197468D01*
X279413D01*
Y196029D01*
X276858D01*
X276507Y196380D01*
X276543Y196515D01*
Y197436D01*
X276305Y198326D01*
X275844Y199124D01*
X275192Y199776D01*
X274394Y200237D01*
X273504Y200475D01*
D02*
G37*
G36*
X352764Y195321D02*
Y192067D01*
X356018D01*
X355764Y193017D01*
X355269Y193873D01*
X354570Y194572D01*
X353713Y195067D01*
X352764Y195321D01*
D02*
G37*
G36*
X351764Y195321D02*
X350814Y195067D01*
X349958Y194572D01*
X349258Y193873D01*
X348764Y193017D01*
X348509Y192067D01*
X351764D01*
Y195321D01*
D02*
G37*
G36*
X148524Y197215D02*
X139075D01*
X138403Y197127D01*
X137776Y196867D01*
X137238Y196455D01*
X136826Y195917D01*
X136566Y195290D01*
X136478Y194618D01*
Y191469D01*
X136566Y190796D01*
X136826Y190170D01*
X137238Y189632D01*
X137776Y189219D01*
X138403Y188960D01*
X139075Y188872D01*
X148524D01*
X149196Y188960D01*
X149822Y189219D01*
X150360Y189632D01*
X150773Y190170D01*
X151032Y190796D01*
X151121Y191469D01*
Y194618D01*
X151032Y195290D01*
X150773Y195917D01*
X150360Y196455D01*
X149822Y196867D01*
X149196Y197127D01*
X148524Y197215D01*
D02*
G37*
G36*
X351764Y191067D02*
X348509D01*
X348764Y190117D01*
X349258Y189261D01*
X349958Y188561D01*
X350814Y188067D01*
X351764Y187812D01*
Y191067D01*
D02*
G37*
G36*
X61018D02*
X57764D01*
Y187812D01*
X58714Y188067D01*
X59570Y188561D01*
X60269Y189261D01*
X60764Y190117D01*
X61018Y191067D01*
D02*
G37*
G36*
X56764D02*
X53509D01*
X53764Y190117D01*
X54258Y189261D01*
X54958Y188561D01*
X55814Y188067D01*
X56764Y187812D01*
Y191067D01*
D02*
G37*
G36*
X356018D02*
X352764D01*
Y187812D01*
X353713Y188067D01*
X354570Y188561D01*
X355269Y189261D01*
X355764Y190117D01*
X356018Y191067D01*
D02*
G37*
G36*
X295587Y201209D02*
X288075D01*
Y195272D01*
X295587D01*
Y196711D01*
X335115D01*
X338897Y192928D01*
X338665Y192061D01*
Y191072D01*
X338921Y190117D01*
X339416Y189261D01*
X340115Y188561D01*
X340971Y188067D01*
X341927Y187811D01*
X342916D01*
X343871Y188067D01*
X344727Y188561D01*
X345427Y189261D01*
X345921Y190117D01*
X346177Y191072D01*
Y192061D01*
X345921Y193017D01*
X345427Y193873D01*
X344727Y194572D01*
X343871Y195067D01*
X342916Y195323D01*
X341927D01*
X341060Y195091D01*
X336829Y199322D01*
X336333Y199653D01*
X335748Y199769D01*
X295587D01*
Y201209D01*
D02*
G37*
G36*
X266453Y186260D02*
X263000D01*
Y183201D01*
X266453D01*
Y186260D01*
D02*
G37*
G36*
X262000D02*
X258547D01*
Y183201D01*
X262000D01*
Y186260D01*
D02*
G37*
G36*
X116453D02*
X113000D01*
Y183201D01*
X116453D01*
Y186260D01*
D02*
G37*
G36*
X112000D02*
X108547D01*
Y183201D01*
X112000D01*
Y186260D01*
D02*
G37*
G36*
X148524Y187215D02*
X139075D01*
X138403Y187127D01*
X137776Y186867D01*
X137238Y186454D01*
X136826Y185917D01*
X136566Y185290D01*
X136478Y184618D01*
Y181468D01*
X136566Y180796D01*
X136826Y180170D01*
X137238Y179632D01*
X137776Y179219D01*
X138403Y178960D01*
X139075Y178872D01*
X148524D01*
X149196Y178960D01*
X149822Y179219D01*
X150360Y179632D01*
X150773Y180170D01*
X151032Y180796D01*
X151121Y181468D01*
Y184618D01*
X151032Y185290D01*
X150773Y185917D01*
X150360Y186454D01*
X149822Y186867D01*
X149196Y187127D01*
X148524Y187215D01*
D02*
G37*
G36*
Y177215D02*
X139075D01*
X138403Y177127D01*
X137776Y176867D01*
X137238Y176454D01*
X136826Y175917D01*
X136566Y175290D01*
X136478Y174618D01*
Y171468D01*
X136566Y170796D01*
X136826Y170170D01*
X137238Y169632D01*
X137776Y169219D01*
X138403Y168960D01*
X139075Y168871D01*
X148524D01*
X149196Y168960D01*
X149822Y169219D01*
X150360Y169632D01*
X150773Y170170D01*
X151032Y170796D01*
X151121Y171468D01*
Y174618D01*
X151032Y175290D01*
X150773Y175917D01*
X150360Y176454D01*
X149822Y176867D01*
X149196Y177127D01*
X148524Y177215D01*
D02*
G37*
G36*
X323461Y175000D02*
X322539D01*
X321649Y174761D01*
X320851Y174301D01*
X320199Y173649D01*
X319842Y173029D01*
X269000D01*
X268415Y172913D01*
X267919Y172581D01*
X261419Y166081D01*
X261087Y165585D01*
X260971Y165000D01*
Y162799D01*
X258547D01*
Y155819D01*
X258547Y155681D01*
Y155319D01*
X258547Y155181D01*
Y152260D01*
X262500D01*
X266453D01*
Y155181D01*
X266453Y155319D01*
Y155681D01*
X266453Y155819D01*
Y162799D01*
X264029D01*
Y164366D01*
X269634Y169971D01*
X319842D01*
X320199Y169351D01*
X320851Y168699D01*
X321649Y168238D01*
X322539Y168000D01*
X323461D01*
X324351Y168238D01*
X325149Y168699D01*
X325801Y169351D01*
X326261Y170149D01*
X326500Y171039D01*
Y171961D01*
X326261Y172851D01*
X325801Y173649D01*
X325149Y174301D01*
X324351Y174761D01*
X323461Y175000D01*
D02*
G37*
G36*
X224823Y167215D02*
X220598D01*
Y163543D01*
X227420D01*
Y164618D01*
X227331Y165290D01*
X227072Y165917D01*
X226659Y166455D01*
X226121Y166867D01*
X225495Y167127D01*
X224823Y167215D01*
D02*
G37*
G36*
X219598D02*
X215374D01*
X214702Y167127D01*
X214075Y166867D01*
X213538Y166455D01*
X213125Y165917D01*
X212865Y165290D01*
X212777Y164618D01*
Y163543D01*
X219598D01*
Y167215D01*
D02*
G37*
G36*
X148524D02*
X144299D01*
Y163543D01*
X151121D01*
Y164618D01*
X151032Y165290D01*
X150773Y165917D01*
X150360Y166455D01*
X149822Y166867D01*
X149196Y167127D01*
X148524Y167215D01*
D02*
G37*
G36*
X143299D02*
X139075D01*
X138403Y167127D01*
X137776Y166867D01*
X137238Y166455D01*
X136826Y165917D01*
X136566Y165290D01*
X136478Y164618D01*
Y163543D01*
X143299D01*
Y167215D01*
D02*
G37*
G36*
X227420Y162543D02*
X220598D01*
Y158871D01*
X224823D01*
X225495Y158960D01*
X226121Y159219D01*
X226659Y159632D01*
X227072Y160170D01*
X227331Y160796D01*
X227420Y161469D01*
Y162543D01*
D02*
G37*
G36*
X219598D02*
X212777D01*
Y161469D01*
X212865Y160796D01*
X213125Y160170D01*
X213538Y159632D01*
X214075Y159219D01*
X214702Y158960D01*
X215374Y158871D01*
X219598D01*
Y162543D01*
D02*
G37*
G36*
X151121D02*
X144299D01*
Y158871D01*
X148524D01*
X149196Y158960D01*
X149822Y159219D01*
X150360Y159632D01*
X150773Y160170D01*
X151032Y160796D01*
X151121Y161469D01*
Y162543D01*
D02*
G37*
G36*
X143299D02*
X136478D01*
Y161469D01*
X136566Y160796D01*
X136826Y160170D01*
X137238Y159632D01*
X137776Y159219D01*
X138403Y158960D01*
X139075Y158871D01*
X143299D01*
Y162543D01*
D02*
G37*
G36*
X352764Y160321D02*
Y157067D01*
X356018D01*
X355764Y158017D01*
X355269Y158873D01*
X354570Y159572D01*
X353713Y160067D01*
X352764Y160321D01*
D02*
G37*
G36*
X351764D02*
X350814Y160067D01*
X349958Y159572D01*
X349258Y158873D01*
X348764Y158017D01*
X348509Y157067D01*
X351764D01*
Y160321D01*
D02*
G37*
G36*
X356018Y156067D02*
X352764D01*
Y152813D01*
X353713Y153067D01*
X354570Y153561D01*
X355269Y154261D01*
X355764Y155117D01*
X356018Y156067D01*
D02*
G37*
G36*
X351764D02*
X348509D01*
X348764Y155117D01*
X349258Y154261D01*
X349958Y153561D01*
X350814Y153067D01*
X351764Y152813D01*
Y156067D01*
D02*
G37*
G36*
X61018Y156067D02*
X57764D01*
Y152813D01*
X58714Y153067D01*
X59570Y153561D01*
X60269Y154261D01*
X60764Y155117D01*
X61018Y156067D01*
D02*
G37*
G36*
X56764D02*
X53509D01*
X53764Y155117D01*
X54258Y154261D01*
X54958Y153561D01*
X55814Y153067D01*
X56764Y152813D01*
Y156067D01*
D02*
G37*
G36*
X295587Y166209D02*
X288075D01*
Y160272D01*
X295587D01*
Y161711D01*
X335115D01*
X338897Y157928D01*
X338665Y157061D01*
Y156072D01*
X338921Y155117D01*
X339416Y154261D01*
X340115Y153561D01*
X340971Y153067D01*
X341927Y152811D01*
X342916D01*
X343871Y153067D01*
X344727Y153561D01*
X345427Y154261D01*
X345921Y155117D01*
X346177Y156072D01*
Y157061D01*
X345921Y158017D01*
X345427Y158873D01*
X344727Y159572D01*
X343871Y160067D01*
X342916Y160323D01*
X341927D01*
X341060Y160091D01*
X336829Y164322D01*
X336333Y164653D01*
X335748Y164769D01*
X295587D01*
Y166209D01*
D02*
G37*
G36*
X272461Y165500D02*
X271539D01*
X270649Y165261D01*
X269851Y164801D01*
X269199Y164149D01*
X268739Y163351D01*
X268500Y162461D01*
Y161539D01*
X268739Y160649D01*
X269199Y159851D01*
X269851Y159199D01*
X270601Y158766D01*
X270642Y158500D01*
X270601Y158234D01*
X269851Y157801D01*
X269199Y157149D01*
X268739Y156351D01*
X268500Y155461D01*
Y154539D01*
X268739Y153649D01*
X269199Y152851D01*
X269851Y152199D01*
X270649Y151739D01*
X271539Y151500D01*
X272461D01*
X273351Y151739D01*
X274149Y152199D01*
X274801Y152851D01*
X275159Y153471D01*
X288075D01*
Y152791D01*
X293424D01*
X294986Y151230D01*
X295482Y150898D01*
X296067Y150782D01*
X328323D01*
X328908Y150898D01*
X329404Y151230D01*
X331218Y153043D01*
X332084Y152811D01*
X333073D01*
X334029Y153067D01*
X334885Y153561D01*
X335584Y154261D01*
X336079Y155117D01*
X336335Y156072D01*
Y157061D01*
X336079Y158017D01*
X335584Y158873D01*
X334885Y159572D01*
X334029Y160067D01*
X333073Y160323D01*
X332084D01*
X331129Y160067D01*
X330273Y159572D01*
X329573Y158873D01*
X329079Y158017D01*
X328823Y157061D01*
Y156072D01*
X329055Y155206D01*
X327689Y153840D01*
X326492D01*
Y160323D01*
X318980D01*
Y153840D01*
X296700D01*
X295587Y154954D01*
Y158728D01*
X288075D01*
Y156529D01*
X287424D01*
X286925Y156532D01*
Y162469D01*
X279413D01*
Y161029D01*
X275790D01*
X275454Y161366D01*
X275500Y161539D01*
Y162461D01*
X275261Y163351D01*
X274801Y164149D01*
X274149Y164801D01*
X273351Y165261D01*
X272461Y165500D01*
D02*
G37*
G36*
X148524Y157215D02*
X139075D01*
X138403Y157127D01*
X137776Y156867D01*
X137238Y156455D01*
X136826Y155917D01*
X136566Y155290D01*
X136478Y154618D01*
Y151469D01*
X136566Y150796D01*
X136826Y150170D01*
X137238Y149632D01*
X137776Y149219D01*
X138403Y148960D01*
X139075Y148872D01*
X148524D01*
X149196Y148960D01*
X149822Y149219D01*
X150360Y149632D01*
X150773Y150170D01*
X151032Y150796D01*
X151121Y151469D01*
Y154618D01*
X151032Y155290D01*
X150773Y155917D01*
X150360Y156455D01*
X149822Y156867D01*
X149196Y157127D01*
X148524Y157215D01*
D02*
G37*
G36*
X266453Y151260D02*
X263000D01*
Y148201D01*
X266453D01*
Y151260D01*
D02*
G37*
G36*
X262000D02*
X258547D01*
Y148201D01*
X262000D01*
Y151260D01*
D02*
G37*
G36*
X116453D02*
X113000D01*
Y148201D01*
X116453D01*
Y151260D01*
D02*
G37*
G36*
X112000D02*
X108547D01*
Y148201D01*
X112000D01*
Y151260D01*
D02*
G37*
G36*
X183524Y148081D02*
X182449D01*
Y141260D01*
X186121D01*
Y145484D01*
X186032Y146156D01*
X185773Y146783D01*
X185360Y147321D01*
X184822Y147733D01*
X184196Y147993D01*
X183524Y148081D01*
D02*
G37*
G36*
X181449D02*
X180374D01*
X179702Y147993D01*
X179076Y147733D01*
X178538Y147321D01*
X178125Y146783D01*
X177866Y146156D01*
X177777Y145484D01*
Y141260D01*
X181449D01*
Y148081D01*
D02*
G37*
G36*
X148524Y147215D02*
X139075D01*
X138403Y147127D01*
X137776Y146867D01*
X137238Y146455D01*
X136826Y145917D01*
X136566Y145290D01*
X136478Y144618D01*
Y141469D01*
X136566Y140796D01*
X136826Y140170D01*
X137238Y139632D01*
X137776Y139219D01*
X138403Y138960D01*
X139075Y138872D01*
X148524D01*
X149196Y138960D01*
X149822Y139219D01*
X150360Y139632D01*
X150773Y140170D01*
X151032Y140796D01*
X151121Y141469D01*
Y144618D01*
X151032Y145290D01*
X150773Y145917D01*
X150360Y146455D01*
X149822Y146867D01*
X149196Y147127D01*
X148524Y147215D01*
D02*
G37*
G36*
X122879Y145159D02*
X121958D01*
X121068Y144921D01*
X120269Y144460D01*
X119618Y143808D01*
X119260Y143189D01*
X104159D01*
X103574Y143072D01*
X103078Y142741D01*
X90107Y129770D01*
X86925D01*
Y131209D01*
X79413D01*
Y129770D01*
X44252D01*
X43667Y129653D01*
X43170Y129322D01*
X38940Y125091D01*
X38073Y125323D01*
X37084D01*
X36129Y125067D01*
X35273Y124572D01*
X34573Y123873D01*
X34079Y123017D01*
X33823Y122061D01*
Y121072D01*
X34079Y120117D01*
X34573Y119261D01*
X35273Y118561D01*
X36129Y118067D01*
X37084Y117811D01*
X38073D01*
X39028Y118067D01*
X39885Y118561D01*
X40584Y119261D01*
X41079Y120117D01*
X41335Y121072D01*
Y122061D01*
X41102Y122928D01*
X44885Y126711D01*
X49749D01*
X49940Y126249D01*
X48782Y125091D01*
X47916Y125323D01*
X46927D01*
X45972Y125067D01*
X45115Y124572D01*
X44416Y123873D01*
X43921Y123017D01*
X43665Y122061D01*
Y121072D01*
X43921Y120117D01*
X44416Y119261D01*
X45115Y118561D01*
X45972Y118067D01*
X46927Y117811D01*
X47916D01*
X48871Y118067D01*
X49727Y118561D01*
X50427Y119261D01*
X50921Y120117D01*
X51177Y121072D01*
Y122061D01*
X50945Y122928D01*
X52311Y124293D01*
X54047D01*
X54212Y123793D01*
X53764Y123017D01*
X53509Y122067D01*
X57264D01*
X61018D01*
X60764Y123017D01*
X60315Y123793D01*
X60480Y124293D01*
X65042D01*
X69657Y119678D01*
X70153Y119347D01*
X70739Y119230D01*
X79413D01*
Y117791D01*
X86925D01*
Y123728D01*
X79413D01*
Y122289D01*
X71372D01*
X67413Y126249D01*
X67604Y126711D01*
X79413D01*
Y125272D01*
X86925D01*
Y126711D01*
X88075D01*
Y121531D01*
X95587D01*
Y122711D01*
X96722D01*
X96738Y122649D01*
X97199Y121851D01*
X97851Y121199D01*
X98649Y120738D01*
X99539Y120500D01*
X100461D01*
X101351Y120738D01*
X102149Y121199D01*
X102801Y121851D01*
X103261Y122649D01*
X103278Y122711D01*
X108547D01*
Y120819D01*
X108547Y120681D01*
Y120319D01*
X108547Y120181D01*
Y117260D01*
X112500D01*
X116453D01*
Y120181D01*
X116453Y120319D01*
Y120681D01*
X116453Y120819D01*
Y127799D01*
X108547D01*
Y125770D01*
X103020D01*
X102801Y126149D01*
X102149Y126801D01*
X101351Y127261D01*
X100461Y127500D01*
X99539D01*
X98649Y127261D01*
X97851Y126801D01*
X97199Y126149D01*
X96980Y125770D01*
X95587D01*
Y127469D01*
X92785D01*
X92593Y127930D01*
X104793Y140130D01*
X119260D01*
X119618Y139510D01*
X120269Y138859D01*
X121068Y138398D01*
X121958Y138159D01*
X122879D01*
X123769Y138398D01*
X124567Y138859D01*
X125219Y139510D01*
X125680Y140308D01*
X125918Y141199D01*
Y142120D01*
X125680Y143010D01*
X125219Y143808D01*
X124567Y144460D01*
X123769Y144921D01*
X122879Y145159D01*
D02*
G37*
G36*
X352764Y125321D02*
Y122067D01*
X356018D01*
X355764Y123017D01*
X355269Y123873D01*
X354570Y124572D01*
X353713Y125067D01*
X352764Y125321D01*
D02*
G37*
G36*
X351764D02*
X350814Y125067D01*
X349958Y124572D01*
X349258Y123873D01*
X348764Y123017D01*
X348509Y122067D01*
X351764D01*
Y125321D01*
D02*
G37*
G36*
X224823Y287215D02*
X215374D01*
X214702Y287127D01*
X214075Y286867D01*
X213538Y286455D01*
X213125Y285917D01*
X212865Y285290D01*
X212777Y284618D01*
Y281469D01*
X212865Y280796D01*
X213125Y280170D01*
X213538Y279632D01*
X214075Y279219D01*
X214702Y278960D01*
X215374Y278871D01*
X224823D01*
X225495Y278960D01*
X226121Y279219D01*
X226659Y279632D01*
X227072Y280170D01*
X227331Y280796D01*
X227420Y281469D01*
Y281471D01*
X239866D01*
X248971Y272366D01*
Y121390D01*
X248509Y121198D01*
X248406Y121301D01*
X248029Y121518D01*
Y261172D01*
X247913Y261757D01*
X247581Y262253D01*
X235710Y274125D01*
X235213Y274456D01*
X234628Y274573D01*
X227420D01*
Y274618D01*
X227331Y275290D01*
X227072Y275917D01*
X226659Y276454D01*
X226121Y276867D01*
X225495Y277127D01*
X224823Y277215D01*
X215374D01*
X214702Y277127D01*
X214075Y276867D01*
X213538Y276454D01*
X213125Y275917D01*
X212865Y275290D01*
X212777Y274618D01*
Y271468D01*
X212865Y270796D01*
X213125Y270170D01*
X213538Y269632D01*
X214075Y269219D01*
X214702Y268960D01*
X215374Y268871D01*
X224823D01*
X225495Y268960D01*
X226121Y269219D01*
X226659Y269632D01*
X227072Y270170D01*
X227331Y270796D01*
X227420Y271468D01*
Y271514D01*
X233995D01*
X244971Y260538D01*
Y121779D01*
X244906Y121762D01*
X244287Y121404D01*
X243787Y121641D01*
Y247743D01*
X243670Y248328D01*
X243339Y248824D01*
X238038Y254125D01*
X237542Y254456D01*
X236957Y254573D01*
X227420D01*
Y254618D01*
X227331Y255290D01*
X227072Y255917D01*
X226659Y256454D01*
X226121Y256867D01*
X225495Y257127D01*
X224823Y257215D01*
X215374D01*
X214702Y257127D01*
X214075Y256867D01*
X213538Y256454D01*
X213125Y255917D01*
X212865Y255290D01*
X212777Y254618D01*
Y251468D01*
X212865Y250796D01*
X213125Y250170D01*
X213538Y249632D01*
X214075Y249219D01*
X214702Y248960D01*
X215374Y248871D01*
X224823D01*
X225495Y248960D01*
X226121Y249219D01*
X226659Y249632D01*
X227072Y250170D01*
X227331Y250796D01*
X227420Y251468D01*
Y251514D01*
X236323D01*
X240728Y247109D01*
Y226014D01*
X240228Y225862D01*
X240081Y226081D01*
X232038Y234125D01*
X231542Y234456D01*
X230957Y234573D01*
X227420D01*
Y234618D01*
X227331Y235290D01*
X227072Y235917D01*
X226659Y236455D01*
X226121Y236867D01*
X225495Y237127D01*
X224823Y237215D01*
X215374D01*
X214702Y237127D01*
X214075Y236867D01*
X213538Y236455D01*
X213125Y235917D01*
X212865Y235290D01*
X212777Y234618D01*
Y231469D01*
X212865Y230796D01*
X213125Y230170D01*
X213538Y229632D01*
X214075Y229219D01*
X214702Y228960D01*
X215374Y228871D01*
X224823D01*
X225495Y228960D01*
X226121Y229219D01*
X226659Y229632D01*
X227072Y230170D01*
X227331Y230796D01*
X227420Y231469D01*
Y231514D01*
X230323D01*
X237471Y224366D01*
Y198846D01*
X237009Y198654D01*
X231538Y204125D01*
X231042Y204456D01*
X230457Y204573D01*
X227420D01*
Y204618D01*
X227331Y205290D01*
X227072Y205917D01*
X226659Y206454D01*
X226121Y206867D01*
X225495Y207127D01*
X224823Y207215D01*
X215374D01*
X214702Y207127D01*
X214075Y206867D01*
X213538Y206454D01*
X213125Y205917D01*
X212865Y205290D01*
X212777Y204618D01*
Y201468D01*
X212865Y200796D01*
X213125Y200170D01*
X213538Y199632D01*
X214075Y199219D01*
X214702Y198960D01*
X215374Y198872D01*
X224823D01*
X225495Y198960D01*
X226121Y199219D01*
X226659Y199632D01*
X227072Y200170D01*
X227331Y200796D01*
X227420Y201468D01*
Y201514D01*
X229823D01*
X235471Y195867D01*
Y189846D01*
X235009Y189654D01*
X230538Y194125D01*
X230042Y194456D01*
X229457Y194573D01*
X227420D01*
Y194618D01*
X227331Y195290D01*
X227072Y195917D01*
X226659Y196455D01*
X226121Y196867D01*
X225495Y197127D01*
X224823Y197215D01*
X215374D01*
X214702Y197127D01*
X214075Y196867D01*
X213538Y196455D01*
X213125Y195917D01*
X212865Y195290D01*
X212777Y194618D01*
Y191469D01*
X212865Y190796D01*
X213125Y190170D01*
X213538Y189632D01*
X214075Y189219D01*
X214702Y188960D01*
X215374Y188872D01*
X224823D01*
X225495Y188960D01*
X226121Y189219D01*
X226659Y189632D01*
X227072Y190170D01*
X227331Y190796D01*
X227420Y191469D01*
Y191514D01*
X228823D01*
X233471Y186866D01*
Y180346D01*
X233009Y180154D01*
X229038Y184125D01*
X228542Y184456D01*
X227957Y184573D01*
X227420D01*
Y184618D01*
X227331Y185290D01*
X227072Y185917D01*
X226659Y186454D01*
X226121Y186867D01*
X225495Y187127D01*
X224823Y187215D01*
X215374D01*
X214702Y187127D01*
X214075Y186867D01*
X213538Y186454D01*
X213125Y185917D01*
X212865Y185290D01*
X212777Y184618D01*
Y181468D01*
X212865Y180796D01*
X213125Y180170D01*
X213538Y179632D01*
X214075Y179219D01*
X214702Y178960D01*
X215374Y178872D01*
X224823D01*
X225495Y178960D01*
X226121Y179219D01*
X226659Y179632D01*
X227072Y180170D01*
X227331Y180796D01*
X227340Y180863D01*
X227814Y181024D01*
X231471Y177366D01*
Y172346D01*
X231009Y172154D01*
X229038Y174125D01*
X228542Y174456D01*
X227957Y174573D01*
X227420D01*
Y174618D01*
X227331Y175290D01*
X227072Y175917D01*
X226659Y176454D01*
X226121Y176867D01*
X225495Y177127D01*
X224823Y177215D01*
X215374D01*
X214702Y177127D01*
X214075Y176867D01*
X213538Y176454D01*
X213125Y175917D01*
X212865Y175290D01*
X212777Y174618D01*
Y171468D01*
X212865Y170796D01*
X213125Y170170D01*
X213538Y169632D01*
X214075Y169219D01*
X214702Y168960D01*
X215374Y168871D01*
X224823D01*
X225495Y168960D01*
X226121Y169219D01*
X226659Y169632D01*
X227072Y170170D01*
X227331Y170796D01*
X227340Y170863D01*
X227814Y171023D01*
X229471Y169367D01*
Y149639D01*
X229007Y149485D01*
X228971Y149484D01*
X227369Y151085D01*
X227420Y151469D01*
Y154618D01*
X227331Y155290D01*
X227072Y155917D01*
X226659Y156455D01*
X226121Y156867D01*
X225495Y157127D01*
X224823Y157215D01*
X215374D01*
X214702Y157127D01*
X214075Y156867D01*
X213538Y156455D01*
X213125Y155917D01*
X212865Y155290D01*
X212777Y154618D01*
Y151469D01*
X212865Y150796D01*
X213125Y150170D01*
X213538Y149632D01*
X214075Y149219D01*
X214702Y148960D01*
X215374Y148872D01*
X224823D01*
X225206Y148922D01*
X226368Y147760D01*
Y147274D01*
X225868Y146972D01*
X225495Y147127D01*
X224823Y147215D01*
X215374D01*
X214702Y147127D01*
X214075Y146867D01*
X213538Y146455D01*
X213125Y145917D01*
X212865Y145290D01*
X212777Y144618D01*
Y144573D01*
X208543D01*
X207958Y144456D01*
X207462Y144125D01*
X197919Y134581D01*
X197587Y134085D01*
X197471Y133500D01*
Y115134D01*
X172955Y90618D01*
X172955Y90618D01*
X171888D01*
X170858Y90342D01*
X169934Y89809D01*
X169179Y89054D01*
X168646Y88131D01*
X168370Y87100D01*
Y86034D01*
X168646Y85003D01*
X169179Y84079D01*
X169934Y83325D01*
X170858Y82792D01*
X171888Y82516D01*
X172955D01*
X173985Y82792D01*
X174909Y83325D01*
X175663Y84079D01*
X176196Y85003D01*
X176472Y86034D01*
Y87100D01*
X176196Y88131D01*
X175683Y89020D01*
X200081Y113419D01*
X200413Y113915D01*
X200529Y114500D01*
Y132867D01*
X209177Y141514D01*
X212777D01*
Y141469D01*
X212865Y140796D01*
X213125Y140170D01*
X213538Y139632D01*
X214075Y139219D01*
X214702Y138960D01*
X215374Y138872D01*
X224823D01*
X225495Y138960D01*
X225868Y139115D01*
X226368Y138813D01*
Y133531D01*
X171340Y78503D01*
X171008Y78007D01*
X170892Y77421D01*
Y55351D01*
X170858Y55342D01*
X169934Y54809D01*
X169179Y54054D01*
X168646Y53131D01*
X168370Y52100D01*
Y51034D01*
X168646Y50003D01*
X169179Y49079D01*
X169934Y48325D01*
X170858Y47792D01*
X171888Y47516D01*
X172955D01*
X173985Y47792D01*
X174909Y48325D01*
X175663Y49079D01*
X176196Y50003D01*
X176472Y51034D01*
Y52100D01*
X176196Y53131D01*
X175663Y54054D01*
X174909Y54809D01*
X173985Y55342D01*
X173951Y55351D01*
Y76788D01*
X228971Y131808D01*
X229007Y131807D01*
X229471Y131652D01*
Y117133D01*
X211340Y99003D01*
X211008Y98506D01*
X210892Y97921D01*
Y90351D01*
X210858Y90342D01*
X209934Y89809D01*
X209179Y89054D01*
X208646Y88131D01*
X208370Y87100D01*
Y86034D01*
X208646Y85003D01*
X209179Y84079D01*
X209934Y83325D01*
X210858Y82792D01*
X211888Y82516D01*
X212955D01*
X213985Y82792D01*
X214909Y83325D01*
X215663Y84079D01*
X216196Y85003D01*
X216472Y86034D01*
Y87100D01*
X216196Y88131D01*
X215663Y89054D01*
X214909Y89809D01*
X213985Y90342D01*
X213951Y90351D01*
Y97288D01*
X231009Y114346D01*
X231471Y114154D01*
Y98133D01*
X211340Y78003D01*
X211008Y77507D01*
X210892Y76921D01*
Y55351D01*
X210858Y55342D01*
X209934Y54809D01*
X209179Y54054D01*
X208646Y53131D01*
X208370Y52100D01*
Y51034D01*
X208646Y50003D01*
X209179Y49079D01*
X209934Y48325D01*
X210858Y47792D01*
X211888Y47516D01*
X212955D01*
X213985Y47792D01*
X214909Y48325D01*
X215663Y49079D01*
X216196Y50003D01*
X216472Y51034D01*
Y52100D01*
X216196Y53131D01*
X215663Y54054D01*
X214909Y54809D01*
X213985Y55342D01*
X213951Y55351D01*
Y76288D01*
X234000Y96337D01*
X238919Y91419D01*
X238974Y91381D01*
X239095Y90702D01*
X239034Y90618D01*
X238528D01*
Y82516D01*
X241049D01*
Y55618D01*
X238528D01*
Y47516D01*
X241049D01*
Y27957D01*
X240549Y27690D01*
X240286Y27866D01*
X239701Y27982D01*
X207819D01*
X207234Y27866D01*
X206737Y27534D01*
X205156Y25953D01*
X204108D01*
Y47516D01*
X206630D01*
Y55618D01*
X204108D01*
Y82516D01*
X206630D01*
Y90618D01*
X198528D01*
Y82516D01*
X201049D01*
Y55618D01*
X198528D01*
Y47516D01*
X201049D01*
Y27957D01*
X200549Y27690D01*
X200286Y27866D01*
X199701Y27982D01*
X167819D01*
X167234Y27866D01*
X166737Y27534D01*
X165751Y26548D01*
X165289Y26739D01*
Y47516D01*
X166630D01*
Y55618D01*
X164108D01*
Y82516D01*
X166630D01*
Y90618D01*
X158528D01*
Y82516D01*
X161049D01*
Y55618D01*
X158528D01*
Y47516D01*
X162231D01*
Y25953D01*
X160201D01*
Y18047D01*
X167181D01*
X167319Y18047D01*
Y18047D01*
X167681D01*
Y18047D01*
X170740D01*
Y22000D01*
X171240D01*
Y22500D01*
X174799D01*
Y24923D01*
X199067D01*
X200201Y23790D01*
Y18047D01*
X207181D01*
X207319Y18047D01*
Y18047D01*
X207681D01*
Y18047D01*
X210740D01*
Y22000D01*
X211240D01*
Y22500D01*
X214799D01*
Y24923D01*
X239067D01*
X240201Y23790D01*
Y18047D01*
X247181D01*
X247319Y18047D01*
Y18047D01*
X247681D01*
Y18047D01*
X250740D01*
Y22000D01*
X251240D01*
Y22500D01*
X254799D01*
Y24923D01*
X279067D01*
X280201Y23790D01*
Y18047D01*
X287181D01*
X287319Y18047D01*
Y18047D01*
X287681D01*
Y18047D01*
X290740D01*
Y22000D01*
Y25953D01*
X290135D01*
X289944Y26415D01*
X313567Y50037D01*
X318980D01*
Y47811D01*
X326492D01*
Y55323D01*
X324266D01*
Y82811D01*
X326492D01*
Y90323D01*
X324029D01*
Y109342D01*
X324649Y109699D01*
X325301Y110351D01*
X325762Y111149D01*
X326000Y112039D01*
Y112961D01*
X325762Y113851D01*
X325301Y114649D01*
X324668Y115282D01*
X324673Y115369D01*
X324816Y115782D01*
X328323D01*
X328908Y115898D01*
X329404Y116230D01*
X331218Y118043D01*
X332084Y117811D01*
X333073D01*
X334029Y118067D01*
X334885Y118561D01*
X335584Y119261D01*
X336079Y120117D01*
X336335Y121072D01*
Y122061D01*
X336079Y123017D01*
X335584Y123873D01*
X334885Y124572D01*
X334029Y125067D01*
X333073Y125323D01*
X332084D01*
X331129Y125067D01*
X330273Y124572D01*
X329573Y123873D01*
X329079Y123017D01*
X328823Y122061D01*
Y121072D01*
X329055Y120206D01*
X327689Y118840D01*
X326492D01*
Y125323D01*
X318980D01*
Y118840D01*
X298200D01*
X297087Y119954D01*
Y123728D01*
X289575D01*
Y122029D01*
X288425D01*
Y127469D01*
X280913D01*
Y126029D01*
X277216D01*
X277000Y126245D01*
Y126961D01*
X276762Y127851D01*
X276301Y128649D01*
X275649Y129301D01*
X274851Y129762D01*
X273961Y130000D01*
X273039D01*
X272149Y129762D01*
X271351Y129301D01*
X270699Y128649D01*
X270238Y127851D01*
X270000Y126961D01*
Y126245D01*
X269524Y125770D01*
X266453D01*
Y127799D01*
X258547D01*
Y120819D01*
X258547Y120681D01*
Y120319D01*
X258547Y120181D01*
Y117260D01*
X262500D01*
X266453D01*
Y120181D01*
X266453Y120319D01*
Y120681D01*
X266453Y120819D01*
Y122711D01*
X270158D01*
X270722Y122823D01*
X270795Y122771D01*
X271088Y122456D01*
X270739Y121851D01*
X270500Y120961D01*
Y120039D01*
X270739Y119149D01*
X271199Y118351D01*
X271851Y117699D01*
X272649Y117238D01*
X273539Y117000D01*
X274461D01*
X275351Y117238D01*
X276149Y117699D01*
X276801Y118351D01*
X277158Y118971D01*
X289575D01*
Y117791D01*
X294924D01*
X296485Y116230D01*
X296982Y115898D01*
X297567Y115782D01*
X320184D01*
X320327Y115369D01*
X320332Y115282D01*
X319699Y114649D01*
X319238Y113851D01*
X319000Y112961D01*
Y112039D01*
X319238Y111149D01*
X319699Y110351D01*
X320351Y109699D01*
X320971Y109342D01*
Y90323D01*
X318980D01*
Y82811D01*
X321207D01*
Y55323D01*
X318980D01*
Y53096D01*
X312933D01*
X312348Y52980D01*
X311852Y52648D01*
X285156Y25953D01*
X282364D01*
X280782Y27534D01*
X280286Y27866D01*
X279701Y27982D01*
X247819D01*
X247234Y27866D01*
X246738Y27534D01*
X245156Y25953D01*
X244108D01*
Y47516D01*
X246630D01*
Y55618D01*
X244108D01*
Y82516D01*
X246630D01*
Y89542D01*
X247092Y89733D01*
X248664Y88161D01*
X248646Y88131D01*
X248370Y87100D01*
Y86034D01*
X248646Y85003D01*
X249180Y84079D01*
X249934Y83325D01*
X250858Y82792D01*
X251888Y82516D01*
X252955D01*
X253985Y82792D01*
X254909Y83325D01*
X255663Y84079D01*
X256196Y85003D01*
X256472Y86034D01*
Y87100D01*
X256452Y87178D01*
X256900Y87437D01*
X258471Y85866D01*
Y79633D01*
X251340Y72503D01*
X251008Y72006D01*
X250892Y71421D01*
Y55351D01*
X250857Y55342D01*
X249934Y54809D01*
X249180Y54054D01*
X248646Y53131D01*
X248370Y52100D01*
Y51034D01*
X248646Y50003D01*
X249180Y49079D01*
X249934Y48325D01*
X250857Y47792D01*
X251888Y47516D01*
X252955D01*
X253985Y47792D01*
X254909Y48325D01*
X255663Y49079D01*
X256196Y50003D01*
X256472Y51034D01*
Y52100D01*
X256196Y53131D01*
X255663Y54054D01*
X254909Y54809D01*
X253985Y55342D01*
X253951Y55351D01*
Y70788D01*
X261081Y77919D01*
X261413Y78415D01*
X261529Y79000D01*
Y86500D01*
X261413Y87085D01*
X261081Y87581D01*
X257296Y91367D01*
X257487Y91829D01*
X267799D01*
Y89799D01*
X275902D01*
Y91829D01*
X299098D01*
Y89799D01*
X307201D01*
Y96917D01*
X299098D01*
Y94888D01*
X275902D01*
Y96917D01*
X267799D01*
Y94888D01*
X256604D01*
X249991Y101500D01*
X250198Y102000D01*
X250461D01*
X251351Y102239D01*
X252149Y102699D01*
X252801Y103351D01*
X253261Y104149D01*
X253500Y105039D01*
Y105961D01*
X253261Y106851D01*
X252801Y107649D01*
X252149Y108301D01*
X252029Y108370D01*
Y273000D01*
X251913Y273585D01*
X251581Y274081D01*
X241581Y284081D01*
X241085Y284413D01*
X240500Y284529D01*
X227420D01*
Y284618D01*
X227331Y285290D01*
X227072Y285917D01*
X226659Y286455D01*
X226121Y286867D01*
X225495Y287127D01*
X224823Y287215D01*
D02*
G37*
G36*
X186121Y140260D02*
X177777D01*
Y136035D01*
X177866Y135363D01*
X178125Y134737D01*
X178538Y134199D01*
X179076Y133786D01*
X179702Y133527D01*
X180374Y133438D01*
X180471D01*
Y123284D01*
X180436Y123275D01*
X179513Y122742D01*
X178758Y121987D01*
X178225Y121064D01*
X177949Y120033D01*
Y120000D01*
X186051D01*
Y120033D01*
X185775Y121064D01*
X185242Y121987D01*
X184487Y122742D01*
X183564Y123275D01*
X183529Y123284D01*
Y133439D01*
X184196Y133527D01*
X184822Y133786D01*
X185360Y134199D01*
X185773Y134737D01*
X186032Y135363D01*
X186121Y136035D01*
Y140260D01*
D02*
G37*
G36*
X356018Y121067D02*
X352764D01*
Y117813D01*
X353713Y118067D01*
X354570Y118561D01*
X355269Y119261D01*
X355764Y120117D01*
X356018Y121067D01*
D02*
G37*
G36*
X351764D02*
X348509D01*
X348764Y120117D01*
X349258Y119261D01*
X349958Y118561D01*
X350814Y118067D01*
X351764Y117813D01*
Y121067D01*
D02*
G37*
G36*
X61018Y121067D02*
X57764D01*
Y117813D01*
X58714Y118067D01*
X59570Y118561D01*
X60269Y119261D01*
X60764Y120117D01*
X61018Y121067D01*
D02*
G37*
G36*
X56764D02*
X53509D01*
X53764Y120117D01*
X54258Y119261D01*
X54958Y118561D01*
X55814Y118067D01*
X56764Y117813D01*
Y121067D01*
D02*
G37*
G36*
X297087Y131209D02*
X289575D01*
Y125272D01*
X297087D01*
Y126711D01*
X335115D01*
X338897Y122928D01*
X338665Y122061D01*
Y121072D01*
X338921Y120117D01*
X339416Y119261D01*
X340115Y118561D01*
X340971Y118067D01*
X341927Y117811D01*
X342916D01*
X343871Y118067D01*
X344727Y118561D01*
X345427Y119261D01*
X345921Y120117D01*
X346177Y121072D01*
Y122061D01*
X345921Y123017D01*
X345427Y123873D01*
X344727Y124572D01*
X343871Y125067D01*
X342916Y125323D01*
X341927D01*
X341060Y125091D01*
X336829Y129322D01*
X336333Y129653D01*
X335748Y129770D01*
X297087D01*
Y131209D01*
D02*
G37*
G36*
X193524Y148081D02*
X190374D01*
X189702Y147993D01*
X189076Y147733D01*
X188538Y147321D01*
X188125Y146783D01*
X187865Y146156D01*
X187777Y145484D01*
Y136035D01*
X187865Y135363D01*
X188125Y134737D01*
X188538Y134199D01*
X189076Y133786D01*
X189702Y133527D01*
X190374Y133438D01*
X190419D01*
Y123551D01*
X187949D01*
Y115449D01*
X196051D01*
Y123551D01*
X193478D01*
Y133438D01*
X193524D01*
X194196Y133527D01*
X194822Y133786D01*
X195360Y134199D01*
X195773Y134737D01*
X196032Y135363D01*
X196121Y136035D01*
Y145484D01*
X196032Y146156D01*
X195773Y146783D01*
X195360Y147321D01*
X194822Y147733D01*
X194196Y147993D01*
X193524Y148081D01*
D02*
G37*
G36*
X186051Y119000D02*
X182500D01*
Y115449D01*
X182533D01*
X183564Y115725D01*
X184487Y116258D01*
X185242Y117013D01*
X185775Y117936D01*
X186051Y118967D01*
Y119000D01*
D02*
G37*
G36*
X181500D02*
X177949D01*
Y118967D01*
X178225Y117936D01*
X178758Y117013D01*
X179513Y116258D01*
X180436Y115725D01*
X181467Y115449D01*
X181500D01*
Y119000D01*
D02*
G37*
G36*
X173524Y148081D02*
X170374D01*
X169702Y147993D01*
X169076Y147733D01*
X168538Y147321D01*
X168125Y146783D01*
X167866Y146156D01*
X167777Y145484D01*
Y136035D01*
X167866Y135363D01*
X168125Y134737D01*
X168538Y134199D01*
X169076Y133786D01*
X169702Y133527D01*
X170374Y133438D01*
X170471D01*
Y123284D01*
X170436Y123275D01*
X169512Y122742D01*
X168758Y121987D01*
X168225Y121064D01*
X167949Y120033D01*
Y118967D01*
X168225Y117936D01*
X168758Y117013D01*
X169512Y116258D01*
X170436Y115725D01*
X171467Y115449D01*
X172533D01*
X173564Y115725D01*
X174487Y116258D01*
X175242Y117013D01*
X175775Y117936D01*
X176051Y118967D01*
Y120033D01*
X175775Y121064D01*
X175242Y121987D01*
X174487Y122742D01*
X173564Y123275D01*
X173529Y123284D01*
Y133439D01*
X174196Y133527D01*
X174822Y133786D01*
X175360Y134199D01*
X175773Y134737D01*
X176032Y135363D01*
X176121Y136035D01*
Y145484D01*
X176032Y146156D01*
X175773Y146783D01*
X175360Y147321D01*
X174822Y147733D01*
X174196Y147993D01*
X173524Y148081D01*
D02*
G37*
G36*
X266453Y116260D02*
X263000D01*
Y113201D01*
X266453D01*
Y116260D01*
D02*
G37*
G36*
X262000D02*
X258547D01*
Y113201D01*
X262000D01*
Y116260D01*
D02*
G37*
G36*
X116453D02*
X113000D01*
Y113201D01*
X116453D01*
Y116260D01*
D02*
G37*
G36*
X112000D02*
X108547D01*
Y113201D01*
X112000D01*
Y116260D01*
D02*
G37*
G36*
X352764Y90321D02*
Y87067D01*
X356018D01*
X355764Y88017D01*
X355269Y88873D01*
X354570Y89572D01*
X353713Y90067D01*
X352764Y90321D01*
D02*
G37*
G36*
X351764Y90321D02*
X350814Y90067D01*
X349958Y89572D01*
X349258Y88873D01*
X348764Y88017D01*
X348509Y87067D01*
X351764D01*
Y90321D01*
D02*
G37*
G36*
Y86067D02*
X348509D01*
X348764Y85117D01*
X349258Y84261D01*
X349958Y83561D01*
X350814Y83067D01*
X351764Y82812D01*
Y86067D01*
D02*
G37*
G36*
X61018D02*
X57764D01*
Y82812D01*
X58714Y83067D01*
X59570Y83561D01*
X60269Y84261D01*
X60764Y85117D01*
X61018Y86067D01*
D02*
G37*
G36*
X56764D02*
X53509D01*
X53764Y85117D01*
X54258Y84261D01*
X54958Y83561D01*
X55814Y83067D01*
X56764Y82812D01*
Y86067D01*
D02*
G37*
G36*
X356018D02*
X352764D01*
Y82812D01*
X353713Y83067D01*
X354570Y83561D01*
X355269Y84261D01*
X355764Y85117D01*
X356018Y86067D01*
D02*
G37*
G36*
X342916Y90323D02*
X341927D01*
X340971Y90067D01*
X340115Y89572D01*
X339416Y88873D01*
X338921Y88017D01*
X338665Y87061D01*
Y86072D01*
X338921Y85117D01*
X339416Y84261D01*
X340115Y83561D01*
X340971Y83067D01*
X341927Y82811D01*
X342916D01*
X343871Y83067D01*
X344727Y83561D01*
X345427Y84261D01*
X345921Y85117D01*
X346177Y86072D01*
Y87061D01*
X345921Y88017D01*
X345427Y88873D01*
X344727Y89572D01*
X343871Y90067D01*
X342916Y90323D01*
D02*
G37*
G36*
X333073D02*
X332084D01*
X331129Y90067D01*
X330273Y89572D01*
X329573Y88873D01*
X329079Y88017D01*
X328823Y87061D01*
Y86072D01*
X329079Y85117D01*
X329573Y84261D01*
X330273Y83561D01*
X331129Y83067D01*
X332084Y82811D01*
X333073D01*
X334029Y83067D01*
X334885Y83561D01*
X335584Y84261D01*
X336079Y85117D01*
X336335Y86072D01*
Y87061D01*
X336079Y88017D01*
X335584Y88873D01*
X334885Y89572D01*
X334029Y90067D01*
X333073Y90323D01*
D02*
G37*
G36*
X116453Y81260D02*
X113000D01*
Y78201D01*
X116453D01*
Y81260D01*
D02*
G37*
G36*
X112000D02*
X108547D01*
Y78201D01*
X112000D01*
Y81260D01*
D02*
G37*
G36*
X302650Y79201D02*
X299098D01*
Y77171D01*
X275902D01*
Y79201D01*
X272350D01*
Y75642D01*
Y72083D01*
X275902D01*
Y74112D01*
X299098D01*
Y72083D01*
X302650D01*
Y75642D01*
Y79201D01*
D02*
G37*
G36*
X307201D02*
X303650D01*
Y76142D01*
X307201D01*
Y79201D01*
D02*
G37*
G36*
X271350D02*
X267799D01*
Y76142D01*
X271350D01*
Y79201D01*
D02*
G37*
G36*
X307201Y75142D02*
X303650D01*
Y72083D01*
X307201D01*
Y75142D01*
D02*
G37*
G36*
X271350D02*
X267799D01*
Y72083D01*
X271350D01*
Y75142D01*
D02*
G37*
G36*
X130961Y66500D02*
X130039D01*
X129149Y66262D01*
X128351Y65801D01*
X127699Y65149D01*
X127422Y64668D01*
X94139D01*
X93554Y64552D01*
X93058Y64220D01*
X88607Y59770D01*
X86925D01*
Y61209D01*
X79413D01*
Y59770D01*
X44252D01*
X43667Y59653D01*
X43170Y59322D01*
X38940Y55091D01*
X38073Y55323D01*
X37084D01*
X36129Y55067D01*
X35273Y54572D01*
X34573Y53873D01*
X34079Y53017D01*
X33823Y52061D01*
Y51073D01*
X34079Y50117D01*
X34573Y49261D01*
X35273Y48561D01*
X36129Y48067D01*
X37084Y47811D01*
X38073D01*
X39028Y48067D01*
X39885Y48561D01*
X40584Y49261D01*
X41079Y50117D01*
X41335Y51073D01*
Y52061D01*
X41102Y52928D01*
X44885Y56711D01*
X49749D01*
X49940Y56249D01*
X48782Y55091D01*
X47916Y55323D01*
X46927D01*
X45972Y55067D01*
X45115Y54572D01*
X44416Y53873D01*
X43921Y53017D01*
X43665Y52061D01*
Y51073D01*
X43921Y50117D01*
X44416Y49261D01*
X45115Y48561D01*
X45972Y48067D01*
X46927Y47811D01*
X47916D01*
X48871Y48067D01*
X49727Y48561D01*
X50427Y49261D01*
X50921Y50117D01*
X51177Y51073D01*
Y52061D01*
X50945Y52928D01*
X52311Y54293D01*
X54047D01*
X54212Y53793D01*
X53764Y53017D01*
X53509Y52067D01*
X57264D01*
X61018D01*
X60764Y53017D01*
X60315Y53793D01*
X60480Y54293D01*
X65042D01*
X69657Y49678D01*
X70153Y49347D01*
X70739Y49231D01*
X79413D01*
Y47791D01*
X86925D01*
Y53728D01*
X79413D01*
Y52289D01*
X71372D01*
X67413Y56249D01*
X67604Y56711D01*
X79413D01*
Y55272D01*
X86925D01*
Y56711D01*
X88075D01*
Y51531D01*
X95587D01*
Y52711D01*
X97492D01*
X97699Y52351D01*
X98351Y51699D01*
X99149Y51239D01*
X100039Y51000D01*
X100961D01*
X101851Y51239D01*
X102649Y51699D01*
X103301Y52351D01*
X103508Y52711D01*
X108547D01*
Y50819D01*
X108547Y50681D01*
Y50319D01*
X108547Y50181D01*
Y47260D01*
X112500D01*
X116453D01*
Y50181D01*
X116453Y50319D01*
Y50681D01*
X116453Y50819D01*
Y57799D01*
X108547D01*
Y55770D01*
X103783D01*
X103761Y55851D01*
X103301Y56649D01*
X102649Y57301D01*
X101851Y57762D01*
X100961Y58000D01*
X100039D01*
X99149Y57762D01*
X98351Y57301D01*
X97699Y56649D01*
X97238Y55851D01*
X97217Y55770D01*
X95587D01*
Y57468D01*
X91285D01*
X91093Y57930D01*
X94772Y61610D01*
X127261D01*
X127699Y60851D01*
X128351Y60199D01*
X129149Y59738D01*
X130039Y59500D01*
X130961D01*
X131851Y59738D01*
X132649Y60199D01*
X133301Y60851D01*
X133762Y61649D01*
X134000Y62539D01*
Y63461D01*
X133762Y64351D01*
X133301Y65149D01*
X132649Y65801D01*
X131851Y66262D01*
X130961Y66500D01*
D02*
G37*
G36*
X352764Y55321D02*
Y52067D01*
X356018D01*
X355764Y53017D01*
X355269Y53873D01*
X354570Y54572D01*
X353713Y55067D01*
X352764Y55321D01*
D02*
G37*
G36*
X292955Y55618D02*
X292921D01*
Y52067D01*
X296472D01*
Y52100D01*
X296196Y53131D01*
X295663Y54054D01*
X294909Y54809D01*
X293985Y55342D01*
X292955Y55618D01*
D02*
G37*
G36*
X291921D02*
X291888D01*
X290858Y55342D01*
X289934Y54809D01*
X289179Y54054D01*
X288646Y53131D01*
X288370Y52100D01*
Y52067D01*
X291921D01*
Y55618D01*
D02*
G37*
G36*
X351764Y55321D02*
X350814Y55067D01*
X349958Y54572D01*
X349258Y53873D01*
X348764Y53017D01*
X348509Y52067D01*
X351764D01*
Y55321D01*
D02*
G37*
G36*
Y51067D02*
X348509D01*
X348764Y50117D01*
X349258Y49261D01*
X349958Y48561D01*
X350814Y48067D01*
X351764Y47813D01*
Y51067D01*
D02*
G37*
G36*
X61018D02*
X57764D01*
Y47813D01*
X58714Y48067D01*
X59570Y48561D01*
X60269Y49261D01*
X60764Y50117D01*
X61018Y51067D01*
D02*
G37*
G36*
X56764D02*
X53509D01*
X53764Y50117D01*
X54258Y49261D01*
X54958Y48561D01*
X55814Y48067D01*
X56764Y47813D01*
Y51067D01*
D02*
G37*
G36*
X356018D02*
X352764D01*
Y47813D01*
X353713Y48067D01*
X354570Y48561D01*
X355269Y49261D01*
X355764Y50117D01*
X356018Y51067D01*
D02*
G37*
G36*
X342916Y55323D02*
X341927D01*
X340971Y55067D01*
X340115Y54572D01*
X339416Y53873D01*
X338921Y53017D01*
X338665Y52061D01*
Y51073D01*
X338921Y50117D01*
X339416Y49261D01*
X340115Y48561D01*
X340971Y48067D01*
X341927Y47811D01*
X342916D01*
X343871Y48067D01*
X344727Y48561D01*
X345427Y49261D01*
X345921Y50117D01*
X346177Y51073D01*
Y52061D01*
X345921Y53017D01*
X345427Y53873D01*
X344727Y54572D01*
X343871Y55067D01*
X342916Y55323D01*
D02*
G37*
G36*
X333073D02*
X332084D01*
X331129Y55067D01*
X330273Y54572D01*
X329573Y53873D01*
X329079Y53017D01*
X328823Y52061D01*
Y51073D01*
X329079Y50117D01*
X329573Y49261D01*
X330273Y48561D01*
X331129Y48067D01*
X332084Y47811D01*
X333073D01*
X334029Y48067D01*
X334885Y48561D01*
X335584Y49261D01*
X336079Y50117D01*
X336335Y51073D01*
Y52061D01*
X336079Y53017D01*
X335584Y53873D01*
X334885Y54572D01*
X334029Y55067D01*
X333073Y55323D01*
D02*
G37*
G36*
X296472Y51067D02*
X292921D01*
Y47516D01*
X292955D01*
X293985Y47792D01*
X294909Y48325D01*
X295663Y49079D01*
X296196Y50003D01*
X296472Y51034D01*
Y51067D01*
D02*
G37*
G36*
X291921D02*
X288370D01*
Y51034D01*
X288646Y50003D01*
X289179Y49079D01*
X289934Y48325D01*
X290858Y47792D01*
X291888Y47516D01*
X291921D01*
Y51067D01*
D02*
G37*
G36*
X286630Y55618D02*
X278528D01*
Y47516D01*
X286630D01*
Y55618D01*
D02*
G37*
G36*
X136953Y46260D02*
X133500D01*
Y43201D01*
X136953D01*
Y46260D01*
D02*
G37*
G36*
X132500D02*
X129047D01*
Y43201D01*
X132500D01*
Y46260D01*
D02*
G37*
G36*
X116453D02*
X113000D01*
Y43201D01*
X116453D01*
Y46260D01*
D02*
G37*
G36*
X112000D02*
X108547D01*
Y43201D01*
X112000D01*
Y46260D01*
D02*
G37*
G36*
X294799Y25953D02*
X291740D01*
Y22500D01*
X294799D01*
Y25953D01*
D02*
G37*
G36*
X21353Y31343D02*
X21000D01*
Y21000D01*
X31343D01*
Y21353D01*
X31076Y23039D01*
X30548Y24662D01*
X29773Y26183D01*
X28770Y27563D01*
X27563Y28770D01*
X26183Y29773D01*
X24662Y30548D01*
X23039Y31076D01*
X21353Y31343D01*
D02*
G37*
G36*
X20000D02*
X19647D01*
X17961Y31076D01*
X16338Y30548D01*
X14817Y29773D01*
X13437Y28770D01*
X12230Y27563D01*
X11227Y26183D01*
X10452Y24662D01*
X9924Y23039D01*
X9657Y21353D01*
Y21000D01*
X20000D01*
Y31343D01*
D02*
G37*
G36*
X360853Y30843D02*
X360500D01*
Y20500D01*
X370843D01*
Y20853D01*
X370575Y22539D01*
X370048Y24162D01*
X369273Y25683D01*
X368270Y27063D01*
X367063Y28270D01*
X365683Y29273D01*
X364162Y30048D01*
X362539Y30575D01*
X360853Y30843D01*
D02*
G37*
G36*
X359500D02*
X359147D01*
X357461Y30575D01*
X355838Y30048D01*
X354317Y29273D01*
X352937Y28270D01*
X351730Y27063D01*
X350727Y25683D01*
X349952Y24162D01*
X349425Y22539D01*
X349158Y20853D01*
Y20500D01*
X359500D01*
Y30843D01*
D02*
G37*
G36*
X294799Y21500D02*
X291740D01*
Y18047D01*
X294799D01*
Y21500D01*
D02*
G37*
G36*
X254799D02*
X251740D01*
Y18047D01*
X254799D01*
Y21500D01*
D02*
G37*
G36*
X214799D02*
X211740D01*
Y18047D01*
X214799D01*
Y21500D01*
D02*
G37*
G36*
X174799D02*
X171740D01*
Y18047D01*
X174799D01*
Y21500D01*
D02*
G37*
G36*
X31343Y20000D02*
X21000D01*
Y9657D01*
X21353D01*
X23039Y9924D01*
X24662Y10452D01*
X26183Y11227D01*
X27563Y12230D01*
X28770Y13437D01*
X29773Y14817D01*
X30548Y16338D01*
X31076Y17961D01*
X31343Y19647D01*
Y20000D01*
D02*
G37*
G36*
X20000D02*
X9657D01*
Y19647D01*
X9924Y17961D01*
X10452Y16338D01*
X11227Y14817D01*
X12230Y13437D01*
X13437Y12230D01*
X14817Y11227D01*
X16338Y10452D01*
X17961Y9924D01*
X19647Y9657D01*
X20000D01*
Y20000D01*
D02*
G37*
G36*
X370843Y19500D02*
X360500D01*
Y9157D01*
X360853D01*
X362539Y9425D01*
X364162Y9952D01*
X365683Y10727D01*
X367063Y11730D01*
X368270Y12937D01*
X369273Y14317D01*
X370048Y15838D01*
X370575Y17461D01*
X370843Y19147D01*
Y19500D01*
D02*
G37*
G36*
X359500D02*
X349158D01*
Y19147D01*
X349425Y17461D01*
X349952Y15838D01*
X350727Y14317D01*
X351730Y12937D01*
X352937Y11730D01*
X354317Y10727D01*
X355838Y9952D01*
X357461Y9425D01*
X359147Y9157D01*
X359500D01*
Y19500D01*
D02*
G37*
%LPD*%
G36*
X227619Y357406D02*
X227500Y356961D01*
Y356039D01*
X227738Y355149D01*
X228199Y354351D01*
X228851Y353699D01*
X229471Y353342D01*
Y332685D01*
X228674Y332225D01*
X228023Y331573D01*
X227997Y331529D01*
X227918Y331524D01*
X227420Y331989D01*
Y334618D01*
X227331Y335290D01*
X227072Y335917D01*
X226659Y336455D01*
X226121Y336867D01*
X225495Y337127D01*
X224823Y337215D01*
X221628D01*
Y352122D01*
X227171Y357665D01*
X227619Y357406D01*
D02*
G37*
G36*
X248971Y115610D02*
Y108848D01*
X248649Y108762D01*
X247851Y108301D01*
X247199Y107649D01*
X246739Y106851D01*
X246500Y105961D01*
Y105698D01*
X246000Y105491D01*
X243457Y108035D01*
X243648Y108550D01*
X244351Y108739D01*
X245149Y109199D01*
X245801Y109851D01*
X246262Y110649D01*
X246500Y111539D01*
Y112461D01*
X246262Y113351D01*
X245801Y114149D01*
X245347Y114603D01*
X245606Y115051D01*
X245797Y115000D01*
X246718D01*
X247608Y115238D01*
X248406Y115699D01*
X248509Y115802D01*
X248971Y115610D01*
D02*
G37*
G36*
X253292Y91045D02*
X253033Y90597D01*
X252955Y90618D01*
X251888D01*
X250858Y90342D01*
X250827Y90324D01*
X247570Y93581D01*
X247074Y93913D01*
X246488Y94029D01*
X240634D01*
X236529Y98133D01*
Y107154D01*
X236991Y107346D01*
X253292Y91045D01*
D02*
G37*
D12*
X281567Y331567D02*
X302579D01*
X273043Y323043D02*
X281567Y331567D01*
X216949Y323043D02*
X273043D01*
X94139Y63139D02*
X130361D01*
X130500Y63000D01*
X89240Y58240D02*
X94139Y63139D01*
X216949Y333043D02*
X219517Y335611D01*
X208543Y143043D02*
X216949D01*
Y273043D02*
X234628D01*
X182000Y119500D02*
Y143858D01*
X216949Y173043D02*
X227957D01*
X191949Y119551D02*
Y143909D01*
Y119551D02*
X192000Y119500D01*
X227898Y132898D02*
Y148394D01*
X172421Y51567D02*
Y77421D01*
X227898Y132898D01*
X216949Y233043D02*
X230957D01*
X216949Y193043D02*
X229457D01*
X216949Y303043D02*
X251543D01*
X216992Y283000D02*
X240500D01*
X172000Y119500D02*
Y143858D01*
X216949Y183043D02*
X227957D01*
X216949Y253043D02*
X236957D01*
X216949Y203043D02*
X230457D01*
X181949Y143909D02*
X182000Y143858D01*
X223248Y153043D02*
X227898Y148394D01*
X216949Y153043D02*
X223248D01*
X216949Y283043D02*
X216992Y283000D01*
X171949Y143909D02*
X172000Y143858D01*
X252421Y51567D02*
Y71421D01*
X260000Y79000D01*
Y86500D01*
X237000Y109500D02*
X260000Y86500D01*
X237000Y109500D02*
Y196500D01*
X230457Y203043D02*
X237000Y196500D01*
X242257Y112743D02*
X243000Y112000D01*
X242257Y112743D02*
Y247743D01*
X236957Y253043D02*
X242257Y247743D01*
X227957Y183043D02*
X233000Y178000D01*
Y97500D02*
Y178000D01*
X212421Y76921D02*
X233000Y97500D01*
X212421Y51567D02*
Y76921D01*
X250000Y105500D02*
X250500Y106000D01*
Y273000D01*
X240500Y283000D02*
X250500Y273000D01*
X342579Y323579D02*
Y331567D01*
X331500Y312500D02*
X342579Y323579D01*
X266657Y312500D02*
X331500D01*
X262657Y308500D02*
X266657Y312500D01*
X257000Y308500D02*
X262657D01*
X251543Y303043D02*
X257000Y308500D01*
X246488Y92500D02*
X252421Y86567D01*
X240000Y92500D02*
X246488D01*
X235000Y97500D02*
X240000Y92500D01*
X235000Y97500D02*
Y187500D01*
X229457Y193043D02*
X235000Y187500D01*
X255970Y93358D02*
X271850D01*
X239000Y110328D02*
X255970Y93358D01*
X239000Y110328D02*
Y225000D01*
X230957Y233043D02*
X239000Y225000D01*
X227957Y173043D02*
X231000Y170000D01*
Y116500D02*
Y170000D01*
X212421Y97921D02*
X231000Y116500D01*
X212421Y86567D02*
Y97921D01*
X246257Y118500D02*
X246500Y118743D01*
Y261172D01*
X234628Y273043D02*
X246500Y261172D01*
X199000Y133500D02*
X208543Y143043D01*
X199000Y114500D02*
Y133500D01*
X172421Y87921D02*
X199000Y114500D01*
X172421Y86567D02*
Y87921D01*
X240260Y361000D02*
X241500Y359760D01*
X228343Y361000D02*
X240260D01*
X220098Y352755D02*
X228343Y361000D01*
X220098Y335611D02*
Y352755D01*
X219517Y335611D02*
X220098D01*
X231000Y314500D02*
X263000D01*
X271850Y93358D02*
X303150D01*
X230823Y329424D02*
X231000Y329601D01*
X272000Y155000D02*
X291071D01*
X272657Y162000D02*
X275157Y159500D01*
X283169D01*
X272000Y162000D02*
X272657D01*
X242579Y51567D02*
Y86567D01*
X242579Y86567D01*
X242579Y23575D02*
Y51567D01*
X89217Y343500D02*
X123500D01*
X272500Y190500D02*
X291571D01*
X273749Y196975D02*
X276225Y194500D01*
X272857Y196975D02*
X273043D01*
X270122Y194240D02*
X272857Y196975D01*
X273043D02*
X273749D01*
X231000Y329601D02*
Y356500D01*
X263000Y314500D02*
X281500D01*
X272418Y126500D02*
X274582D01*
X270158Y124240D02*
X272418Y126500D01*
X291571Y190500D02*
X291831Y190760D01*
X262500Y194240D02*
X270122D01*
X127740Y334240D02*
X145500Y352000D01*
X273500Y265500D02*
Y266500D01*
X291071Y155000D02*
X291831Y155760D01*
X292618D01*
X112500Y334240D02*
X127740D01*
X241500Y359760D02*
X262260D01*
X262500Y360000D01*
X247819Y26453D02*
X279701D01*
X243760Y22000D02*
Y22394D01*
X247819Y26453D01*
X279701D02*
X283760Y22394D01*
X312933Y51567D01*
X322736D01*
X207819Y26453D02*
X239701D01*
X242579Y23575D01*
X243760Y22394D01*
X203760D02*
X207819Y26453D01*
X163760Y22394D02*
Y50386D01*
X202579Y23575D02*
Y51567D01*
Y23575D02*
X203760Y22394D01*
X199701Y26453D02*
X202579Y23575D01*
X163760Y22394D02*
X167819Y26453D01*
X199701D01*
X163760Y22000D02*
Y22394D01*
X203760Y22000D02*
Y22394D01*
X202579Y51567D02*
Y86567D01*
X162579Y86567D02*
X162579Y86567D01*
X162579Y51567D02*
Y86567D01*
Y51567D02*
X163760Y50386D01*
X262500Y229240D02*
Y236000D01*
X268500Y242000D02*
X322500D01*
X262500Y236000D02*
X268500Y242000D01*
X269000Y171500D02*
X323000D01*
X262500Y159240D02*
Y165000D01*
X269000Y171500D01*
X262500Y303000D02*
X267730Y308230D01*
X262500Y299240D02*
Y303000D01*
X267730Y308230D02*
X301005D01*
X122000Y49500D02*
X126740Y54240D01*
X133000D01*
X39303Y40000D02*
X118000D01*
X122000Y44000D02*
Y49500D01*
X118000Y40000D02*
X122000Y44000D01*
X27736Y51567D02*
X39303Y40000D01*
Y75000D02*
X93000D01*
X107240Y89240D02*
X112500D01*
X93000Y75000D02*
X107240Y89240D01*
X27736Y86567D02*
X39303Y75000D01*
X107740Y229240D02*
X112500D01*
X94000Y215500D02*
X107740Y229240D01*
X38803Y215500D02*
X94000D01*
X107240Y159240D02*
X112500D01*
X94500Y146500D02*
X107240Y159240D01*
X37803Y146500D02*
X94500D01*
X27736Y156567D02*
X37803Y146500D01*
X27736Y121567D02*
Y156567D01*
Y226567D02*
X38803Y215500D01*
X27736Y191567D02*
Y226567D01*
X108240Y299240D02*
X112500D01*
X36803Y287500D02*
X96500D01*
X108240Y299240D01*
X27736Y296567D02*
X36803Y287500D01*
X92090Y54240D02*
X112500D01*
X92090Y124240D02*
X112500D01*
X92090Y89240D02*
X100192D01*
X91831Y159500D02*
X100192D01*
X92090Y194240D02*
X112500D01*
X92090Y229240D02*
X100500D01*
X92090Y264240D02*
X112500D01*
X101500Y334500D02*
X112240D01*
X112500Y334240D01*
X91831Y299500D02*
X101500D01*
X91831Y334500D02*
X101500D01*
X281500Y314500D02*
X288000Y321000D01*
X322500Y86803D02*
X322736Y86567D01*
X322500Y86803D02*
Y112500D01*
X322736Y51567D02*
Y86567D01*
X276582Y124500D02*
X284669D01*
X262500Y124240D02*
X270158D01*
X274582Y126500D02*
X276582Y124500D01*
X293071Y120500D02*
X293331Y120760D01*
X274000Y120500D02*
X293071D01*
X276225Y194500D02*
X283169D01*
X273363Y231500D02*
X274000D01*
X276500Y229500D02*
X283169D01*
X274000Y232000D02*
X276500Y229500D01*
X274000Y226000D02*
X291590D01*
X273500Y265500D02*
X273735Y265735D01*
X276582Y264500D02*
X283169D01*
X275348Y265735D02*
X276582Y264500D01*
X273265Y265735D02*
X273500Y265500D01*
X270158Y264240D02*
X271652Y265735D01*
X273735D02*
X275348D01*
X262500Y264240D02*
X270158D01*
X271652Y265735D02*
X273265D01*
X272691Y301500D02*
X273586D01*
X275586Y299500D01*
X283169D01*
X273000Y295500D02*
X291571D01*
X291831Y295760D01*
X292618D01*
X291571Y260500D02*
X291831Y260760D01*
X273500Y260500D02*
X291571D01*
X291590Y226000D02*
X291831Y225760D01*
X292618D01*
X293331Y120760D02*
X294118D01*
X104159Y141659D02*
X122418D01*
X110051Y102500D02*
X124418D01*
X271850Y75642D02*
X303150D01*
X297567Y117311D02*
X328323D01*
X294118Y120760D02*
X297567Y117311D01*
X328323D02*
X332579Y121567D01*
X335748Y128240D02*
X342421Y121567D01*
X293331Y128240D02*
X335748D01*
X296067Y152311D02*
X328323D01*
X332579Y156567D01*
X292618Y155760D02*
X296067Y152311D01*
X335748Y163240D02*
X342421Y156567D01*
X291831Y163240D02*
X335748D01*
X328323Y187311D02*
X332579Y191567D01*
X296067Y187311D02*
X328323D01*
X292618Y190760D02*
X296067Y187311D01*
X291831Y190760D02*
X292618D01*
X291831Y198240D02*
X335748D01*
X342421Y191567D01*
X296067Y222311D02*
X328323D01*
X332579Y226567D01*
X292618Y225760D02*
X296067Y222311D01*
X291831Y233240D02*
X335748D01*
X342421Y226567D01*
X291831Y260760D02*
X292618D01*
X328323Y257311D02*
X332579Y261567D01*
X296067Y257311D02*
X328323D01*
X292618Y260760D02*
X296067Y257311D01*
X335748Y268240D02*
X342421Y261567D01*
X291831Y268240D02*
X335748D01*
X292618Y295760D02*
X296067Y292311D01*
X328323D02*
X332579Y296567D01*
X296067Y292311D02*
X328323D01*
X335748Y303240D02*
X342421Y296567D01*
X291831Y303240D02*
X335748D01*
X83957Y198240D02*
X95740D01*
X111500Y214000D02*
X119000D01*
X95740Y198240D02*
X111500Y214000D01*
X83169Y198240D02*
X83957D01*
X44252D02*
X83169D01*
X83169Y163240D02*
X92240D01*
X106500Y177500D02*
X120419D01*
X92240Y163240D02*
X106500Y177500D01*
X44252Y163240D02*
X83169D01*
X90740Y128240D02*
X104159Y141659D01*
X83169Y128240D02*
X90740D01*
X44252D02*
X83169D01*
Y58240D02*
X89240D01*
X44252D02*
X83169D01*
X44252Y93240D02*
X83169D01*
X100792D01*
X110051Y102500D01*
X111000Y246500D02*
X118000D01*
X97740Y233240D02*
X111000Y246500D01*
X83169Y233240D02*
X97740D01*
X44252D02*
X83169D01*
Y268240D02*
X92240D01*
X106500Y282500D02*
X123500D01*
X92240Y268240D02*
X106500Y282500D01*
X91216Y310500D02*
X123000D01*
X83169Y303240D02*
X83957D01*
X91216Y310500D01*
X83957Y338240D02*
X89217Y343500D01*
X83169Y338240D02*
X83957D01*
X91831Y54500D02*
X92090Y54240D01*
X91831Y89500D02*
X92090Y89240D01*
X91831Y124500D02*
X92090Y124240D01*
X91831Y194500D02*
X92090Y194240D01*
X91831Y229500D02*
X92090Y229240D01*
X91831Y264500D02*
X92090Y264240D01*
X91831Y299500D02*
X92090Y299240D01*
X65676Y55823D02*
X70739Y50760D01*
X47421Y51567D02*
X51677Y55823D01*
X70739Y50760D02*
X83169D01*
X51677Y55823D02*
X65676D01*
X37579Y51567D02*
X44252Y58240D01*
X47421Y86567D02*
X51677Y90823D01*
X70739Y85760D02*
X83169D01*
X65676Y90823D02*
X70739Y85760D01*
X51677Y90823D02*
X65676D01*
X37579Y86567D02*
X44252Y93240D01*
X65676Y125823D02*
X70739Y120760D01*
X51677Y125823D02*
X65676D01*
X70739Y120760D02*
X83169D01*
X47421Y121567D02*
X51677Y125823D01*
X37579Y121567D02*
X44252Y128240D01*
X65676Y160823D02*
X70739Y155760D01*
X51677Y160823D02*
X65676D01*
X70739Y155760D02*
X83169D01*
X47421Y156567D02*
X51677Y160823D01*
X37579Y156567D02*
X44252Y163240D01*
X65676Y195823D02*
X70739Y190760D01*
X51677Y195823D02*
X65676D01*
X47421Y191567D02*
X51677Y195823D01*
X70739Y190760D02*
X83169D01*
X37579Y191567D02*
X44252Y198240D01*
X70739Y225760D02*
X83169D01*
X65676Y230823D02*
X70739Y225760D01*
X51677Y230823D02*
X65676D01*
X47421Y226567D02*
X51677Y230823D01*
X37579Y226567D02*
X44252Y233240D01*
X65676Y265823D02*
X70739Y260760D01*
X47421Y261567D02*
X51677Y265823D01*
X70739Y260760D02*
X83169D01*
X51677Y265823D02*
X65676D01*
X44252Y268240D02*
X83169D01*
X37579Y261567D02*
X44252Y268240D01*
X70740Y330760D02*
X83169D01*
X65677Y335823D02*
X70740Y330760D01*
X51677Y335823D02*
X65677D01*
X65676Y300823D02*
X70739Y295760D01*
X51677Y300823D02*
X65676D01*
X47421Y296567D02*
X51677Y300823D01*
X70739Y295760D02*
X83169D01*
X44252Y303240D02*
X83169D01*
X37579Y296567D02*
X44252Y303240D01*
X27736Y86567D02*
Y121567D01*
Y51567D02*
Y86567D01*
X27736Y121567D02*
X27736Y121567D01*
X27736Y156567D02*
Y191567D01*
X27736Y156567D02*
X27736Y156567D01*
X27736Y191567D02*
X27736Y191567D01*
X27736Y226567D02*
Y261567D01*
X27736Y226567D02*
X27736Y226567D01*
X27736Y261567D02*
Y296567D01*
Y261567D02*
X27736Y261567D01*
X27736Y296567D02*
Y331567D01*
X47421Y331567D02*
X51677Y335823D01*
X44252Y338240D02*
X83169D01*
X37579Y331567D02*
X44252Y338240D01*
X91831Y334500D02*
X92090Y334240D01*
D13*
X262500Y299240D02*
D03*
Y291760D02*
D03*
Y159240D02*
D03*
Y151760D02*
D03*
Y229240D02*
D03*
Y221760D02*
D03*
X133000Y54240D02*
D03*
Y46760D02*
D03*
X112500Y89240D02*
D03*
Y81760D02*
D03*
Y159240D02*
D03*
Y151760D02*
D03*
Y229240D02*
D03*
Y221760D02*
D03*
Y299240D02*
D03*
Y291760D02*
D03*
X241500Y367240D02*
D03*
Y359760D02*
D03*
X262500Y264240D02*
D03*
Y256760D02*
D03*
Y124240D02*
D03*
Y116760D02*
D03*
Y194240D02*
D03*
Y186760D02*
D03*
X112500Y54240D02*
D03*
Y46760D02*
D03*
Y124240D02*
D03*
Y116760D02*
D03*
Y194240D02*
D03*
Y186760D02*
D03*
Y264240D02*
D03*
Y256760D02*
D03*
Y334240D02*
D03*
Y326760D02*
D03*
D14*
X291240Y22000D02*
D03*
X283760D02*
D03*
X251240D02*
D03*
X243760D02*
D03*
X211240D02*
D03*
X203760D02*
D03*
X171240D02*
D03*
X163760D02*
D03*
D15*
X303150Y93358D02*
D03*
Y75642D02*
D03*
X271850Y93358D02*
D03*
Y75642D02*
D03*
D16*
X293331Y128240D02*
D03*
Y120760D02*
D03*
X284669Y124500D02*
D03*
X291831Y163240D02*
D03*
Y155760D02*
D03*
X283169Y159500D02*
D03*
X291831Y198240D02*
D03*
Y190760D02*
D03*
X283169Y194500D02*
D03*
X291831Y233240D02*
D03*
Y225760D02*
D03*
X283169Y229500D02*
D03*
X291831Y268240D02*
D03*
Y260760D02*
D03*
X283169Y264500D02*
D03*
X291831Y303240D02*
D03*
X291831Y295760D02*
D03*
X283169Y299500D02*
D03*
X91831Y54500D02*
D03*
X83169Y50760D02*
D03*
Y58240D02*
D03*
X91831Y89500D02*
D03*
X83169Y85760D02*
D03*
Y93240D02*
D03*
X91831Y124500D02*
D03*
X83169Y120760D02*
D03*
Y128240D02*
D03*
X91831Y159500D02*
D03*
X83169Y155760D02*
D03*
Y163240D02*
D03*
X91831Y194500D02*
D03*
X83169Y198240D02*
D03*
X83169Y190760D02*
D03*
X91831Y229500D02*
D03*
X83169Y225760D02*
D03*
Y233240D02*
D03*
X91831Y264500D02*
D03*
X83169Y260760D02*
D03*
Y268240D02*
D03*
X91831Y299500D02*
D03*
X83169Y295760D02*
D03*
X83169Y303240D02*
D03*
X91831Y334500D02*
D03*
X83169Y330760D02*
D03*
Y338240D02*
D03*
D25*
X182000Y119500D02*
D03*
X172000D02*
D03*
X352421Y331567D02*
D03*
X312421D02*
D03*
X292421Y51567D02*
D03*
X272421Y331567D02*
D03*
X252421Y51567D02*
D03*
X212421D02*
D03*
X172421D02*
D03*
X252421Y86567D02*
D03*
X212421D02*
D03*
X172421D02*
D03*
D26*
X192000Y119500D02*
D03*
X342579Y331567D02*
D03*
X302579D02*
D03*
X282579Y51567D02*
D03*
X262579Y331567D02*
D03*
X242579Y51567D02*
D03*
X202579D02*
D03*
X162579D02*
D03*
X242579Y86567D02*
D03*
X202579D02*
D03*
X162579D02*
D03*
D27*
X352264Y51567D02*
D03*
X342421D02*
D03*
X332579D02*
D03*
X352264Y86567D02*
D03*
X342421D02*
D03*
X332579D02*
D03*
X352264Y121567D02*
D03*
X342421Y121567D02*
D03*
X332579D02*
D03*
X352264Y156567D02*
D03*
X342421Y156567D02*
D03*
X332579D02*
D03*
X342421Y191567D02*
D03*
X352264D02*
D03*
X332579D02*
D03*
X342421Y226567D02*
D03*
X352264D02*
D03*
X332579D02*
D03*
X342421Y261567D02*
D03*
X352264D02*
D03*
X332579D02*
D03*
X352264Y296567D02*
D03*
X342421D02*
D03*
X332579D02*
D03*
X57264Y51567D02*
D03*
X47421D02*
D03*
X37579D02*
D03*
X57264Y86567D02*
D03*
X47421D02*
D03*
X37579D02*
D03*
X57264Y121567D02*
D03*
X47421D02*
D03*
X37579D02*
D03*
X57264Y156567D02*
D03*
X47421D02*
D03*
X37579D02*
D03*
X57264Y191567D02*
D03*
X47421D02*
D03*
X37579D02*
D03*
X57264Y226567D02*
D03*
X47421D02*
D03*
X37579D02*
D03*
X57264Y261567D02*
D03*
X47421D02*
D03*
X37579D02*
D03*
X57264Y296567D02*
D03*
X47421D02*
D03*
X37579D02*
D03*
X57264Y331567D02*
D03*
X47421Y331567D02*
D03*
X37579Y331567D02*
D03*
D28*
X322736Y51567D02*
D03*
Y86567D02*
D03*
X322736Y121567D02*
D03*
Y156567D02*
D03*
X322736Y191567D02*
D03*
Y226567D02*
D03*
X322736Y261567D02*
D03*
X322736Y296567D02*
D03*
X27736Y51567D02*
D03*
Y86567D02*
D03*
Y121567D02*
D03*
X27736Y156567D02*
D03*
X27736Y191567D02*
D03*
X27736Y226567D02*
D03*
X27736Y261567D02*
D03*
X27736Y296567D02*
D03*
Y331567D02*
D03*
D31*
X20000Y360000D02*
D03*
X20500Y20500D02*
D03*
X360000Y20000D02*
D03*
Y360000D02*
D03*
D32*
X272500D02*
D03*
X282500D02*
D03*
D33*
X262500D02*
D03*
D34*
X143799Y333043D02*
D03*
Y323043D02*
D03*
Y233043D02*
D03*
X220098D02*
D03*
X143799Y303043D02*
D03*
Y313043D02*
D03*
Y253043D02*
D03*
Y243043D02*
D03*
Y163043D02*
D03*
Y193043D02*
D03*
Y173043D02*
D03*
Y183043D02*
D03*
Y153043D02*
D03*
Y203043D02*
D03*
Y213043D02*
D03*
Y223043D02*
D03*
Y143043D02*
D03*
Y273043D02*
D03*
Y283043D02*
D03*
Y293043D02*
D03*
Y263043D02*
D03*
X220098Y153043D02*
D03*
Y143043D02*
D03*
Y163043D02*
D03*
Y173043D02*
D03*
Y193043D02*
D03*
Y183043D02*
D03*
Y203043D02*
D03*
Y213043D02*
D03*
Y223043D02*
D03*
Y243043D02*
D03*
Y253043D02*
D03*
Y273043D02*
D03*
Y263043D02*
D03*
Y323043D02*
D03*
Y293043D02*
D03*
Y303043D02*
D03*
Y313043D02*
D03*
Y283043D02*
D03*
Y333043D02*
D03*
D35*
X171949Y140760D02*
D03*
X181949D02*
D03*
X191949D02*
D03*
D36*
X230823Y329424D02*
D03*
X130500Y63000D02*
D03*
X231000Y314500D02*
D03*
X272000Y155000D02*
D03*
Y162000D02*
D03*
X246257Y118500D02*
D03*
X250000Y105500D02*
D03*
X243000Y112000D02*
D03*
X123500Y343500D02*
D03*
X273043Y196975D02*
D03*
X272500Y190500D02*
D03*
X273500Y126500D02*
D03*
X145500Y352000D02*
D03*
X273500Y266500D02*
D03*
X231000Y356500D02*
D03*
X322500Y242000D02*
D03*
X323000Y171500D02*
D03*
X301005Y308230D02*
D03*
X100500Y54500D02*
D03*
X100192Y89240D02*
D03*
X100000Y124000D02*
D03*
X100192Y159432D02*
D03*
X100500Y194500D02*
D03*
Y229000D02*
D03*
X101500Y264000D02*
D03*
Y299500D02*
D03*
Y334500D02*
D03*
X263000Y314500D02*
D03*
X288000Y321000D02*
D03*
X322500Y112500D02*
D03*
X274000Y120500D02*
D03*
Y232000D02*
D03*
Y226000D02*
D03*
X273000Y301500D02*
D03*
Y295500D02*
D03*
X273500Y260500D02*
D03*
X122418Y141659D02*
D03*
X124418Y102500D02*
D03*
X120419Y177500D02*
D03*
X118000Y246500D02*
D03*
X119000Y214000D02*
D03*
X123500Y282500D02*
D03*
X123000Y310500D02*
D03*
M02*
