0
SECTION
2
HEADER
9
$INSUNITS
70
4
9
$ACADVER
1
AC1014
9
$HANDSEED
5
FFFF
0
ENDSEC
0
SECTION
2
TABLES
0
TABLE
2
VPORT
5
8
100
AcDbSymbolTable
0
ENDTAB
0
TABLE
2
LTYPE
5
5
100
AcDbSymbolTable
0
LTYPE
5
14
100
AcDbSymbolTableRecord
100
AcDbLinetypeTableRecord
2
BYBLOCK
70
0
0
LTYPE
5
15
100
AcDbSymbolTableRecord
100
AcDbLinetypeTableRecord
2
BYLAYER
70
0
0
ENDTAB
0
TABLE
2
LAYER
5
2
100
AcDbSymbolTable
70
2
0
LAYER
5
50
100
AcDbSymbolTableRecord
100
AcDbLayerTableRecord
2
0
70
0
6
CONTINUOUS
0
ENDTAB
0
TABLE
2
STYLE
5
3
100
AcDbSymbolTable
70
1
0
STYLE
5
11
100
AcDbSymbolTableRecord
100
AcDbTextStyleTableRecord
2
STANDARD
70
0
0
ENDTAB
0
TABLE
2
VIEW
5
6
100
AcDbSymbolTable
70
0
0
ENDTAB
0
TABLE
2
UCS
5
7
100
AcDbSymbolTable
70
0
0
ENDTAB
0
TABLE
2
APPID
5
9
100
AcDbSymbolTable
70
2
0
APPID
5
12
100
AcDbSymbolTableRecord
100
AcDbRegAppTableRecord
2
ACAD
70
0
0
ENDTAB
0
TABLE
2
DIMSTYLE
5
A
100
AcDbSymbolTable
70
1
0
ENDTAB
0
TABLE
2
BLOCK_RECORD
5
1
100
AcDbSymbolTable
70
1
0
BLOCK_RECORD
5
1F
100
AcDbSymbolTableRecord
100
AcDbBlockTableRecord
2
*MODEL_SPACE
0
BLOCK_RECORD
5
1B
100
AcDbSymbolTableRecord
100
AcDbBlockTableRecord
2
*PAPER_SPACE
0
ENDTAB
0
ENDSEC
0
SECTION
2
BLOCKS
0
BLOCK
5
20
100
AcDbEntity
100
AcDbBlockBegin
2
*MODEL_SPACE
0
ENDBLK
5
21
100
AcDbEntity
100
AcDbBlockEnd
0
BLOCK
5
1C
100
AcDbEntity
100
AcDbBlockBegin
2
*PAPER_SPACE
0
ENDBLK
5
1D
100
AcDbEntity
100
AcDbBlockEnd
0
ENDSEC
0
SECTION
2
ENTITIES
0
LWPOLYLINE
5
100
100
AcDbEntity
8
0
100
AcDbPolyline
90
52
70
1
43
0.0
10
52.999999999999488
20
-50.000000000001563
10
81.999999999999659
20
-50.00000000000157
10
81.999999999999631
20
-44.000000000001478
10
110.9999999999998
20
-44.000000000001478
10
110.9999999999998
20
-50.000000000001563
10
139.99999999999994
20
-50.00000000000157
10
139.99999999999991
20
-30.000000000001261
10
133.99999999999989
20
-30.000000000001258
10
133.99999999999983
20
-10.000000000000945
10
139.99999999999986
20
-10.000000000000943
10
139.99999999999983
20
9.9999999999993676
10
133.9999999999998
20
9.9999999999993676
10
133.99999999999974
20
29.99999999999968
10
139.99999999999977
20
29.999999999999677
10
139.99999999999974
20
49.999999999999986
10
110.99999999999957
20
49.999999999999993
10
110.99999999999959
20
43.999999999999901
10
81.999999999999432
20
43.999999999999901
10
81.999999999999432
20
49.999999999999986
10
52.999999999999261
20
49.999999999999993
10
52.999999999999275
20
43.999999999999901
10
23.999999999999133
20
43.999999999999901
10
23.999999999999112
20
49.999999999999986
10
-34.000000000001208
20
49.999999999999993
10
-34.000000000001187
20
43.999999999999901
10
-63.000000000001336
20
43.999999999999901
10
-63.000000000001336
20
49.999999999999986
10
-92.000000000001478
20
49.999999999999993
10
-92.000000000001478
20
43.999999999999901
10
-121.00000000000165
20
43.999999999999901
10
-121.00000000000165
20
49.999999999999986
10
-150.00000000000182
20
49.999999999999993
10
-150.00000000000176
20
29.99999999999968
10
-144.00000000000173
20
29.999999999999677
10
-144.00000000000171
20
9.9999999999993641
10
-150.00000000000173
20
9.9999999999993676
10
-150.00000000000168
20
-10.000000000000943
10
-144.00000000000165
20
-10.000000000000943
10
-144.00000000000162
20
-30.000000000001251
10
-150.00000000000165
20
-30.000000000001258
10
-150.00000000000159
20
-50.000000000001563
10
-121.00000000000144
20
-50.00000000000157
10
-121.00000000000145
20
-44.000000000001478
10
-92.000000000001293
20
-44.000000000001478
10
-92.000000000001293
20
-50.000000000001563
10
-63.000000000001123
20
-50.00000000000157
10
-63.000000000001123
20
-44.000000000001478
10
-34.000000000000973
20
-44.000000000001478
10
-34.000000000000966
20
-50.000000000001563
10
23.999999999999339
20
-50.00000000000157
10
23.999999999999332
20
-44.000000000001478
10
52.999999999999481
20
-44.000000000001471
0
LWPOLYLINE
5
101
100
AcDbEntity
8
0
100
AcDbPolyline
90
8
70
1
43
0.0
10
-4.9999999999999183
20
3.5000000000000546
42
0.41421356237310186
10
-5.9999999999999218
20
2.5000000000000395
10
-5.9999999999999121
20
-2.5000000000000426
42
0.41421356237310186
10
-4.9999999999999067
20
-3.5000000000000551
10
5.0000000000001492
20
-3.5000000000000551
42
0.41421356237310236
10
6.0000000000001528
20
-2.5000000000000404
10
6.000000000000143
20
2.5000000000000395
42
0.41421356237310347
10
5.0000000000001332
20
3.5000000000000542
0
CIRCLE
5
102
100
AcDbEntity
8
0
100
AcDbCircle
10
-8.25
20
-8.924518843430248e-20
30
0
40
1.5
210
0
220
0
230
1
0
CIRCLE
5
103
100
AcDbEntity
8
0
100
AcDbCircle
10
8.25
20
-4.2965325693836615e-17
30
0
40
1.5
210
0
220
0
230
1
0
ENDSEC
0
SECTION
2
OBJECTS
0
DICTIONARY
5
C
100
AcDbDictionary
3
ACAD_GROUP
350
D
3
ACAD_MLINESTYLE
350
17
0
DICTIONARY
5
D
100
AcDbDictionary
0
DICTIONARY
5
1A
330
C
100
AcDbDictionary
0
DICTIONARY
5
17
100
AcDbDictionary
0
ENDSEC
0
EOF
