0
SECTION
2
HEADER
9
$INSUNITS
70
4
9
$ACADVER
1
AC1014
9
$HANDSEED
5
FFFF
0
ENDSEC
0
SECTION
2
TABLES
0
TABLE
2
VPORT
5
8
100
AcDbSymbolTable
0
ENDTAB
0
TABLE
2
LTYPE
5
5
100
AcDbSymbolTable
0
LTYPE
5
14
100
AcDbSymbolTableRecord
100
AcDbLinetypeTableRecord
2
BYBLOCK
70
0
0
LTYPE
5
15
100
AcDbSymbolTableRecord
100
AcDbLinetypeTableRecord
2
BYLAYER
70
0
0
ENDTAB
0
TABLE
2
LAYER
5
2
100
AcDbSymbolTable
70
2
0
LAYER
5
50
100
AcDbSymbolTableRecord
100
AcDbLayerTableRecord
2
0
70
0
6
CONTINUOUS
0
ENDTAB
0
TABLE
2
STYLE
5
3
100
AcDbSymbolTable
70
1
0
STYLE
5
11
100
AcDbSymbolTableRecord
100
AcDbTextStyleTableRecord
2
STANDARD
70
0
0
ENDTAB
0
TABLE
2
VIEW
5
6
100
AcDbSymbolTable
70
0
0
ENDTAB
0
TABLE
2
UCS
5
7
100
AcDbSymbolTable
70
0
0
ENDTAB
0
TABLE
2
APPID
5
9
100
AcDbSymbolTable
70
2
0
APPID
5
12
100
AcDbSymbolTableRecord
100
AcDbRegAppTableRecord
2
ACAD
70
0
0
ENDTAB
0
TABLE
2
DIMSTYLE
5
A
100
AcDbSymbolTable
70
1
0
ENDTAB
0
TABLE
2
BLOCK_RECORD
5
1
100
AcDbSymbolTable
70
1
0
BLOCK_RECORD
5
1F
100
AcDbSymbolTableRecord
100
AcDbBlockTableRecord
2
*MODEL_SPACE
0
BLOCK_RECORD
5
1B
100
AcDbSymbolTableRecord
100
AcDbBlockTableRecord
2
*PAPER_SPACE
0
ENDTAB
0
ENDSEC
0
SECTION
2
BLOCKS
0
BLOCK
5
20
100
AcDbEntity
100
AcDbBlockBegin
2
*MODEL_SPACE
0
ENDBLK
5
21
100
AcDbEntity
100
AcDbBlockEnd
0
BLOCK
5
1C
100
AcDbEntity
100
AcDbBlockBegin
2
*PAPER_SPACE
0
ENDBLK
5
1D
100
AcDbEntity
100
AcDbBlockEnd
0
ENDSEC
0
SECTION
2
ENTITIES
0
LWPOLYLINE
5
100
100
AcDbEntity
8
0
100
AcDbPolyline
90
52
70
1
43
0.0
10
-92.000000000001933
20
-44.000000000001478
10
-92.000000000001933
20
-50.000000000001563
10
-63.000000000001776
20
-50.00000000000157
10
-63.000000000001762
20
-44.000000000001478
10
-34.000000000001613
20
-44.000000000001478
10
-34.000000000001606
20
-50.000000000001563
10
23.999999999998693
20
-50.00000000000157
10
23.999999999998693
20
-44.000000000001478
10
52.999999999998835
20
-44.000000000001471
10
52.999999999998849
20
-50.000000000001563
10
81.999999999999034
20
-50.00000000000157
10
81.999999999999005
20
-44.000000000001478
10
110.99999999999916
20
-44.000000000001478
10
110.99999999999916
20
-50.000000000001563
10
139.99999999999932
20
-50.00000000000157
10
139.99999999999926
20
-30.000000000001265
10
133.99999999999923
20
-30.000000000001258
10
133.9999999999992
20
-10.000000000000945
10
139.9999999999992
20
-10.000000000000943
10
139.99999999999918
20
9.9999999999993676
10
133.99999999999915
20
9.9999999999993676
10
133.99999999999912
20
29.99999999999968
10
139.99999999999912
20
29.999999999999677
10
139.99999999999909
20
49.999999999999986
10
110.99999999999893
20
49.999999999999993
10
110.99999999999895
20
43.999999999999901
10
81.999999999998778
20
43.999999999999901
10
81.999999999998778
20
49.999999999999986
10
52.999999999998614
20
49.999999999999993
10
52.999999999998636
20
43.999999999999901
10
23.999999999998494
20
43.999999999999901
10
23.999999999998472
20
49.999999999999986
10
-34.000000000001847
20
49.999999999999993
10
-34.000000000001826
20
43.999999999999901
10
-63.000000000001975
20
43.999999999999901
10
-63.000000000001975
20
49.999999999999986
10
-92.000000000002132
20
49.999999999999993
10
-92.000000000002132
20
43.999999999999901
10
-121.00000000000229
20
43.999999999999901
10
-121.00000000000229
20
49.999999999999986
10
-150.00000000000244
20
49.999999999999993
10
-150.00000000000242
20
29.999999999999677
10
-144.00000000000239
20
29.999999999999677
10
-144.00000000000236
20
9.9999999999993641
10
-150.00000000000236
20
9.9999999999993676
10
-150.00000000000233
20
-10.000000000000943
10
-144.0000000000023
20
-10.000000000000943
10
-144.00000000000227
20
-30.000000000001251
10
-150.00000000000227
20
-30.000000000001258
10
-150.00000000000225
20
-50.000000000001563
10
-121.00000000000207
20
-50.00000000000157
10
-121.00000000000209
20
-44.000000000001478
0
LWPOLYLINE
5
101
100
AcDbEntity
8
0
100
AcDbPolyline
90
4
70
1
43
0.0
10
-13
20
5.5
10
13
20
5.5
10
13
20
-5.5
10
-13
20
-5.5
0
ENDSEC
0
SECTION
2
OBJECTS
0
DICTIONARY
5
C
100
AcDbDictionary
3
ACAD_GROUP
350
D
3
ACAD_MLINESTYLE
350
17
0
DICTIONARY
5
D
100
AcDbDictionary
0
DICTIONARY
5
1A
330
C
100
AcDbDictionary
0
DICTIONARY
5
17
100
AcDbDictionary
0
ENDSEC
0
EOF
