0
SECTION
2
HEADER
9
$INSUNITS
70
4
9
$ACADVER
1
AC1014
9
$HANDSEED
5
FFFF
0
ENDSEC
0
SECTION
2
TABLES
0
TABLE
2
VPORT
5
8
100
AcDbSymbolTable
0
ENDTAB
0
TABLE
2
LTYPE
5
5
100
AcDbSymbolTable
0
LTYPE
5
14
100
AcDbSymbolTableRecord
100
AcDbLinetypeTableRecord
2
BYBLOCK
70
0
0
LTYPE
5
15
100
AcDbSymbolTableRecord
100
AcDbLinetypeTableRecord
2
BYLAYER
70
0
0
ENDTAB
0
TABLE
2
LAYER
5
2
100
AcDbSymbolTable
70
2
0
LAYER
5
50
100
AcDbSymbolTableRecord
100
AcDbLayerTableRecord
2
0
70
0
6
CONTINUOUS
0
ENDTAB
0
TABLE
2
STYLE
5
3
100
AcDbSymbolTable
70
1
0
STYLE
5
11
100
AcDbSymbolTableRecord
100
AcDbTextStyleTableRecord
2
STANDARD
70
0
0
ENDTAB
0
TABLE
2
VIEW
5
6
100
AcDbSymbolTable
70
0
0
ENDTAB
0
TABLE
2
UCS
5
7
100
AcDbSymbolTable
70
0
0
ENDTAB
0
TABLE
2
APPID
5
9
100
AcDbSymbolTable
70
2
0
APPID
5
12
100
AcDbSymbolTableRecord
100
AcDbRegAppTableRecord
2
ACAD
70
0
0
ENDTAB
0
TABLE
2
DIMSTYLE
5
A
100
AcDbSymbolTable
70
1
0
ENDTAB
0
TABLE
2
BLOCK_RECORD
5
1
100
AcDbSymbolTable
70
1
0
BLOCK_RECORD
5
1F
100
AcDbSymbolTableRecord
100
AcDbBlockTableRecord
2
*MODEL_SPACE
0
BLOCK_RECORD
5
1B
100
AcDbSymbolTableRecord
100
AcDbBlockTableRecord
2
*PAPER_SPACE
0
ENDTAB
0
ENDSEC
0
SECTION
2
BLOCKS
0
BLOCK
5
20
100
AcDbEntity
100
AcDbBlockBegin
2
*MODEL_SPACE
0
ENDBLK
5
21
100
AcDbEntity
100
AcDbBlockEnd
0
BLOCK
5
1C
100
AcDbEntity
100
AcDbBlockBegin
2
*PAPER_SPACE
0
ENDBLK
5
1D
100
AcDbEntity
100
AcDbBlockEnd
0
ENDSEC
0
SECTION
2
ENTITIES
0
LWPOLYLINE
5
100
100
AcDbEntity
8
0
100
AcDbPolyline
90
6
70
1
43
0.0
10
112.9767072157868
20
-87.879506057452602
10
112.9767072157868
20
-92.498308210969626
10
108.97670721578679
20
-94.80770928772813
10
104.97670721578677
20
-92.498308210969611
10
104.97670721578679
20
-87.879506057452588
10
108.97670721578679
20
-85.570104980694083
0
CIRCLE
5
101
100
AcDbEntity
8
0
100
AcDbCircle
10
-4.5232927842131829
20
-88.188907134211121
30
0
40
13.500000000000023
210
1.9721522630525295e-31
220
2.7369110631344114e-48
230
1
0
CIRCLE
5
102
100
AcDbEntity
8
0
100
AcDbCircle
10
-76.523292784213155
20
-40.188907134211064
30
0
40
13.500000000000023
210
1.9721522630525295e-31
220
2.7369110631344114e-48
230
1
0
CIRCLE
5
103
100
AcDbEntity
8
0
100
AcDbCircle
10
-4.5232927842131812
20
-49.188907134211064
30
0
40
13.500000000000023
210
1.9721522630525295e-31
220
2.7369110631344114e-48
230
1
0
CIRCLE
5
104
100
AcDbEntity
8
0
100
AcDbCircle
10
-40.523292784213176
20
-88.188907134211121
30
0
40
13.500000000000023
210
1.9721522630525295e-31
220
2.7369110631344114e-48
230
1
0
LWPOLYLINE
5
105
100
AcDbEntity
8
0
100
AcDbPolyline
90
6
70
1
43
0.0
10
72.976707215786789
20
-92.498308210969626
10
68.976707215786789
20
-94.80770928772813
10
64.976707215786803
20
-92.498308210969626
10
64.976707215786803
20
-87.879506057452602
10
68.976707215786789
20
-85.570104980694097
10
72.976707215786789
20
-87.879506057452602
0
LWPOLYLINE
5
106
100
AcDbEntity
8
0
100
AcDbPolyline
90
6
70
1
43
0.0
10
64.976707215786803
20
-10.498308210969496
10
64.976707215786803
20
-5.87950605745249
10
68.976707215786789
20
-3.5701049806939755
10
72.976707215786803
20
-5.879506057452474
10
72.976707215786803
20
-10.498308210969494
10
68.976707215786789
20
-12.807709287728009
0
CIRCLE
5
107
100
AcDbEntity
8
0
100
AcDbCircle
10
25.976707215786806
20
-68.188907134211092
30
0
40
13.500000000000023
210
1.9721522630525295e-31
220
2.7369110631344114e-48
230
1
0
CIRCLE
5
108
100
AcDbEntity
8
0
100
AcDbCircle
10
-40.523292784213176
20
-49.188907134211071
30
0
40
13.500000000000023
210
1.9721522630525295e-31
220
2.7369110631344114e-48
230
1
0
CIRCLE
5
109
100
AcDbEntity
8
0
100
AcDbCircle
10
25.976707215786803
20
-29.188907134211028
30
0
40
13.500000000000023
210
1.9721522630525295e-31
220
2.7369110631344114e-48
230
1
0
CIRCLE
5
110
100
AcDbEntity
8
0
100
AcDbCircle
10
-76.523292784213155
20
-79.188907134211121
30
0
40
13.500000000000023
210
1.9721522630525295e-31
220
2.7369110631344114e-48
230
1
0
CIRCLE
5
111
100
AcDbEntity
8
0
100
AcDbCircle
10
88.976707215786774
20
-49.188907134211057
30
0
40
13.500000000000023
210
1.9721522630525295e-31
220
2.7369110631344114e-48
230
1
0
LWPOLYLINE
5
112
100
AcDbEntity
8
0
100
AcDbPolyline
90
6
70
1
43
0.0
10
104.97670721578677
20
-5.8795060574524793
10
108.97670721578676
20
-3.5701049806939666
10
112.97670721578677
20
-5.879506057452474
10
112.97670721578677
20
-10.498308210969494
10
108.97670721578677
20
-12.807709287728009
10
104.97670721578677
20
-10.498308210969494
0
LWPOLYLINE
5
113
100
AcDbEntity
8
0
100
AcDbPolyline
90
4
70
1
43
0.0
10
151.22670721578675
20
41.311092865789085
10
-138.77329278421314
20
41.311092865789057
10
-138.77329278421314
20
-158.68890713421126
10
151.22670721578675
20
-158.68890713421118
0
CIRCLE
5
114
100
AcDbEntity
8
0
100
AcDbCircle
10
88.976707215786774
20
-49.188907134211057
30
0
40
13.500000000000021
210
0
220
0
230
1
0
CIRCLE
5
115
100
AcDbEntity
8
0
100
AcDbCircle
10
25.976707215786806
20
-68.188907134211092
30
0
40
13.500000000000023
210
0
220
0
230
1
0
CIRCLE
5
116
100
AcDbEntity
8
0
100
AcDbCircle
10
-4.5232927842131829
20
-88.188907134211121
30
0
40
13.500000000000023
210
0
220
0
230
1
0
CIRCLE
5
117
100
AcDbEntity
8
0
100
AcDbCircle
10
-40.523292784213176
20
-88.188907134211121
30
0
40
13.500000000000023
210
0
220
0
230
1
0
CIRCLE
5
118
100
AcDbEntity
8
0
100
AcDbCircle
10
-76.523292784213155
20
-79.188907134211121
30
0
40
13.500000000000025
210
0
220
0
230
1
0
CIRCLE
5
119
100
AcDbEntity
8
0
100
AcDbCircle
10
-76.523292784213155
20
-40.188907134211064
30
0
40
13.500000000000016
210
0
220
0
230
1
0
CIRCLE
5
120
100
AcDbEntity
8
0
100
AcDbCircle
10
-40.523292784213176
20
-49.188907134211071
30
0
40
13.500000000000025
210
0
220
0
230
1
0
CIRCLE
5
121
100
AcDbEntity
8
0
100
AcDbCircle
10
-4.5232927842131812
20
-49.188907134211064
30
0
40
13.500000000000023
210
0
220
0
230
1
0
CIRCLE
5
122
100
AcDbEntity
8
0
100
AcDbCircle
10
25.976707215786803
20
-29.188907134211028
30
0
40
13.500000000000023
210
0
220
0
230
1
0
LWPOLYLINE
5
123
100
AcDbEntity
8
0
100
AcDbPolyline
90
6
70
1
43
0.0
10
108.97670721578676
20
-3.5701049806939666
10
104.97670721578677
20
-5.8795060574524793
10
104.97670721578679
20
-10.49830821096948
10
108.97670721578679
20
-12.807709287727963
10
112.97670721578677
20
-10.49830821096945
10
112.97670721578676
20
-5.8795060574524509
0
LWPOLYLINE
5
124
100
AcDbEntity
8
0
100
AcDbPolyline
90
6
70
1
43
0.0
10
108.97670721578677
20
-12.807709287728009
10
112.97670721578677
20
-10.498308210969494
10
112.97670721578675
20
-5.8795060574524971
10
108.97670721578675
20
-3.5701049806940119
10
104.97670721578675
20
-5.8795060574525273
10
104.97670721578677
20
-10.498308210969526
0
LWPOLYLINE
5
125
100
AcDbEntity
8
0
100
AcDbPolyline
90
6
70
1
43
0.0
10
108.97670721578676
20
-3.5701049806939666
10
108.97670721578676
20
-3.5701049806939666
10
108.97670721578676
20
-3.5701049806939666
10
108.97670721578676
20
-3.5701049806939666
10
108.97670721578676
20
-3.5701049806939666
10
108.97670721578676
20
-3.5701049806939666
0
LWPOLYLINE
5
126
100
AcDbEntity
8
0
100
AcDbPolyline
90
6
70
1
43
0.0
10
68.976707215786789
20
-3.5701049806939755
10
64.976707215786803
20
-5.87950605745249
10
64.976707215786831
20
-10.498308210969487
10
68.976707215786831
20
-12.807709287727974
10
72.976707215786817
20
-10.498308210969459
10
72.976707215786803
20
-5.879506057452458
0
LWPOLYLINE
5
127
100
AcDbEntity
8
0
100
AcDbPolyline
90
6
70
1
43
0.0
10
68.976707215786789
20
-12.807709287728009
10
72.976707215786803
20
-10.498308210969494
10
72.976707215786789
20
-5.8795060574524785
10
68.976707215786774
20
-3.5701049806939777
10
64.976707215786774
20
-5.8795060574524927
10
64.976707215786774
20
-10.498308210969507
0
LWPOLYLINE
5
128
100
AcDbEntity
8
0
100
AcDbPolyline
90
6
70
1
43
0.0
10
68.976707215786789
20
-3.5701049806939755
10
68.976707215786789
20
-3.5701049806939755
10
68.976707215786789
20
-3.5701049806939755
10
68.976707215786789
20
-3.5701049806939755
10
68.976707215786789
20
-3.5701049806939755
10
68.976707215786789
20
-3.5701049806939755
0
LWPOLYLINE
5
129
100
AcDbEntity
8
0
100
AcDbPolyline
90
6
70
1
43
0.0
10
68.976707215786789
20
-85.570104980694097
10
64.976707215786803
20
-87.879506057452602
10
64.976707215786817
20
-92.498308210969611
10
68.976707215786803
20
-94.807709287728102
10
72.976707215786803
20
-92.498308210969583
10
72.976707215786789
20
-87.879506057452588
0
LWPOLYLINE
5
130
100
AcDbEntity
8
0
100
AcDbPolyline
90
6
70
1
43
0.0
10
68.976707215786803
20
-94.807709287728102
10
72.976707215786803
20
-92.498308210969583
10
72.97670721578676
20
-87.879506057452602
10
68.976707215786774
20
-85.57010498069414
10
64.976707215786803
20
-87.879506057452645
10
64.976707215786831
20
-92.498308210969626
0
LWPOLYLINE
5
131
100
AcDbEntity
8
0
100
AcDbPolyline
90
6
70
1
43
0.0
10
68.976707215786789
20
-85.570104980694097
10
68.976707215786789
20
-85.570104980694097
10
68.976707215786789
20
-85.570104980694097
10
68.976707215786789
20
-85.570104980694097
10
68.976707215786789
20
-85.570104980694097
10
68.976707215786789
20
-85.570104980694097
0
LWPOLYLINE
5
132
100
AcDbEntity
8
0
100
AcDbPolyline
90
12
70
1
43
0.0
10
108.97670721578679
20
-85.570104980694083
10
104.97670721578679
20
-87.879506057452588
10
104.97670721578679
20
-92.49830821096964
10
108.9767072157868
20
-94.807709287728144
10
112.9767072157868
20
-92.498308210969626
10
112.97670721578675
20
-87.87950605745263
10
108.97670721578675
20
-85.570104980694168
10
104.97670721578677
20
-87.879506057452687
10
104.9767072157868
20
-92.498308210969668
10
108.9767072157868
20
-94.807709287728144
10
112.97670721578683
20
-92.49830821096964
10
112.97670721578685
20
-87.879506057452602
0
LWPOLYLINE
5
133
100
AcDbEntity
8
0
100
AcDbPolyline
90
6
70
1
43
0.0
10
108.97670721578679
20
-85.570104980694083
10
108.97670721578679
20
-85.570104980694083
10
108.97670721578679
20
-85.570104980694083
10
108.97670721578679
20
-85.570104980694083
10
108.97670721578679
20
-85.570104980694083
10
108.97670721578679
20
-85.570104980694083
0
LWPOLYLINE
5
134
100
AcDbEntity
8
0
100
AcDbPolyline
90
4
70
1
43
0.0
10
151.22670721578675
20
-158.68890713421118
10
-138.77329278421314
20
-158.68890713421118
10
-138.77329278421314
20
41.311092865789057
10
151.22670721578675
20
41.311092865789064
0
ENDSEC
0
SECTION
2
OBJECTS
0
DICTIONARY
5
C
100
AcDbDictionary
3
ACAD_GROUP
350
D
3
ACAD_MLINESTYLE
350
17
0
DICTIONARY
5
D
100
AcDbDictionary
0
DICTIONARY
5
1A
330
C
100
AcDbDictionary
0
DICTIONARY
5
17
100
AcDbDictionary
0
ENDSEC
0
EOF
