0
SECTION
2
HEADER
9
$INSUNITS
70
4
9
$ACADVER
1
AC1014
9
$HANDSEED
5
FFFF
0
ENDSEC
0
SECTION
2
TABLES
0
TABLE
2
VPORT
5
8
100
AcDbSymbolTable
0
ENDTAB
0
TABLE
2
LTYPE
5
5
100
AcDbSymbolTable
0
LTYPE
5
14
100
AcDbSymbolTableRecord
100
AcDbLinetypeTableRecord
2
BYBLOCK
70
0
0
LTYPE
5
15
100
AcDbSymbolTableRecord
100
AcDbLinetypeTableRecord
2
BYLAYER
70
0
0
ENDTAB
0
TABLE
2
LAYER
5
2
100
AcDbSymbolTable
70
2
0
LAYER
5
50
100
AcDbSymbolTableRecord
100
AcDbLayerTableRecord
2
0
70
0
6
CONTINUOUS
0
ENDTAB
0
TABLE
2
STYLE
5
3
100
AcDbSymbolTable
70
1
0
STYLE
5
11
100
AcDbSymbolTableRecord
100
AcDbTextStyleTableRecord
2
STANDARD
70
0
0
ENDTAB
0
TABLE
2
VIEW
5
6
100
AcDbSymbolTable
70
0
0
ENDTAB
0
TABLE
2
UCS
5
7
100
AcDbSymbolTable
70
0
0
ENDTAB
0
TABLE
2
APPID
5
9
100
AcDbSymbolTable
70
2
0
APPID
5
12
100
AcDbSymbolTableRecord
100
AcDbRegAppTableRecord
2
ACAD
70
0
0
ENDTAB
0
TABLE
2
DIMSTYLE
5
A
100
AcDbSymbolTable
70
1
0
ENDTAB
0
TABLE
2
BLOCK_RECORD
5
1
100
AcDbSymbolTable
70
1
0
BLOCK_RECORD
5
1F
100
AcDbSymbolTableRecord
100
AcDbBlockTableRecord
2
*MODEL_SPACE
0
BLOCK_RECORD
5
1B
100
AcDbSymbolTableRecord
100
AcDbBlockTableRecord
2
*PAPER_SPACE
0
ENDTAB
0
ENDSEC
0
SECTION
2
BLOCKS
0
BLOCK
5
20
100
AcDbEntity
100
AcDbBlockBegin
2
*MODEL_SPACE
0
ENDBLK
5
21
100
AcDbEntity
100
AcDbBlockEnd
0
BLOCK
5
1C
100
AcDbEntity
100
AcDbBlockBegin
2
*PAPER_SPACE
0
ENDBLK
5
1D
100
AcDbEntity
100
AcDbBlockEnd
0
ENDSEC
0
SECTION
2
ENTITIES
0
CIRCLE
5
100
100
AcDbEntity
8
0
100
AcDbCircle
10
57.750001873853179
20
-131.49999801070686
30
-8.8817841970012523e-15
40
2.4999999999999951
210
-9.8607613152626465e-32
220
-2.4651903288156466e-32
230
1
0
CIRCLE
5
101
100
AcDbEntity
8
0
100
AcDbCircle
10
-51.749998126146615
20
-129.49999801070678
30
-8.8817841970012523e-15
40
13.499999999999975
210
-0
220
0
230
1
0
CIRCLE
5
102
100
AcDbEntity
8
0
100
AcDbCircle
10
-15.749998126146618
20
-90.499998010706861
30
-8.8817841970012523e-15
40
13.499999999999975
210
-0
220
0
230
1
0
CIRCLE
5
103
100
AcDbEntity
8
0
100
AcDbCircle
10
-15.749998126146675
20
-129.49999801070678
30
-8.8817841970012523e-15
40
13.499999999999972
210
9.8607613152626454e-32
220
-2.4651903288156778e-32
230
1
0
CIRCLE
5
104
100
AcDbEntity
8
0
100
AcDbCircle
10
14.750001873853293
20
-109.49999801070683
30
-8.8817841970012523e-15
40
13.499999999999975
210
-0
220
0
230
1
0
CIRCLE
5
105
100
AcDbEntity
8
0
100
AcDbCircle
10
97.750001873853137
20
-131.49999801070686
30
-8.8817841970012523e-15
40
2.4999999999999951
210
-9.8607613152626465e-32
220
-2.4651903288156466e-32
230
1
0
CIRCLE
5
106
100
AcDbEntity
8
0
100
AcDbCircle
10
57.750001873853321
20
-49.499998010706996
30
-8.8817841970012523e-15
40
2.4999999999999951
210
-9.8607613152626465e-32
220
-2.4651903288156466e-32
230
1
0
CIRCLE
5
107
100
AcDbEntity
8
0
100
AcDbCircle
10
97.75000187385325
20
-49.499998010707017
30
-8.8817841970012523e-15
40
2.4999999999999951
210
-9.8607613152626465e-32
220
-2.4651903288156466e-32
230
1
0
CIRCLE
5
108
100
AcDbEntity
8
0
100
AcDbCircle
10
-87.749998126146522
20
-120.49999801070676
30
-8.8817841970012523e-15
40
13.499999999999968
210
-9.8607613152626476e-32
220
1.5326701953552693e-46
230
1
0
CIRCLE
5
109
100
AcDbEntity
8
0
100
AcDbCircle
10
-51.749998126146551
20
-90.499998010706847
30
-8.8817841970012523e-15
40
13.499999999999979
210
-9.8607613152626465e-32
220
-2.4651903288156466e-32
230
1
0
CIRCLE
5
110
100
AcDbEntity
8
0
100
AcDbCircle
10
-87.749998126146451
20
-81.499998010706847
30
-8.8817841970012523e-15
40
13.499999999999968
210
-9.8607613152626476e-32
220
1.5326701953552693e-46
230
1
0
CIRCLE
5
111
100
AcDbEntity
8
0
100
AcDbCircle
10
77.750001873853208
20
-90.499998010706918
30
-8.8817841970012523e-15
40
13.499999999999968
210
-9.8607613152626476e-32
220
1.5326701953552693e-46
230
1
0
CIRCLE
5
112
100
AcDbEntity
8
0
100
AcDbCircle
10
14.750001873853355
20
-70.499998010706918
30
-8.8817841970012523e-15
40
13.499999999999979
210
-9.8607613152626465e-32
220
-2.4651903288156466e-32
230
1
0
LWPOLYLINE
5
113
100
AcDbEntity
8
0
100
AcDbPolyline
90
60
70
1
43
0.0
10
134.00000187385319
20
-5.9999980107072659
10
111.00000187385255
20
-5.9999980107072517
10
111.00000187385254
20
1.9892927338727162e-06
10
82.000001873852568
20
1.989292730486536e-06
10
82.000001873852568
20
-5.9999980107071806
10
53.000001873852618
20
-5.9999980107071416
10
53.000001873852611
20
1.9892928404541266e-06
10
24.000001873852671
20
1.9892928370679464e-06
10
24.000001873852664
20
-5.9999980107071451
10
-33.999998126147226
20
-5.9999980107070172
10
-33.999998126147219
20
1.9892929825626737e-06
10
-62.999998126147148
20
1.9892929791764935e-06
10
-62.999998126147162
20
-5.9999980107070385
10
-91.999998126147091
20
-5.9999980107069995
10
-91.999998126147062
20
1.9892930180898105e-06
10
-120.99999812614701
20
1.9892930147036303e-06
10
-120.99999812614705
20
-5.999998010706932
10
-143.99999812614629
20
-5.9999980107068964
10
-143.99999812614635
20
-24.999998010706939
10
-149.99999812614629
20
-24.999998010706946
10
-149.99999812614635
20
-49.999998010706889
10
-143.99999812614635
20
-49.999998010706875
10
-143.99999812614641
20
-74.999998010706818
10
-149.99999812614641
20
-74.999998010706832
10
-149.99999812614647
20
-124.9999980107067
10
-143.99999812614649
20
-124.9999980107067
10
-143.99999812614652
20
-149.99999801070663
10
-149.99999812614649
20
-149.99999801070663
10
-149.99999812614652
20
-174.99999801070658
10
-143.99999812614655
20
-174.99999801070658
10
-143.99999812614658
20
-193.99999801070652
10
-120.99999812614662
20
-193.99999801070658
10
-120.99999812614666
20
-199.99999801070655
10
-91.999998126146707
20
-199.99999801070655
10
-91.999998126146664
20
-193.99999801070658
10
-62.999998126146721
20
-193.99999801070658
10
-62.999998126146757
20
-199.99999801070658
10
-33.999998126146814
20
-199.99999801070658
10
-33.999998126146806
20
-193.99999801070661
10
24.000001873853087
20
-193.99999801070663
10
24.00000187385308
20
-199.99999801070661
10
53.000001873853016
20
-199.99999801070661
10
53.000001873853016
20
-193.99999801070666
10
82.000001873852966
20
-193.99999801070666
10
82.000001873852966
20
-199.99999801070663
10
111.00000187385292
20
-199.99999801070663
10
111.00000187385292
20
-193.99999801070669
10
134.00000187385288
20
-193.99999801070669
10
134.00000187385294
20
-174.99999801070675
10
140.00000187385291
20
-174.99999801070675
10
140.00000187385294
20
-149.99999801070683
10
134.00000187385297
20
-149.99999801070683
10
134.00000187385297
20
-124.99999801070689
10
140.00000187385299
20
-124.99999801070688
10
140.00000187385308
20
-74.999998010707003
10
134.00000187385308
20
-74.999998010707003
10
134.00000187385311
20
-49.999998010707046
10
140.00000187385311
20
-49.999998010707039
10
140.00000187385317
20
-24.999998010707117
10
134.00000187385317
20
-24.999998010707124
0
ENDSEC
0
SECTION
2
OBJECTS
0
DICTIONARY
5
C
100
AcDbDictionary
3
ACAD_GROUP
350
D
3
ACAD_MLINESTYLE
350
17
0
DICTIONARY
5
D
100
AcDbDictionary
0
DICTIONARY
5
1A
330
C
100
AcDbDictionary
0
DICTIONARY
5
17
100
AcDbDictionary
0
ENDSEC
0
EOF
