G04*
G04 #@! TF.GenerationSoftware,Altium Limited,Altium Designer,22.0.2 (36)*
G04*
G04 Layer_Color=255*
%FSLAX25Y25*%
%MOIN*%
G70*
G04*
G04 #@! TF.SameCoordinates,4BB8C506-B3DD-4E8A-8237-D4BD2434A483*
G04*
G04*
G04 #@! TF.FilePolarity,Positive*
G04*
G01*
G75*
%ADD25C,0.06102*%
%ADD26R,0.06102X0.06102*%
%ADD27C,0.05512*%
%ADD28R,0.05512X0.05512*%
%ADD31C,0.19685*%
%ADD32C,0.06299*%
%ADD33R,0.06299X0.06299*%
G04:AMPARAMS|DCode=34|XSize=125.98mil|YSize=62.99mil|CornerRadius=15.75mil|HoleSize=0mil|Usage=FLASHONLY|Rotation=0.000|XOffset=0mil|YOffset=0mil|HoleType=Round|Shape=RoundedRectangle|*
%AMROUNDEDRECTD34*
21,1,0.12598,0.03150,0,0,0.0*
21,1,0.09449,0.06299,0,0,0.0*
1,1,0.03150,0.04724,-0.01575*
1,1,0.03150,-0.04724,-0.01575*
1,1,0.03150,-0.04724,0.01575*
1,1,0.03150,0.04724,0.01575*
%
%ADD34ROUNDEDRECTD34*%
G04:AMPARAMS|DCode=35|XSize=62.99mil|YSize=125.98mil|CornerRadius=15.75mil|HoleSize=0mil|Usage=FLASHONLY|Rotation=0.000|XOffset=0mil|YOffset=0mil|HoleType=Round|Shape=RoundedRectangle|*
%AMROUNDEDRECTD35*
21,1,0.06299,0.09449,0,0,0.0*
21,1,0.03150,0.12598,0,0,0.0*
1,1,0.03150,0.01575,-0.04724*
1,1,0.03150,-0.01575,-0.04724*
1,1,0.03150,-0.01575,0.04724*
1,1,0.03150,0.01575,0.04724*
%
%ADD35ROUNDEDRECTD35*%
D25*
X182000Y119500D02*
D03*
X172000D02*
D03*
X352421Y331567D02*
D03*
X312421D02*
D03*
X292421Y51567D02*
D03*
X272421Y331567D02*
D03*
X252421Y51567D02*
D03*
X212421D02*
D03*
X172421D02*
D03*
X252421Y86567D02*
D03*
X212421D02*
D03*
X172421D02*
D03*
D26*
X192000Y119500D02*
D03*
X342579Y331567D02*
D03*
X302579D02*
D03*
X282579Y51567D02*
D03*
X262579Y331567D02*
D03*
X242579Y51567D02*
D03*
X202579D02*
D03*
X162579D02*
D03*
X242579Y86567D02*
D03*
X202579D02*
D03*
X162579D02*
D03*
D27*
X352264Y51567D02*
D03*
X342421D02*
D03*
X332579D02*
D03*
X352264Y86567D02*
D03*
X342421D02*
D03*
X332579D02*
D03*
X352264Y121567D02*
D03*
X342421Y121567D02*
D03*
X332579D02*
D03*
X352264Y156567D02*
D03*
X342421Y156567D02*
D03*
X332579D02*
D03*
X342421Y191567D02*
D03*
X352264D02*
D03*
X332579D02*
D03*
X342421Y226567D02*
D03*
X352264D02*
D03*
X332579D02*
D03*
X342421Y261567D02*
D03*
X352264D02*
D03*
X332579D02*
D03*
X352264Y296567D02*
D03*
X342421D02*
D03*
X332579D02*
D03*
X57264Y51567D02*
D03*
X47421D02*
D03*
X37579D02*
D03*
X57264Y86567D02*
D03*
X47421D02*
D03*
X37579D02*
D03*
X57264Y121567D02*
D03*
X47421D02*
D03*
X37579D02*
D03*
X57264Y156567D02*
D03*
X47421D02*
D03*
X37579D02*
D03*
X57264Y191567D02*
D03*
X47421D02*
D03*
X37579D02*
D03*
X57264Y226567D02*
D03*
X47421D02*
D03*
X37579D02*
D03*
X57264Y261567D02*
D03*
X47421D02*
D03*
X37579D02*
D03*
X57264Y296567D02*
D03*
X47421D02*
D03*
X37579D02*
D03*
X57264Y331567D02*
D03*
X47421Y331567D02*
D03*
X37579Y331567D02*
D03*
D28*
X322736Y51567D02*
D03*
Y86567D02*
D03*
X322736Y121567D02*
D03*
Y156567D02*
D03*
X322736Y191567D02*
D03*
Y226567D02*
D03*
X322736Y261567D02*
D03*
X322736Y296567D02*
D03*
X27736Y51567D02*
D03*
Y86567D02*
D03*
Y121567D02*
D03*
X27736Y156567D02*
D03*
X27736Y191567D02*
D03*
X27736Y226567D02*
D03*
X27736Y261567D02*
D03*
X27736Y296567D02*
D03*
Y331567D02*
D03*
D31*
X20000Y360000D02*
D03*
X20500Y20500D02*
D03*
X360000Y20000D02*
D03*
Y360000D02*
D03*
D32*
X272500D02*
D03*
X282500D02*
D03*
D33*
X262500D02*
D03*
D34*
X143799Y333043D02*
D03*
Y323043D02*
D03*
Y233043D02*
D03*
X220098D02*
D03*
X143799Y303043D02*
D03*
Y313043D02*
D03*
Y253043D02*
D03*
Y243043D02*
D03*
Y163043D02*
D03*
Y193043D02*
D03*
Y173043D02*
D03*
Y183043D02*
D03*
Y153043D02*
D03*
Y203043D02*
D03*
Y213043D02*
D03*
Y223043D02*
D03*
Y143043D02*
D03*
Y273043D02*
D03*
Y283043D02*
D03*
Y293043D02*
D03*
Y263043D02*
D03*
X220098Y153043D02*
D03*
Y143043D02*
D03*
Y163043D02*
D03*
Y173043D02*
D03*
Y193043D02*
D03*
Y183043D02*
D03*
Y203043D02*
D03*
Y213043D02*
D03*
Y223043D02*
D03*
Y243043D02*
D03*
Y253043D02*
D03*
Y273043D02*
D03*
Y263043D02*
D03*
Y323043D02*
D03*
Y293043D02*
D03*
Y303043D02*
D03*
Y313043D02*
D03*
Y283043D02*
D03*
Y333043D02*
D03*
D35*
X171949Y140760D02*
D03*
X181949D02*
D03*
X191949D02*
D03*
M02*
